<svg xmlns="http://www.w3.org/2000/svg" viewBox="0 0 162.6 161.9"><style>.homeless-st0{fill:#333333;}</style><path class="homeless-st0" d="M43.6 122.6c-.4-.6-1.2-.6-1.6 0v.1c-.3-.3-.9-.4-1.3 0l-.4.4-.1.1v-.1c0-.7-1.1-1.2-1.5-.4-.1-.1-.2-.1-.3-.1-.4-.5-1-.9-1.6-1.1-.7-.9-1.4-1.7-2.6-1.7h-.1c-.2-.1-.5-.2-.7-.2 0-.4-.1-.8-.1-1.1 0-.5-.6-1-1.1-.8.2-.8.4-1.6.2-2.4-.1-.7-1.1-.6-1.3 0-.6 2-.8 3.9-.2 5.8.1 1.3.6 2.6 1.1 3.4.5.7 1.2 1.2 1.9 1.6.3.3.7.5 1 .5.4.2.8.3 1.3.3.3 0 .6.1.9.1-.8 3.5-.9 7.5.4 10.2 0 .1.1.1.2.2.1.2.1.3.2.5.1.3.5.3.7.1.1-.1.1-.2.2-.2.3-.3.1-.6-.2-.7-.1-.5-.1-1 0-1.6.5.2 1.1 0 1.2-.6 0-.2.1-.8.2-1.5.3.1.6.2 1 0 1.3-.6 1.4-1.9 1.9-3 .8-2 1.4-4.5 1.5-6.6.1-.9-.4-1.2-.8-1.2zM48.1 76.8c-3.9-1.3-6.8.9-8.3 4.4-.9 2-1.7 4.7-1.9 6.9-.4 4.6-1.4 8.3-3.4 12.5-.2.4.4.8.7.4 1.2-2 2.3-3.9 3.1-6.1 0-.1.1-.2.1-.3.3.3.9.2 1.1-.2.6-1 .3-1.9.5-3 .1-.8.3-1.6.5-2.5 1-1.1 2-2.8 2.4-4.5.9-1.4 1.6-3.2 1.8-4.1.2-.2.4-.5.6-.8h.1c.2 0 .2-.1.3-.3.2-.1.3-.3.4-.4.2-.1.4-.3.6-.4.3.2.8.1.9-.3h.3c.9.1 1-1 .2-1.3zM62.7 44.5c-.8-.3-1-.2-1.7.1-1 .4-.2-.3-.8-1.1-.2-.4-.6-.5-1-.4-.6.1-1 .4-1.4.9-1.2 1.6-2.6 3-3.9 4.5-1.9 2.1-3 4.4-3.8 7.1-.4 1.2 0 2.8 0 4.1 0 .4-.1.8-.1 1.3-.2 1.3-.7 2.5-1 3.8-.3 1.1-.1 2.5.4 3.7.1.6.4 1.3.7 1.8.2.3.5.9.9 1.6 0 .1 0 .2.1.3.1.7.3 2.5 1 3.4 0 .1 0 .2-.1.3-.1.1-.2.1-.3.2-.2.1-.3.4-.3.6-.2.4.1.8.5.7h.3c2.1-.6 4.9-.1 6.6-1.8 1.3-1.3-1.6-3.4-1.9-4.4-.1-.2-.2-.5-.4-.9 0-1.3-.3-2.9-.7-4.3v-.4l.1-.1c.3-.2.6-.6.6-1 0-.8-.2-1.4-.5-1.8.9-.7 1.5-1.3 1-3-.2-.5-.4-1.3-.5-2.1.4-1.1.5-2.6.5-3.9.4-.9.7-1.7 1.1-2.5.1-.2.1-.5 0-.7 0-.1.1-.1.1-.2.4-.6 1-1 1.4-1.7v-.1c.1-.1.3-.2.4-.4 0 .1.1.2.1.2.3.7 1.5.2 1.3-.5 0-.1-.1-.2-.1-.2.1.1.3.2.5.1.3.1.7 0 1-.3.3-.6.7-1 .8-1.7-.2-.6-.4-1-.9-1.2zM52.5 126.8v.2c0 .5.8.5.8 0v-.2c.1-.5-.9-.5-.8 0zM101.2 149.3c-1.2 0-2.7.7-3.7 1.3-.6.3-1.1.5-1.6.9-.8 0-1-.2-.7-.6.1-.3.1-.6.2-.9 0-.4-.4-.6-.7-.4-.4.2-1.9 1.4-2.2.8-.2-.4.2-1.2.4-1.8.1-.1.2-.1.2-.1.2-.1.1-.4-.1-.4h-.1c-.2-.2-.7-.2-.7.1-.2.1-.3.1-.5.2l-.3.2c-.4.4-.8.2-1-.6.4-.4.8-.6 1.2-.9.6-.4 1.4-.6 2.1-.9.6-.3 1.5-.8 2.2-.3.3.2.6-.3.3-.5-.9-.6-2-.1-2.9.3-1.4.6-2.5 1-3.7 2.1-.5.5-.5 1.4.1 1.8.7.4 1.5.1 2.2-.3-.3.7-.5 1.3.3 2.1.6.6 1.6.1 2.3-.4-.1.8-.1 1.6 1.2 1.6.8 0 1.4-.8 2.1-1.1 1.2-.6 2.5-1 3.8-1.5.1-.1 0-.6-.4-.7z"/><path class="homeless-st0" d="M117.7 140.1c-1.3-1.1-2.4-1.7-4-2.4-.6-.3-1.1-.7-1.7-.9-.6-.2-1.1-.2-1.7-.2.3-.5.7-1.1.5-1.7 0-.1-.1-.3-.1-.4v-.1c-1.1-3.5-2.4-4.1-3.6-7.6-1.1-3-2.5-5.9-3.9-8.8 0-.2 0-.4-.1-.6-.2-.3-.4-.5-.6-.7-.4-.5-.9-1.2-1.6-1.1-.2-.4-.4-.7-.5-1.1-.3-.6-.5-1.2-.8-1.9.2-.2 0-.5-.2-.6-.1-.3-.2-.6-.4-.9h.1c.4-.3.3-.9.2-1.3h.1c-1.9-4.5-3.8-9.1-6.2-13.4h.2c.5 0 .9-.7.5-1.1-.5-.4-.7-1-1.2-1.5-.4-.4-.9-.7-1.4-1 0-.2-.1-.4-.4-.5-1.1-.3-2.2-.8-3.4-.8-.8 0-1.1-.5-2.1-.3-.6.2-1.1.5-1.7.6-.9.2-1.3-.1-1.2-.8.2-.1.4-.2.7-.3 1.4-.7 3-.8 4.4-.2.3.1.6-.2.5-.5.1-.1.1-.2 0-.3-1-.8-2.2-.8-3.4-.8-1.5.1-3 .3-4.5.4-.1-.1-.2-.2-.3-.2-1-.3 1.8-1.6 1.6-1.6.1 0 .2-.1.3-.1.7-.2 1.3-.3 2.1-.4h1.8c.6.1 1.2.4 1.8.8.2.1.4-.2.2-.4-.1-.1-.3-.2-.4-.3 0 0 0-.1-.1-.1-.1-.1-.3-.1-.4-.2-1.9-1-4.2-.9-6.3-.1-.2 0-.4.1-.6.1-.2 0-.4 0-.6.1-.7.2-1-.3-.9-.8.2-.1.5-.2.7-.3.2-.1.5-.2.7-.3.1 0 .2-.1.3-.1 0 0 .3-.2.2-.2.2-.1.4-.3.4-.4.5-.2 1-.4 1.5-.5 1.8-.2 4 0 5.5 1.1.2.2.4-.2.2-.4-1.4-1-3.6-1.4-5.3-1.3-.7 0-1.6.2-2.4.5H80c-.1 0-.2 0-.3.1 0 0-.3.1-.2.1l-.9.3c-.3.1-.6.3-1 .3-.1-.3 0-1.1.2-1.6 1.8-.8 4.5-1.1 6-1.1 3.1 0 6 2.2 8.5 3.8.2.1.3.1.5 0 .4.4.9.7 1.2 1.1.8 1 1.3 2.3 2 3.4.9 2.9 1.7 5.8 2.6 8.8.7 2.2 1.4 4.1 1.7 6.3.2 1.3-.3 2.5-.1 3.7.1.5.9.6 1.1.2 1.5-2.9.4-6.5-.6-9.4-1.1-3-2-6-3.1-8.9v-.2c-.1-1.2-.7-2.3-1.4-3.3-.1-.3-.3-.7-.4-1-.1-.2-.3-.3-.5-.3-.9-1-2.2-1.4-2.9-2.5-.7-1.4-2.4-2.6-3.8-3.3v-.2c-.1-.2-.3-.3-.4-.5-.1-.3-.2-.5-.5-.7-.1-.2-.3-.3-.4-.5-.1-.2-.2-.4-.4-.5-.7-.7-1.7-1-2.5-1.5s-1.9-1.1-2.9-1.5c-.1.4-.3.9-.4 1.3 0 .1-.1.1-.1.2 1.1.5 2.2 1 3.2 1.7.8.5 1.5.8 2.1 1.4-.3 0-.5-.1-.8-.1-.8-.1-1.9.9-2.5 1.4h-.1c-1.5 0-3.5.3-5.2 1.1h-.1c-.1 0-.1.1-.2.1-.7.3-1.3.8-1.7 1.3-.3-.3-.6-.5-1.1-.6-.7-.2-1.3-.2-2-.2-.1-.1-.2-.2-.4-.2h-1.9c-1.2-1.2-3.2-1.6-4.8-1.5-2.9.1-4.5 2.5-6.4 4.2-.1 0-.2 0-.3.1-.1.1-.2.3-.3.4-.2.1-.3.3-.5.4-.2.1-.2.3-.2.5-2.7 3.3-5.2 6.6-7.5 10.2-2.9 4.5-7.6 7.4-10.7 11.8-.6.9.8 1.7 1.5.9 3-3.9 7.1-6.9 9.8-11 1.3-1.9 2.5-3.8 3.8-5.7.4-.3.7-.7 1-1.2.3-.4.5-.7.8-1.1v-.1c.6-.7 1.1-1.5 1.6-2.3.1-.1 0-.2 0-.3.2-.3.5-.6.7-.9 1.4-1.4 4-2.9 5.7-2.5.9.2 2.6-.7 3.4-.7 1.5-.2 3-.1 4.4-.2.1 0 .2 0 .2-.1.2 0 .5 0 .7.1.5.2 1.2.1 1.6.4l.4.4c-.8-.2-1.6-.4-2.5-.4-1.9 0-4 .3-5.9.8-.4.1-.3.8.1.9 1.7.2 3.5-.3 5.2-.5 1-.1 2 0 3 .1.2 0 .6.1 1.1.1h.1c.1.3.4.5.7.6-.1.1-.1.2-.1.4l-.1.1-.1.1c-1.1-.1-2.2 0-3.1.1-2 .2-4.5.3-6.3 1.4-.3.2-.2.7.2.7 3 .1 6.1-.9 9.1-1h1c.1.1.2.1.4.2h.1l.4.4c-.1.3-.2.5-.2.8-.1 0-.2.1-.4.1-1.3.4-2.8.7-4.1.4-.3-.1-.7.1-.9.4-1.9-.1-3.8-.1-5.6.9-.4.2-.3.9.2.8 1.7-.2 3.3-.7 5.1-.6.7.1 1.4.1 2 .1-.3 0 3.4.1 2.4.8-1.6 1.1-4 .9-5.9 1.5-.6.2-1.4.3-2.2.4-.1-.2-.4-.4-.6-.3-1.2.3-2.7.8-3.8 1.5-.4.1-.7.4-.9.7-.4.2-.7.4-1 .6-.5.4-1.3.5-1.9.8-1.3.7-2.2 2-3.1 3.1-.1.1-.1.1-.1.2l-.3.3c-2.1 2.4-3.9 4.9-5.7 7.6-3.5 5.2-5.6 13.6-13.3 12.9-.1 0-.2 0-.3.1-1.8-.5-2.9-1.8-4.2-3.2-2.2-2.5-1.8-5.5-1-8.5 1.1-4.4 3.1-8.7 5.1-12.7.8-1.6 1.6-3.1 2.3-4.7 1.9.2 3.4.6 5.2 1.5 1.6.8 2.7 2 4.1 3 .3.2.7-.3.4-.6-2.8-2.4-5.7-4.4-9.4-4.5.1-.1.1-.2.2-.3.1-.1.1-.2.1-.4 1.1 0 2.1.1 3.2.3 1.1.2 1.9 1.1 3 1.4 1.4.3 2 2 3.3 2.3.4.1.6-.5.2-.6-.4-.2-1-1-1.4-1.3-.4-.2-.7-.7-1.1-.9-.6-.4-1.2-.4-1.9-.8-1.4-.9-3.3-1-5-1 .6-1.7 1-3.5 1.8-5.1 1.1-2.2 2.4-3.8 4.1-5.7 1.8-2 4.1-2.1 6.5-2.1 2.4.7 4.8 2.5 5.1 5 0 .1.1.2.2.3.1.2.2.4.3.5.2.2.6-.1.4-.3 0-.1-.1-.1-.1-.2.1-.1.1-.2.1-.3.1-1.7-.5-3.7-1.8-4.7-.9-.7-2.2-1.2-3.4-1.4-.1-.1-.2-.3-.4-.3-4.2-1.4-7.7 1.3-10.2 4.5-1.8 2.4-3 5-3.7 7.9-.9 3.5-3.2 6.7-4.6 10.1-1.2 2.9-2.5 5.7-3.5 8.7-.6 2-2.1 5.4-1.5 7.5 1 3.7 4.6 7.8 8.6 7.8 1.5.5 2.8.4 4.1-.1-.1.3-.2.7-.2 1 0 .2.1.4.3.4 0 .1-.1.3-.1.4-.1.4-.3.7-.3 1-.4 1.1-.6 2.4-.7 3.7-2.6 1.4-6.4 4.1-6 7.1-.1.7 0 1.5.2 2.3.4 1.2 1.6 2.4 2.7 3.1 1.1.8 2.6 1.1 3.8 1.5.9.3 1.6.6 2.4.8.9.4 1.8.8 2.7.6.8.2 1.7.4 2.5.5 6.8 1.2 13.7 2.5 20.5 4.2 1.7.8 3.5 1.6 5.3 2.2 1.6.8 3.3 1.5 5 1.9 2.9 1.7 6.2 2.9 9.4 3.9 2 .6 4.1.9 6.1 1.3 1.9.3 3.4 1 5.4.8 2.7-.1 4.7-2.5 4.5-5 0-.3-.2-.5-.4-.5.1-.1.1-.1.2-.3.3-1.4-.2-2.6-1.1-3.6.6 0 1.3 0 1.8.1 1.6.3 3 .3 4.5.2.7.1 1.5.2 2.1.1H114.2c.2 0 .5 0 .7.1.1 0 .2 0 .3.1h.3c1 0 1.9-.1 2.6-1 .8-1 1.2-2.1 1.3-3.3.1-.1.3-.2.3-.3 1.3-2.4-.3-4.4-2-5.9zm-32.5-59c1.2-.7 2.9.2 4 .8.9.5 1.6 1.3 2.4 2.1-2-1.5-4.3-2.4-6.7-2.7 0 0 .2-.1.3-.2zm-23.1 3.3c-.1 0-.1.1-.2.1 1-1 2.1-1.8 3.7-2 .9-.1 2.3.1 3.4.5-2.3 0-4.7.4-6.9 1.4zm51.6 55.1c.1 0 .2-.1.2-.2.7.5 1.4 1 2 1.5.6.5 1.1 1 1.6 1.6-1.2.1-2.2.6-3.3 1.1-.3.1-.7.8-1.1.5-.4-.2.1-.9.2-1.2.1-.3-.2-.5-.5-.4-.8.4-1.2 1-2.1.4 0 0 1.3-1.1 1.4-1.3.2-.2.1-.5-.2-.5-.9-.1-.9 0-1.9.4-.1 0-1.2.7-1.1.7-.9-1 4.1-2.3 4.8-2.6zm-2.9-1.5c-1 .9-2.2.8-3.4 1-.8.1-1.9.2-2.6.4-.8.3-1.6-.9-.6-.8.5.1 1-.4 1.5-.4s.9-.1 1.4-.3c.5-.2.9-.5 1.4-.8 0 .1 0 .2.1.3.1.3.3.6.7.5.4-.1 1-.1 1.5.1zm-9-20.9l.1.1h-.4c-.1-.2-.2-.4-.2-.7.1.3.3.5.5.6zm-.1 1.2c.3.7.6 1.4 1 2.1-1.2-.5-1.9-1.5-3.1-2-.1 0-.1-.1-.2-.1.7.2 1.6.3 2.3 0zm-3.5-7.6c.2.5.4 1.1.6 1.6-.1.1-.2.1-.3.2-.4.2-.1.9.4.7.1 0 .1-.1.2-.1 0 .1.1.2.1.3l-.2.2c-.1.3.2.5.4.3.1.2.1.3.2.5.4.9.6 2.1 1.1 3-.9 0-1.7-.1-2.3-.9-.8-1.2-1.5-4.5-.2-5.8zm-22.5 22.2c-.8-3.3-1.5-3.8-2.6-7-.3-1.5-.7-3-1.1-4.4-.6-2-1.1-4-1.6-5.9-.1-.7-.4-1.5-.5-2.2-.2-1.2-.3-2.2-1.1-3.2-.3-.3-.8-.3-.8.2-.1 1 .3 2 .4 3 .1.5.2.9.3 1.3h-.2c1.2 4.5 2.4 8.9 3.5 13.4.1.5.2.9.3 1.3-.2 1.5-.2 3-.4 4.5l-.6.6c-.6.5-1.2.4-1.9.4-.6 0-.9.9-.3 1.2.1.1.3.2.4.3-.2.2-.2.6-.3.9 0 .4-.1.6-.3 1 0 0 0 .1-.1.1-.2.3-.3.8-.6 1-.4.3-.8.7-1.2 1-.6.4-1.2.7-1.9 1-.1 0-.3.1-.4.2-.5.2-.9.3-1.4.5-.2-.1-.4 0-.4.1-.1 0-.1 0-.2.1-2.8.9-8-.9-10.3-2.7-1.2-1-2.3-1.9-3.1-3 .8-.6 1.5-1.4 2.1-2.3.4-.7.5-1.4.6-2.2.1-.8-.3-2.4 0-3.1.1-.2-.2-.4-.3-.2-.3.5-.2.3-.2.9 0 1 .1 1.9 0 2.9-.3 1.6-1.4 2.5-2.5 3.4-.7-1-1.3-2.1-1.7-3.4-.3-1-.7-2.3-.9-3.6h.1c1.6-.2 2.9-1.2 4.4-1.6 1-.3 1.6-1.2 2.2-2.1.2.3.8.3.9-.2 1.3-3.6 2.4-7.3 3.7-10.9 1.4-3.7 2.2-7.6 4-11.1.2-.5-.4-1-.7-.6-2.4 2.5-3 5.9-4 9.1-1.3 4.1-2.5 8.1-3.7 12.2-1.1 1-1.7 2.2-3.3 2.4-1.3.1-2.3 1-3.5 1.2-.1 0-.2 0-.3.1-.2-1.6-.1-3.1.3-4.3v-.1c.4-.6 1.8-.8 2.4-1 1.2-.4 2.4-1 3.3-1.9.3-.3-.1-.8-.4-.6-1.3.7-2.4 1.6-3.8 2.1-.6.2-1.3.4-1.7.8.1-.2.1-.4.2-.6l.3-.9c2.2-1.9 3.9-4.6 5.2-6.9 1.7-3.2 3.4-6.3 5.4-9.3.9-1.4 1.9-2.8 2.9-4.1.4-.6.9-.9 1.4-1.2.4 0 .7-.1 1.1-.2v-.2c.5-.2.9-.4 1.3-.6.1.6.3 1.1.7 1.6.2.3.6-.1.4-.4-.3-.3-.5-.8-.7-1.2 0 0 .1 0 .1-.1.2-.2.3-.3.5-.4.2-.1.4-.2.6-.4 1.1-.6 2.3-.8 3.6-.9.5-.2 1.1-.3 1.6-.5 1 0 1.9-.1 3-.6 1-.4 2.5-.2 3.2-1.1.6-.1 1.1-.3 1.7-.4.1-.1.2-.3.3-.4.1-.2.1-.4 0-.6.2-.3.3-.7.3-1.1 0-.8-.7-1.1-1.6-1.3.6-.1 1.1-.3 1.7-.5.1.1.3.2.6.2 0 .2.1.3.3.4.3.1.5.2.8.3-.1.1-.1.3-.1.6.3 1 1.3 1.4 2.1 1.8 1.3.5 3.1.1 4.5.3 1.4.3 2.8.8 4.2 1 2.3 4.6 3.9 9.6 5.9 14.4-2.9.9-.7 5.2-.4 7.2.1.9.8 2.4 1.8 2.7 1.8.6 2.5 2 4.3 2.4.6 1.4 1.2 2.7 1.9 4 1 1.9 1 1.2 2 3.1.3.5.6 1 .9 1.6-1.6-.7-3.7-.2-5.4-.1-1.5.1-3 .9-3.9 2-.1.2-.2.4-.2.5h-.1c-.9.5-1.5 1.7-.9 2.6.1.2-2.2 2.3-2.5 2.1-.2-.2-.5-.1-.7.1-.2-.8-.5-1.5-1-2.1-1.8-7.7-2.6-12.6-4.7-20.3-1.3-4.5-3-8.8-4.3-13.4-1.1-4-1.6-7.9-4.7-10.8-.2-.2-.6.1-.4.4.7.8 1.3 1.8 1.8 2.8.1.1.1.3.2.4 1.3 3.1 1.7 6.7 2.5 9.9 1.1 4.4 2.6 8.7 4 12.9 1.3 3.9 1 5.3 2.2 9.2.7 2.4 1 5 1.5 7.5-1.9-.6-4.6.7-6.4.8-1 .1-2.3.8-2.8 1.8-1.1.1-1.9 1.5-1.9 2.5s.8 1.9.2 2.9l-1.2 1.2c-.1.1-.2.2-.4.3-2.2-3.1-2.7-7-3.5-10.5zm5.3 11c.4.7 1.2 1.6 1.3 1.8.2.5.9 1 1.2 1.4.5.6 1 1.2 1.6 1.8.6.5 1.3.9 2.1.8-.1.1-.1.3-.1.4-.7 2.3-3.3-.1-4-.7-1.2-1.1-2.5-2.2-3.7-3.3.3-.1.6-.3.8-.6.1-.1.3-.2.3-.3.2-.5.4-.9.5-1.3zm17.3 13.4c-2.1-.8-4.8-.7-7-1.3-2.4-.7-4.7-1.6-7-2.8 0-.2-.1-.4-.3-.4-.4-.1-.7-.2-1-.3-1.2-.6-2.5-1.4-3.3-2.4 3.4 2.8 8.8 4.1 12.6 5.1 4.2 1.1 10 2.5 13.6-.7-.5 3.6-4.9 3.9-7.6 2.8zm7.5-3.7c0 .1.1.1.1.2-.1 0-.2 0-.4.1-3.5 3.3-9.9 1.5-14.1.4-3.8-1-9.3-2.5-12.3-5.4-.2-.6-.2-1.4-.3-2.2.5.7 1.3 1.5 2 1.9 1.3.9 2.3 2.1 3.7 2.8.5.2 1.6.6 2.1.2 1-.6.8-1.4 1.4-2.3.2-.3-.1-.5-.4-.4h-.3c-1.3.5-2.2-.8-2.9-1.6-.5-.6-1.3-1.2-1.7-1.9-.2-.3-1.2-1.3-1.6-1.9.7-.8 1.5-1.3 2.1-2.2.5-.7.3-1.6.2-2.4-.2-1.1-.2-1.7.4-2.1.1 1 .4 2 .4 3 0 1.1-.5 1.9-.9 2.9-.1.2.1.4.3.3.7-.6 1.1-1.5 1.3-2.3.3-1.5-.3-2.8-.4-4.2.3-.1.6-.2 1-.2 1-.2 1.8-.4 2.8-.6 1-.1 2.1-.4 3 .2.1.1.2.1.3.2.3.3.6.7.7 1.1-.1.5 0 .9.2 1.4.3.7.4 1.4.6 2.1-.5.4-.9.8-1.4 1.1-.3.1-.6.4-.9.6-.1 0-.2.1-.3.1-.9.3-1.7.6-2.7.6-.6 0-1.1.1-1.5.6-.2.2-.1.5.1.6-.8.5-.9 2.3.5 2.3.7 0 2.1.1 2.7-.4.5-.4 1.1-.3 1.7-.5.4-.1.8-.5 1.2-.7.4-.2.1-.9-.3-.7-.4.1-1 .6-1.3.6-.5 0-1.3.1-1.7.4-.4.3-1.2.2-1.7.2-1 .2-.5-.9-.5-.9.3 0 .4-.3.1-.4H87c.1-.1.3-.2.5-.2h1.2c.4 0 .9-.3 1.3-.4.8-.3 1.6-.5 2.4-.8l.9-.3h.2c0 .1.1.3.1.4v.2c-.1.1-.2.3-.3.5-.4.2-.4.7 0 .9.5.2 2.1-.1 2.3.4.2.6 1.1 1 1.6 1.2 1.7.7 3 2.1 4.6 3 2 1 3.4 2.4 4 4.5zm12.9-8.1c-1.3.7-2.3 1.8-4 1.6-1.9-.2-3.6-.4-5.5-.9-3.5-.9-6.9-1.7-10.4-2.9-.4-.1-.5.4-.2.6 4.3 1.7 8.7 2.7 13.1 4 2.5.7 4.5.4 6.4-.8-.1.2-.2.3-.3.5-.6.9-1.6 1.3-2.7 1.4-.1-.1-.3-.3-.5-.2-.6 0-1.3.1-1.9.1h-.2c-.5-.2-1-.4-1.6-.4h-.2c-2.1-.5-4.2-.8-6.3-1.4-.3-.1-.4.1-.5.3h-.1c-.2-.1-.3-.2-.5-.2-.3-.1-.6.3-.3.6 0 .1 0 .1-.1.2-.5-.4-1.1-.7-1.5-1-1.4-1-3.5-1.9-4.6-3-.7-.7-1.5-.4-2.3-.3l.1-.1c.1-.2.1-.3.1-.5s-.2-.4-.4-.4c-.1-.1-.1-.2-.2-.3v-.1c.2-.1.2-.4.3-.7l.3-.3c.2-.7.1-1.3-.1-1.9 0-.3-.1-.6-.1-.8.1.1.3.2.5.2-.1.3 0 .8.5.8 1.7-.2 3.1-.9 4.1-2.2v-.1c.5-.4.9-.8 1-1.3 0-.7-.3-3 .3-3.4.1-.1.2-.1.3-.1.2.8 0 1.7 0 2.5s.4.8-.1 1.7c-.3.5-.6.8-.9 1.3-.1.3.2.5.4.2.5-.6 1.4-1.6 1.3-2.4-.2-1.2 0-2.5-.3-3.6 1.1-.4 2.4-.3 3.6-.4 1.6-.2 2.3.4 2.8 1.3-.3-.1-.6-.2-.8-.3.1.4.2.7.4 1 .3.1.6.2.9.4l.3.9c.1.2.2.4.4.4v.1c-.1.3-.2.6-.3.8-.7.5-1.7 1-2.3 1.3-.3.1-.9 0-1.3 0-.5 0-.7.5-1.3.4-1.1-.1-1.1 1.3-.7 2 .6 1.1 3.1.2 3.9 0 1.6-.4 3.4-.1 4.4-1.6.5.2 1.1.4 1.6.7-1.5.5-3.1.9-4.4 1.8-1.2.8-.9 1.6-.3 2.6.1.1.3.2.5.2.4-.1.4-.2.7-.5.2-.2.4-.4.6-.5-.1.1-.2.3-.3.4-.1.1 0 .3.1.4.6.4.7.7 1.5.7.3 0 .6-.2.9-.4-.2.5-.2.7.8 1.2.2.1.4 0 .6-.1 1.1-.9 2.7-1.3 4.1-1.4.1 0 .2-.1.3-.1.3.5.6 1 .8 1.6-.3-.1-.4.2-.4.4zM54.7 148.3c-.2-.2-.4-.3-.6-.4-.1-.1-.3-.1-.5-.1-.5 0-.7.4-.5.8-.1.3.1.7.5.7h.7c.5 0 .8-.7.4-1zM80.9 155c-.2 0-.2 0-.4-.2-.4-.4-1 .2-.6.6l.3.3c.1.1.2.2.3.2h.3c.6 0 .6-.8.1-.9z"/><path class="homeless-st0" d="M111.2 154.4c-.2.1-.3.1-.4 0-.4-.4-1 .2-.6.6.5.5 1.1.5 1.6 0 .3-.4-.2-.9-.6-.6zM87.6 55.3c-.4-.1-.7-.2-1.1-.2-.4-.1-1-.6-1.3-.9-.4-.4-.7-1-1.1-1.5-.2-.3-.5-.7-.8-1 .1 0 .4.2.5.2.2 0 .3-.1.4-.2.4.1.8-.3.6-.7-.8-1.4-1.2-3.2-2.4-4.2-1.3-1.1-3.2-1.2-4.9-1.1.2-.2.4-.3.5-.3.5.2.8-.6.4-.9 0-.2-.1-.4-.4-.4-1.2-.2-2.5-.5-3.7-.2-.7.1-1.3.3-1.9.5-.7.2-1.1-1.4-1.4-2-.7-1.5-3.4-.2-4 .7-2.1 3.1-6 3.7-8.4 6.4-1.8 2-2.3 5.2-2.2 8-.1.1-.1.2-.1.3 0 .1.1.3.1.4 0 .2 0 .3.1.5 0 .1 0 .1.1.2.2 1.3 0 3-1.2 3.5-.4.1-.5.7 0 .8l.9.3c.6.2.8-.7.2-.9 1.1-1.1 1.2-3 .8-4.5.2-3.3 1.3-7.2 4-9.2 2.1-1.5 4.1-2.1 5.9-4.1.3-.3 2.8-3.2 2.9-1.4 0 .5.2 1.4.6 1.7.5.3.8.4 1.4.3 1.6-.4 2.9-.7 4.4-.6-.4.4-.6.8-.6 1.2 0 .6.9.7 1 .2 1.8.2 4.2.4 5.3 2 .5.8.6 1.6 1.1 2.4-.2-.1-.5-.1-.7-.1-.6 0-1.2 0-1.7.5-.3.3-.1.7.3.7H81.8c1-.1 1.8 1.9 2.3 2.6.3.4.7.7 1.1 1 .3.2.6.3.9.4-.7.1-1.5.1-1.9.8 0 .1-.1.2-.1.2-.7.7-1.1 1-1.3 2.2-.3 1.8.4 3.5.1 5.4-.2 1.3-.6 2.7-.4 4 .4 2.3-.5 4.4-1.1 6.6v.1c-.6 1.4-1.3 2.7-2.1 3.7-1 1.1-2.5 1.5-3.9 2-1.7.6-2.8-.3-4.4-.7-.2 0-.3 0-.4.1-1-.3-2-.8-3-1.3-2.2-1.2-4.3-1.5-5.8-3.7-.5-.7-1.4-.1-1.1.6 1.2 2.6 2.9 2.8 5.3 3.8 2.3 1 4.2 1.9 6.6 2 2.4.7 4.7.1 7-1.6 1.7-1.3 2.9-4.1 3.4-6.7.7-2 .7-3.9.6-6.2-.1-1.8.7-3.5.6-5.3-.1-1.9-.4-3.1.6-4.7.1 0 .1 0 .2-.1.9-.7 2.1-.2 2.9-1.1.2.1.1-.3-.3-.5z"/><path class="homeless-st0" d="M59.5 73c-1.7-.7-2.7-1.9-3-3.8-.1-.7-.3-1.3-.6-2-.4-.6-.3-1.2.6-1.9.8-.1 1.4.3 2.1.7.2.1.4-.2.2-.4-.7-.5-2.3-1.6-3.3-.9-1 .6-1 1.6-.5 2.7.9 2 1.1 7.4 4.6 6.6.4-.1.3-.8-.1-1zM78.4 72.7c-.3-.6-1.2-.7-1.8-.7-.8 0-1.6.2-2.5.2-.8 0-1.5 0-2.3.2-.1 0-.2.1-.1.2-.7.2-1.3.3-1.9.5-1.6.5-1.2 2 .2 2.5 2 .7 5.4 1.2 7.5.3.9-.4 1.4-.8 1.7-1.7.2-.7-.4-1.1-.8-1.5zm-7.6 2.6c-.4-.1-2.5-.8-.4-1.6.6-.2 1.4-.4 2-.5 1.6-.4 3.7-.4 5.3 0 1.7 3.2-5.3 2.4-6.9 2.1zM76.6 68.9c-.3.1-.6.3-1 .4h-.2c-1 0-1.9.3-2.9 0h-.2-.1s.1-.1.1-.2c.1-.2.3-.3.4-.5.2-.2 0-.5-.2-.4-.4.1-.7.5-.8.9 0 .3.2.5.4.5 0 .1.1.1.1.1.6.3 1.3.4 2 .5.3 0 .6-.1.8-.1.3 0 .4-.1.6-.3h.2c.4-.1.7-.2 1-.5.2-.1 0-.5-.2-.4zM81.2 63.3c-.4-.9-1-1.9-1.9-2.2-.3-.1-.6 0-.9 0-.2 0-.4-.1-.6-.1-.4.1-.9.5-1.2.8-.2.2.1.4.3.2.2-.2.4-.1.6-.3h.1c0 .1 0 .2.1.3.2.2.5.4.8.5.5.2 1.1-.1 1.3-.5.1.1.2.2.2.3.3.3.5.6.6 1-.2.2-.6.1-.8 0-.4-.1-.7.3-1.2.2-.4-.1-1.4-.1-1.7-.5-.2-.2-.5 0-.4.2.4.6 1.8.8 2.5.7.3 0 .5-.3.8-.3h.5c.2 0 .3-.1.4-.1.3.2.7 0 .5-.2zM80.9 59.1c-1.2-1-2.7-1.8-4.2-1.2-.2.1-.1.4.1.4.6-.2 1.4-.1 2 .1.8.2 1.2.8 1.8 1.1.2.1.6-.2.3-.4zM70.1 63.8c-.6.2-1.2.5-1.8.7-.8.3-1.7-.1-2.3-.6.4-.3.7-.7 1.1-1 .4.5 1 .8 1.6.5.2-.1.4-.3.3-.5 0-.1.1-.2.1-.2.3 0 .7.1.9.1.2 0 .3-.3.1-.3h-.2c.1-.1 0-.3-.2-.3-.5 0-.9-.4-1.4-.4-.4 0-.9.3-1.3.5-.5.3-.8.4-1.1.9-.1.1-.2.2-.2.4l-.2.2c-.1 0-.3.2-.2.3v.1c0 .1.1.1.1.1 1.5 1.2 3.2 1.1 4.8 0 .3-.2.1-.6-.1-.5zM68.5 58.1c-.6.5-1.5.4-2.1.9-.8.6-1.4 1.6-2 2.4-.1.2.2.4.3.2.7-.8 1.3-1.8 2.2-2.3.7-.4 1.6-.2 2.1-1 .2-.1-.2-.4-.5-.2z"/><path class="homeless-st0" d="M80.5 64.2c-.6.4-1.2.5-1.9.4-.2 0-.4-.2-.6-.2-.3 0-.8-.1-.9-.5-.1-.3-.5-.2-.4.1.1.8 1 .7 1.6 1 .8.3 1.8.2 2.5-.4.1-.2-.1-.5-.3-.4zM70.1 64.7c-1 1.6-3 .9-4.4.5-.3-.1-.4.4-.1.4 1.4.4 4.2 1.2 4.9-.8.1-.2-.2-.3-.4-.1zM74.8 7.6c0-.7-1.1-.7-1.1 0-.2 11.4.1 22.8.1 34.2 0 .3.4.3.4 0 .2-11.4.7-22.8.6-34.2zM74.6 2.6c-.1-.3-.5-.3-.6 0-.2.7-.1 1.4-.1 2.1 0 .5.7.5.7 0 .1-.7.2-1.5 0-2.1zM153 146.5c-3-.6-5.8-1.8-8.7-2.9-3.3-1.2-6.6-2-9.9-3.1-6.8-2.3-13.7-3.7-20.3-6.7-.2-.1-.4.2-.2.3 6.1 3 12.6 4.7 19.1 6.7 3.3 1.1 6.7 2.1 10 3.2s6.2 3 9.6 3.7c.9.2 1.2-1.1.4-1.2zM157.2 148.4c-.2 0-.5-.1-.7-.2-.2-.1-.5-.2-.7-.4-.4-.4-1 .2-.6.6.5.4 1.3.8 1.9.8.4-.1.5-.7.1-.8zM34.3 133.6c-2.2.5-4.2 1.6-6.4 2.4-2.8 1-5.7 1.7-8.5 2.7-2.3.8-4.9 1.2-7.3 1.9-1.2.3-2.6.5-3.5 1.4-.5.5.3 1.3.8.8 1-.9 3.4-1.2 4.6-1.5 1.9-.6 4-.9 5.8-1.7 2.7-1.2 5.5-1.9 8.3-2.8 2.2-.7 4.2-1.8 6.4-2.4.5-.2.3-.9-.2-.8zM5.4 143.1c-.6 0-1 .4-1.4.8-.5.5.3 1.3.8.8.2-.2.4-.5.7-.5.7-.1.5-1.1-.1-1.1zM68.3 108.4l-.1-.2c0-.1-.1-.2-.2-.3-.2-.2-.6-.1-.5.2 0 .4.1.8.5 1 .3.2.7-.4.3-.7zM81.4 106.5c-.2-1.9-1.8-3.8-3.8-3.4-.1 0-.2-.1-.3 0-.3.2-.7.2-1 .5-.3.3-.5.8-.6 1.2-.1.3-.1.6-.1.9-.4 1.3 0 2.7.5 4.5.4 1.2 1.4 2.1 2.2 3.1.7.9 1.8 2 2.7 2.7.3.2.6-.1.7-.4 0-1.5.3-3.1.5-4.6.4-1.8-.6-2.8-.8-4.5zm-2.9 4.5c-.2-.2-.3-.3-.5-.4-.5-.5-1-1.2-1.6-1.6 0-.1-.1-.2-.1-.3.1 0 .1-.1.1-.1-.1-1-.2-1.9 0-2.9v-.1c.3-.7.7-1.3 1.1-1.7 2.1-.9 3.5 2.3 4 4.7-.1 0-.2.1-.2.2-.1.7-.1 1.4-.5 2.1-.1.1-.1.3-.2.5l-.3-.6c-.1-.2-.2-.2-.4-.2-.2.1-.4.1-.5.3-.1.1-.2.2-.2.4-.1.1-.5-.2-.7-.3zm2.6 3.6c-.7-.9-1.2-2-1.9-2.8.2-.1.4-.4.7-.6.2.3.4.6.7.8.1.1.3 0 .3-.1.2-.4.4-.8.5-1.2.1-.3.2-.6.2-.9v.4c0 1.5-.3 2.9-.5 4.4zM98.8 114.6h-.3c-.4 0-.4.6 0 .6.2 0 .4-.1.5-.3.2-.1 0-.3-.2-.3zM99.4 115.7h-.2c-.2 0-.2.3 0 .3h.2c.2 0 .2-.3 0-.3z"/><path class="homeless-st0" d="M78.1 105.4c-.1 0-.1.2 0 .2s.1-.2 0-.2zM78.6 105.9c-.2.1-.2.1-.3.3-.2.2.2.5.4.2.1-.1.1-.2.1-.4.1 0-.1-.1-.2-.1zM78.1 107.3h-.3c-.2 0-.2.2 0 .2s.3 0 .4-.2c0 0-.1-.1-.1 0zM78.4 108.4l-.1.1c-.2.1 0 .4.2.3.1-.1.2-.1.2-.2.1-.2-.2-.4-.3-.2zM79.7 107.3c0 .1-.1.1-.2.2-.2.2.1.6.3.3.1-.1.2-.2.2-.4.1-.1-.2-.3-.3-.1zM80.5 108.8c0-.1-.1-.1-.2-.1s-.1.1-.2.1c-.2.2 0 .5.2.4.2-.1.3-.2.2-.4zM60.8 69.2c-.1 0-.2.1-.2.2-.2.2.1.6.4.4l.2-.2c.1-.2-.2-.5-.4-.4zM61.6 70.7c-.2 0-.2.1-.4.2-.1.1.1.3.2.2l.2-.2c.2 0 .1-.2 0-.2zM62.6 69.5c-.4-.1-.4.5-.1.4h.1c.2-.1.2-.3 0-.4zM63.8 70.3s-.1 0 0 0c-.4.3 0 .6.2.4 0 0 0-.1.1-.1.1-.2-.1-.4-.3-.3zM63.7 73.1c-.1 0-.2.1-.3.1-.5.2.2.9.4.4 0-.1.1-.2.1-.3.1-.1-.1-.2-.2-.2zM66 72.8c-.1 0-.1 0 0 0-.6.1.1.8.2.3V73c0-.1-.1-.2-.2-.2zM66.6 76.2l-.2.2c-.2.2.1.6.3.4l.2-.2c.2-.3-.1-.6-.3-.4zM67.7 74.4s-.1 0 0 0c-.5.3 0 .8.3.4 0 0 0-.1.1-.1 0-.2-.2-.4-.4-.3zM71.7 78c0-.2-.2-.2-.3-.1l-.2.2c-.2.2.1.6.4.4.1-.2.1-.3.1-.5zM73.1 78.9c-.2 0-.2.2 0 .2.1 0 .1-.2 0-.2zM74.1 77.6c-.1 0-.1 0 0 0-.4 0-.4.5-.1.5h.1c.3 0 .3-.5 0-.5zM76.4 78.9c-.1-.1-.1-.2-.1-.3-.1-.2-.4 0-.3.2.1.1.1.3.2.4.1.1.3-.1.2-.3zM77.2 78.1c-.2-.3-.6.1-.3.3.1.1.2.1.3.1.2 0 .2-.3 0-.4zM78.5 78c-.1-.1-.2-.2-.3-.2-.2-.2-.4.1-.2.2.1.1.2.1.3.2.1 0 .2-.1.2-.2zM80.3 75.3c-.1 0-.2 0-.2-.1-.4-.2-.7.3-.3.6.2.1.4.1.6.1.2-.1.2-.5-.1-.6zM81 72.7c-.1.1-.1.1-.2.1-.4 0-.4.6 0 .6.3 0 .5-.1.6-.4-.1-.3-.3-.4-.4-.3zM80.2 69.7c0 .1-.1.1 0 0-.4.3-.1.7.2.4.1-.1.2-.1.2-.3.1-.1-.3-.3-.4-.1zM81.4 68s-.1 0 0 0c-.3-.2-.6.2-.3.4.2.1.4.1.5-.1.1-.1 0-.4-.2-.3zM82.1 69.7h-.4c-.2 0-.3.5 0 .5h.4c.2-.1.2-.5 0-.5zM78.7 70.5c-.1-.1-.3-.1-.4 0-.3.3.4.6.4.2v-.2zM65.8 70.5c-.1 0-.2.1-.3.1-.2.2 0 .5.2.4.1-.1.2-.1.3-.2.1-.2 0-.4-.2-.3zM67.4 71.3s0 .1 0 0c-.3 0-.3.4 0 .4.1 0 .2 0 .3-.1.1-.2-.1-.4-.3-.3zM69.7 70.9c-.2 0-.2.3 0 .3.1-.1.1-.3 0-.3zM73 70.8c-.1 0-.2 0-.3.1-.2.2.1.5.3.3.2 0 .2-.4 0-.4zM53.5 118.9c-.2.1-.3.2-.5.2-.4 0-.5.7 0 .7.4 0 .7-.2.9-.5.2-.2-.1-.5-.4-.4zM65.3 139.6c-.9-.3-2.1-1.9-3.2-1.4-1.8.8-3.4 3.1-5.7 2.2-.2-.1-.3.2-.1.3 1.4.8 2.7.2 4.1-.4.9-.4 1.6-1.5 2.7-.9.6.3 1.3.7 2 .9.5.1.7-.6.2-.7zM53.1 129.1c0-.4-.6-.4-.5 0 0 .4.2.8.3 1.2.1.2.4.2.4 0 0-.5-.2-.8-.2-1.2zM52.9 131.5v.7c0 .2.3.2.3 0v-.7c0-.2-.3-.2-.3 0zM52.7 133c0 .4-.2.7-.4 1.1-.1.1.1.2.1.1.4-.3.5-.7.5-1.2 0-.1-.2-.1-.2 0zM52 134.5c-.1.3-.7.8-.5 1.2-.3.2-.5.5-.8.7-.2.1 0 .5.2.4.3-.2.4-.7.7-.9h.1c.2-.1.2-.4.3-.5.1-.2.2-.4.2-.7 0-.3-.2-.3-.2-.2zM38.8 111.3c0 .2-.1.3-.1.5 0 .4.3.6.6.5.5-.1.6-.6.6-1 .1-.7-1.1-.7-1.1 0zM100.9 110.4h-.3c-.2 0-.3.1-.4.2-.1.1-.1.3 0 .5.1.1.3.3.4.2h.1c.2 0 .4-.1.5-.3.1-.3 0-.6-.3-.6z"/></svg>
