<svg id="Layer_1" xmlns="http://www.w3.org/2000/svg" viewBox="0 0 144.6 81.9"><style>.pig-st0{fill:#333333;}</style><path class="pig-st0" d="M51.6 23.8s0 .1 0 0c0 .1 0 0 0 0zM5.5 44.1c.1 2.9.8 5.9 2.4 8 .6.8 1.2 1.7 1.9 2.5-.3 2.1.4 4.2.4 6.4 0 1.8.4 3.3 1.3 4.8-.4.2-.6.7-.4 1.1.9 1.4 3.4 2.5 4.9 3.1 1.1.4 2.9 1.3 4.1 1.2 1.2-.1 2.3-.1 3.4.1 1.8.7 3.9 1 5.8 1.3 2.1.3 4.3.4 6.4.2 1.3.6 3 .6 4.4.6 1.7 0 4 .1 5.8-.4 3.8-.2 14.9-.4 13.1-3.8.8-.7 1.2-1.7 1.4-2.8.3-1.2.7-2.4 1-3.6l.1.1c.3-.5.6-1 1-1.4l-.1-.1c.1-.2.1-.4.2-.5.4-1.3-.4-2.2-1.1-3.2.3.1.6.2.9.2.5 0 1.3-.1 1.7.2.2.2.5.2.8.2 6.4 2.2 14.5-1.5 15.9-8.4.9-4.1 0-9-2.6-12.3-.7-.9-1.6-1.8-2.5-2.5-1.3-1.1-2.7-1.9-4.3-2.2-.3-.2-.7-.3-1.1-.4-.6 0-1-.1-1.6-.3-.7-.4-1.6-1.1-2.4-1.1-1.2-.9-1.2-2.6-1.9-3.8-.6-1.1-1.1-2.2-1.7-3.3.2-1.2.5-2.3 1.2-3.4.7-1.2 1.5-2.3 2.4-3.4 1.2-1.5 1.1-2.9-.4-4-2.6-1.8-8.1-.1-10 2.5-2.4-2-5-3.7-7.9-4.8-2.7-1.1-5.9-2.3-8.9-2.6-5.8-.7-12.4-.6-17.6 2.5-5.1 3-10.2 6.6-12.6 12.2-.2.3-.4.6-.5.9-1.2 2.3-1.8 4.9-2.3 7.4-1.2 3.8-1.5 8.4-.6 12.8zm32.2-33.8c-.7.4-1.3 1-1.7 1.6-1.2 1.5-2.8 3.3-3 5.4-.3 0-.6-.1-.9-.2-.6-.2.8-2.8 1-3.2.7-1.2 1.5-2.2 2.6-3 .3-.2.6-.4 1-.7.3 0 .6 0 1 .1zm23.9 11.6c-1.4-2.1-2.9-4-4.7-5.7.4-.3.8-.5 1.2-.8.9-.4 1.9-.4 2.8-.7.9-.3 1.8-.4 2.7-.1 1.3.4.5.7-.1 1.5-1.2 2-1.9 3.8-1.9 5.8zm-8 34.4c-1.1-.7-2.5-1.6-3.3-2.7.3.1.7.3 1 .5 2.3 1.2 4.6 1.8 7 2.1.1.3.2.6.2.9h.9c0 .1 0 .2.1.4.2.5.6 1 .9 1.5.2.2.7.7.6 1.1v.1h-.1v-.1c-.1-.1-.2-.2-.4-.2-2.3-1.4-4.7-2.2-6.9-3.6zm-2.1 9.6l.3-.3c.2-.1.5-.1.6-.2 0 0 .1 0 .1-.1 1.8-.1 4.4-.3 6.4-1.1-.1.2-.2.3-.3.5-.5.9-.4 2.3-1.2 3-1.2 1-3.5.5-4.4-.5-.6-.5-1-1-1.5-1.3zm-1.1 2.8c0-.1 0-.1 0 0 .1-.4.3-.8.4-1.1.1.2.3.4.4.6-.2.1-.4.2-.7.3.1 0 0 .1-.1.2zm-24.1-2.8c.3.1.7.2 1.1.3.8.2 1.5.5 2.3.6.9.1 1.9.1 2.7-.2v.5c-.3.2-.7.4-1.2.4-.8 0-1.5.5-2.3.4-1.5 0-2.1-1-2.6-2zM7 39.3v-.6c.1-2.5.8-4.7 1.3-7.2.6-2.5 1-5.3 2.2-7.7.1-.1.2-.3.2-.4 2-2.2 3.4-5.2 6-6.8 2.4-1.5 4.5-3.4 7-4.7 3.2-1.6 7-2.1 10.8-1.9-1.4 1.2-2.5 3.1-3 4.4-.3.7-1.1 2.2-.6 3 .3.5 1.2.6 2 .7.2.3.6.4 1 .2 0 0 .1 0 .1-.1H34.3c.2.1.5.1.7-.1.5-.8.8-1.7 1.3-2.5.6-.8 1.3-1.4 2-2 1.2-1 2.8-1.9 4.4-2.4 6.2 1.7 11.6 4.6 15.8 9.7 1.8 2.2 3.4 4.6 4.7 7.1.6 1.1 1.1 2.3 2.1 3-.2.3-.1.6.2.8.7.3 1.3.6 2 .9-.5.2-1.1.4-1.6.8-.3.1-.5.2-.7.4-.6.5-1.2.7-1.7 1.3-.1.1 0 .2 0 .2-.2.2-.4.5-.6.8l-.5.5-.9 1.2c.2 0 .4.1.6.2.8-1.1 1.7-2 2.7-2.6 1.3-.7 2.8-1.2 4.3-1.5-.1.1-.2.2-.4.2-.1.1 0 .3.1.2.7-.5 1.5-.7 2.3-.7.2 0 .4.1.6.1h.2c1.3.4 2.5 1.1 3.5 2 3.5 3.2 4.4 7.2 4.1 11.8-.1 2.4-1 4.3-2.5 5.8l-.2.2c-.1.1-.2.2-.3.2l-.3.3c-2.1 1.7-5.2 3.2-8.1 2.6-2.5-.6-4.7-1.4-6.2-3.4-.2-.3-.4-.6-.7-.8h-.1c-.1-.4-.6-.2-.6.1-.1.5.2 1.1.6 1.5H61c.2.2.4.5.6.7-3.4-.2-6.5-.7-9.7-2.3-1.1-.6-2.7-1.5-3.7-.3-.1.2-.1.5 0 .7.9 1.6 3.2 3.1 4.8 4 1.5.8 2.9 1.6 4.4 2.3 0 0 0 .1-.1.1 1 .5 2 .9 2.5 1.2-.5.7-1 1.3-1.5 1.8-1 .4-2.2.6-3 .7-1.4.2-2.8.3-4.2.9-.3.1-.4.4-.4.6-.1 0-.1.1-.2.2-.4.4-.6.9-.8 1.4-.3.5-.8 1.2-1 2-.5.9-.9 1.6-1.1 1.7-3.6 2.1-8.6 1.2-12.5.6-.3-.7-.3-1.8-.5-2.4-.1-.5-.2-1.1-.3-1.6.7 0 1.4-.2 1.8-.6.2-.3-.1-.6-.4-.7-.4 0-.8.1-1.3.1-.2 0-.3.1-.5.1 0-.1-.1-.2-.1-.3-.1-.1-.2-.2-.4-.3-1.7-.4-3.4-.3-5-.8-1.1-.3-2.6-.8-3.8-.6-.2-.1-.5-.1-.7-.2-.5-.1-.9-.4-1.4-.6-.5-.2-.8.4-.6.8.2.5.8.9 1.3 1-.5.7-.8 1.5-1.1 2.2-.5 1-.8 1-1.7 1.4l-.1.1c-.6-.3-1.3-.5-1.9-.7-1.6-.5-4.6-1.6-5.6-3-1.5-2.1-1.4-5-1.5-7.7.8.9 1.6 1.7 2.5 2.5V59c-.2-.2-.4-.4-.5-.7-.2-.7-.5-1.5-.7-2.2-1.3-1.5-2.2-3.3-3-5-1.7-3.8-2.1-7.8-2.6-11.8z"/><path class="pig-st0" d="M72.2 48.3c.2 1 1.1 4.4 2.8 3.3 1.2-.7 1.6-2 1.7-3.3 0-1.8.1-3.8-.2-5.5-.3-1.3-.6-2-1.9-2.3h-.2c-.2-.2-.5-.3-.7 0-2.1 1.8-2 5.2-1.5 7.8zm1.8 2c.2-.1.4-.2.5-.5.8-2.6.3-5.4-.4-7.9 0-.1-.1-.1-.1-.2.1-.2.3-.4.4-.6l.1-.1c.7.4 1.1 2.3 1.1 2.5.1 1 0 2 .1 3 0 1.2.3 3-.8 3.9-.4.4-.7.3-.9-.1zM64.2 48.3c.2 1 1.1 4.4 2.8 3.3 1.2-.7 1.6-2 1.7-3.3 0-1.8.1-3.8-.2-5.5-.3-1.3-.6-2-1.9-2.3h-.2c-.2-.2-.5-.3-.7 0-2.1 1.8-2.1 5.2-1.5 7.8zm1.7 2c.2-.1.4-.2.5-.5.8-2.6.3-5.4-.4-7.9 0-.1-.1-.1-.1-.2.1-.2.3-.4.4-.6l.1-.1c.7.4 1.1 2.3 1.1 2.5.1 1 0 2 .1 3 0 1.2.3 3-.7 3.9-.4.4-.7.3-1-.1zM53.6 28.2c.1-.3.4-.6.7-.6.5 0 .9.2 1.2.6.1.2.2.4.2.5.1.1.1.2.1.3.1.5-.1.8-.6 1-.3.1-.7 0-.9-.2-.5-.2-.9-.9-.7-1.6zM60.3 27.1c.1-.2.3-.4.6-.4 0 0 .1 0 .1.1.8 0 1.5 1 1.1 1.7v.1c0 .3-.3.6-.6.6-.5 0-.8-.4-1.1-.8l-.3-.6c-.2-.2-.1-.5.2-.7zM37.8 22.1c1.2-2.5 3-3.9 5.2-5.5 2-1.4 3.8-1.5 5.9-.5 1.7.8 1.8 2.2 1.1 3.7-.7 1.4-1.5 2.5-2 4-.5 1.3-.4 2.5-1 3.7-.2.4-1 .1-.8-.3.5-1.4.3-3 .7-4.5.4-1.3 1.1-2.5 1.8-3.7 1-1.9-2.4-2.2-3.1-2-1.2.3-2.1 1.1-3.1 1.8-.8.6-1.8 1.3-2.4 2.2-.5.7-.6 1.2-1.4 1.8-.5.3-1.2-.1-.9-.7zM59.5 44.9c0-2.1.8-3.6 1.3-5.6.1-.2.4-.1.3.1-.5 2.1-1.1 3.9-1.1 6.1 0 .8-.2 1.5 0 2.4.2.8.4 1.5.5 2.3 0 .2-.4.3-.4.1-.2-.9-.4-1.9-.6-2.8-.3-1 0-1.6 0-2.6zM61.3 70.1c0-.2.1-.4.2-.6.1-.4.5-.6.9-.6.1 0 .2 0 .3-.1.3 0 .7.1.9.3.4.4.6 1.2.1 1.6-.5.4-1.2.4-1.7.1-.1 0-.1-.1-.2-.1-.3 0-.5-.3-.5-.6zM14.7 57.7c.3 0 .5.2.7.4l.2.2.1.1c.2.1.3.2.3.4 0 .3-.2.5-.5.5s-.5-.2-.7-.3l-.6-.6c-.3-.2.1-.7.5-.7zM38.7 65.5h.2c.3 0 .3.4 0 .4h-.2c-.3.1-.3-.4 0-.4zM117.7 75c.1-.1.2-.3.2-.5.4-6.1-1-12.2-.2-18.3.4-2.9.1-6-.2-8.9-.4-3.2.1-6.6.1-9.9.8.1 1.6.2 2.4.5.9.3 2.2.1 3.1.2 1.1.1 2.2.5 3.3.4.3 0 .5-.1.7-.3.5.2 1.1.3 1.6.4.4.1.8.4 1.2.4h1.5c.4 0 .8 0 1.2-.1 1.8 1 3.1-2 3.9-5.1 1.7-4.4 2.3-9.6 1.6-14.1v-.2c0-.6 0-1.2-.1-1.7-.1-1.4-.5-2.8-.6-4.2-.1-.8-.4-1.3-1-1.8 0 0-.1 0-.1-.1-.1-.2-.2-.4-.6-.5-2.2-.6-4.6-.4-6.9-.7-1.4-.2-2.6-.2-4-.1-1 .1-2.6.3-3.5 0V9.2c.1-.8.2-1.8-.1-2.6-.7-1.6-2.1-1.9-3.7-2-1.6-.1-3.6 0-4.9 1.1-.7.5-1 1.1-1.2 1.8-.2.7 0 1.3.1 2-1.8-.2-3.7.1-5.5 0-2.4-.2-4.7.2-7 .2-.4 0-.6.2-.7.5-.6.3-1.1.7-1.5 1.2-2.4 2.9-2.9 7.9-3.2 11.5-.3 3.9-.7 8.3 1.4 11.9.7 1.2 2.2 2 3.2 1.5 2.2.1 4.4.4 6.6.8 1.5.3 3.1.2 4.6.2-.1 2.6-.3 5.3-.4 7.9-.1 3.4.2 6.7.1 10.1-.1 3.1.1 6.2.2 9.3.1 1.7.1 3.4 0 5.1-.1 1.2.1 3.1-.5 4.2-.4.7.2 1.6 1 1.5.2.5.5.9.9 1.3.8.7 2.4 1 3.5 1 1.2.1 3.5-1.1 3.5-2.7zm17.9-58.2c.2 1.9.9 3.7.9 5.7.2 5.1-1.1 9.6-3.3 14.1h-.2c-.3.1-.6.1-.9.1-.1-.1-.1-.3-.2-.4-.5-1.5-.2-3.4-.5-5-.2-.9.1-1.8 0-2.8-.1-1.3.2-2.7.2-4 .1-1.4.4-9.3 2.4-11.5 1 1 1.4 2.6 1.6 3.8zm-22.4-9.9c.5-.8 1.2-.8 2-.7.5.1.9.1 1.4.2h.3c.7 0 1.4 0 2 .3v.1c.6.2 1.1.6 1.1 1.3v.3h-.1c-1.5.5-2.7.7-4.3.2-.8-.2-2.2-1-2.4-1.7zm-.4 1c.1 0 .1 0 0 0 .1.1.2.1.3.2-.1-.2-.1-.3-.1-.5.2.3.4.6.7.9 1.2 1.2 3.9 1.7 5.6 1v.3c-.2 1-.1 1.7.4 2.4-.4 1.4-2.8.9-3.7.9-.4 0-3.9-.3-4-1.3.1 0 .2-.1.3-.3 0-.1.1-.1.1-.2.5-.2.6-.9.2-1.3 0-.8 0-1.5.2-2.1zM95.2 30.5c-.6-2.3-.1-5.1 0-7.5.1-2.1.6-4.3 1-6.3.1-.4 1.5-4.7 2.7-5.5h.7c0 .2.2.3.4.3.2.2.5.1.5-.1.2 0 .3-.1.5-.1 1.6 0 3.2-.1 4.8.1 1.7.2 3.7.4 5.5.1-.5 2.1 3.9 2.6 5.1 2.8 1.2.3 2.6.4 3.6-.4.5-.3.9-.9.9-1.4.2-.1.3-.3.3-.5v-.2c1.6.5 3.5.4 5.2.3 2.2-.1 4.4.5 6.6.7 0 .1-.1.2-.1.2-1.3 2.2-1.5 5.6-1.8 8-.2 1.7-.3 3.4-.4 5.1-.1 1.4-.6 3.4-.3 4.7.4 1.6.1 4.1.7 5.9-.7 0-1.3-.2-1.9-.3-.6 0-1.2-.1-1.7-.2h-.3c-.2-.1-.3-.1-.6-.1-.9.1-1.6-.2-2.5-.3-1.3-.1-2.9-.1-4.2-.4-2.3-.7-5.1-.5-7.5-.5h-.7c-.4 0-.8-.1-1.2-.1-.2-.1-.5-.1-.7 0-1.2 0-2.4 0-3.7-.2-2.9-.3-6-.2-8.9-.7-.2 0-.3.1-.4.2-.8-1.1-1.6-3.5-1.6-3.6zm18.1 44.6c-.5 0-1.2 0-1.7-.2-.3-.2-.5-.5-.6-.8.7-1.5.4-3.9.5-5.2.2-3.7 0-7.5-.4-11.1-.1-1.6.1-3.2.1-4.8l-.3-6c-.1-2.7 0-5.4 0-8.1h.3c.1 0 .2.1.3.1 1.3.2 2.6.3 3.9.1-.2 5.8-.3 11.7.1 17.5.1 1.1.2 2.3.2 3.4-.1 1.6-.1 3.3.1 5 .1 1.5.2 2.9.3 4.4-.1 1.4-.3 2.9-.2 4.3 0 0-.1.1-.1.2-.3.4-.4.8-.8 1.2-.6.3-1.2.1-1.7 0z"/></svg>