<svg id="Layer_1" xmlns="http://www.w3.org/2000/svg" viewBox="0 0 260.9 245.7"><style>.snap-st0{fill:#333333;}</style><path class="snap-st0" d="M181.4 139.9c-2.2-2.2-5.6-4.1-8.3-5.7-4-2.4-7.6-5.1-11.3-8l-.1-.1c.1-.1.2-.2.3-.2l-6.3-4.5c-5.6-4-10.5-8.7-12.7-15.2v-.1c.2-.2.4-.5.4-.9.2-2.2-.6-4.4-.8-6.6-.2-2.2-.4-4.1-1-6.2-.2-1.2-.4-2.4-.8-3.5-.5-1.6-.2-3.6-.9-5.1-.9-1.9-1.3-4-2.2-5.9-.8-1.7-1.7-3.4-2.6-5-2-3.8-3.4-7.7-5.1-11.6-1.8-4-4.1-7.5-6.3-11.3.4-.5.6-1 .4-1.7-.1-.4-.3-.6-.6-.8-.3-1.1-1.2-2.4-2.2-2.6-.9-2.3-1.7-4.6-2.6-6.8-.7-1.7-1.2-3.4-1.9-5.1-.1-.2-.2-.4-.3-.5-.6-1.4-1.2-2.7-2-3.9 0-.1-.1-.2-.1-.3-.1-.4-.4-.7-.7-.8-1.2-1.4-1.9-1.2-3.6-1.2-1.7 0-3.7 0-5 1.1-3.5 2.8-3.6 7.9-3.1 12.1.6 5.1 2.2 10.1 3.4 15 .6 2.6 1.8 5.3 2.9 7.8.9 2.3 2.8 4.8 1.9 7.4-.2.5-.1.9.2 1.2-3 .8-10.1-6.4-11.4-7.6-3.3-3.1-6.7-6.1-10-9.3-2.8-2.8-5-6-7.8-8.8-1.3-1.3-2.1-2.9-3.3-4.3-1.5-1.6-2.9-3.3-4.3-5-1-1.2-2-2.3-3-3.5 0-.6 0-1.1-.4-1.7-.5-.8-1.2-.9-2-1-3.5-3.9-7.2-7.6-10.8-11.3-3.3-3.5-7.4-9.9-12.7-8.1-.1 0-.3 0-.5.1-5.7 2.1-2.9 8.3-1.1 12.2C46 28.9 50.9 33.8 55 39.3c-.1.4-.2.7-.3 1-.2.5-.1 1.1.4 1.4.7.3 1.4.5 2.1.5 1.3 1.7 2.5 3.3 3.9 5 1.1 1.3 2.2 2.7 3.3 4 1.2 1.4 2 3.1 3.3 4.5 1.8 2 3.4 4.2 5.2 6.2 1 1.1 1.6 2.5 2.6 3.6 1.5 1.7 1.5 3.3.7 5.1-4.6-3.2-8.3-7.5-12.4-11.2l-5.7-5.1-.1.1c.1-.5-.3-1-.8-1.1-.4-.1-.8-.3-1.2-.5l.2-.2c-2-1.8-3.9-3.5-5.8-5.4-4.1-3.9-8.9-7.2-13-11.1-1.8-1.7-3.8-3-5.8-4.4-1.7-1.2-3.4-3.1-5.7-2.6-.1 0-.2.1-.2.1-.6 0-1.2 0-1.8.1-1.8.3-4.8 2.8-5.2 4.6-.6 2.7.7 4.9 2.5 6.7 2.1 2.1 4.1 4.4 6.2 6.5 2.5 2.5 4.8 5.2 7.3 7.7 1.9 1.9 3.9 3.8 5.8 5.7-.1.6 0 1.2-.1 1.9-.1.6.2 1.2.8 1.3.7.2 1.5.3 2.2.2.2 0 .3-.1.4-.1l.3.3c6.1 6 12.3 12 18.5 18-.7-.4-1.4-.8-2.1-1.1-2.7-1.2-5.2-2.9-7.7-4.4-5.2-3.1-10.3-6.3-15.5-9.4-5.9-3.2-12.2-6-18.3-9-1.2-.6-2.3-.9-3.4-.9-.7-.2-1.5-.3-2.4 0-.3.1-.5.3-.6.5-.8.3-1.7.7-2.1 1.1-.3.3-.6.9-.8 1.3-.3.1-.6.4-.8.8-.5.4-.5 1.1-.3 1.6-.1 1.1.5 2 1.3 3.3 1.6 2.3 3.6 4.1 5.6 6 2.1 2 4.5 3.5 6.8 5 2.5 1.6 4.8 3.4 7.2 5.2 2.5 1.8 4.8 3.9 7.3 5.8 2.2 1.6 4.5 3 6.8 4.5 2.8 1.8 5.9 3 8.5 5 1.2.9 2.6 1.6 3.9 2.3-.2 0-.5 0-.7-.1-.4-.1-.8-.3-1.2-.4-.9-.2-1.8-.3-2.7-.6-1.7-.4-3.5-.7-5.2-.9-2.3-.3-4.4-1.5-6.6-2.2-1.8-.6-3.6-1.2-5.5-1.7-2-.5-4-.8-6.1-.9-1.9-.1-3.5-.6-5.5-.3-1.2.2-2.5.4-3.5.9-1.9.6-3.2 1.9-2.8 4.3 1 4.9 6.2 6.4 10.2 8 4.3 1.6 8.6 3.3 13 4.8.1.2.3.3.4.3.1 0 .2 0 .3-.1.1.1.2.2.2.3.2.5.5.7 1 .7.4 0 .7-.1 1.1-.2h.5c0 .1-.1.1-.1.2.4.2.9.3 1.3.5 6.7 2.3 12.5 5.7 19 8.4 6.6 2.8 12.1 7 17.5 11.4 0 .4.2.8.3 1.2.1.2.1.4.1.7 0 .3 0 .6.1.9 0 .1 0 .2.1.2.4 1.3 2.1.7 2.4 1.7.2.7 1.1 1.5 1.9 1.3.6-.2 1.3-.3 2-.4 1.6 1.3 3.3 2.5 4.9 3.7l.3.3c1.2 1.3 2.6 2.5 4.2 3.3 1.4 1.1 2.8 2.4 4.3 3.4.1.1.2.1.2.2 2.3 2.1 4.2 4 6.2 6.5 3 3.9 6.2 7.6 9 11.8 2.8 4.2 5.8 8.2 8.6 12.4 2.2 3.2 3.7 7.2 7.2 9.3.3.2.6.2.9.2.1.2.2.3.3.5.3.8 1 1.2 1.8 1 .9-.2 1.8-.6 2.6-1.1 1.4 2.9 4.1 5 6.4 7.1 2.1 1.9 4.1 3.9 6.3 5.5 1 .8 2.3-.7 1.7-1.7-1.3-2.2-3.6-3.5-5.6-5.1-2.4-2-5.4-4-7-6.8.8-.4 1.6-.8 2.3-1.5 1.8-1.6 3.7-3.1 5.6-4.6 1.2-.9 2.1-1.6 2.4-3.2.1-.9-.8-1.6-1.6-.9-2.1 2.1-4.7 3.7-6.9 5.7-1.1 1-2.2 1.9-3.5 2.5h-.2c-1 .1-1.8.6-2.7 1-.1-.1-.2-.1-.2-.2 0-.3-.1-.6-.3-.8-6.2-7.8-11.5-16.4-17.3-24.5-2.9-4.1-6.5-8-10-11.6-1.3-1.3-2.8-2.3-4.3-3.2 0-.2-.1-.5-.3-.7-1.1-1.4-2.7-2.4-4.2-3.4-.7-.5-1.5-1-2.2-1.5-2-2.5-4.8-4.5-7.5-6.5 0 0 0-.1.1-.1.3-1 1-1.7 1.2-2.7.2-.9.5-1.8.5-2.7 0-.2-.3-.3-.4-.1-.6 1.6-1 4.1-2.1 5.8h-.1c-.9 0-1.8.4-2.7.7-.1-.5-.2-1-.2-1.5 0-.1-.1-.3-.2-.4l.3-.3c.4-.6.9-1.2 1.3-1.8.8-1.2 1.5-2.2 2.4-3.2.6-.6.3-1.7-.7-1.4-.8.2-1.4.5-1.9 1s-.7.9-1.4 1.1c-.4.2-.6.3-.9.6-.2.2 0 .6.3.5.9-.4 1.6-.6 2.2-1.4.4-.6 1-.9 1.6-1.1.5-.2-.7 1-.7 1-.3.4-1.9 3.5-3.2 4.9-.6.2-1.1.2-1.3.6.1-.7.2-1.2 0-1.9-.1-.5-.2-.8-.4-1.2.1-.3.3-.6.4-.9-4-3.3-8.2-6.3-12.6-9-2.2-1.4-4.8-2.2-7.2-3.2-2.8-1.1-5.5-2.6-8.2-4-3.9-2-8-3.4-12.1-4.8.1.1.2.3.2.5-.2-.1-.3-.1-.5-.2-.4-.1-.8 0-1.2.1-.2-.3-.5-.5-.9-.7v-.2c0-.1.1-.2.1-.3h-.1c0-.4-.1-.9-.2-1.3-.1-.5-.8-.3-.8.1-.2 0-.5.2-.5.5v.2c-.1 0-.3-.1-.4-.1-2.7-1-5.4-2.1-8.1-3.2-1-.4-2-.6-3-1-.4-.1-.7-.3-1.1-.5-.1 0-.3 0-.5-.1-2.8-1-5.7-2.2-7.7-4.5-.3-.4-.5-.9-.2-1.3.2-.4.5-.7.8-1 .2-.3.4-.6.7-.8.3-.1.6-.2 1-.3 2.1-.8 4.6-.1 6.9.7 0-.1-.1-.2-.2-.4 0-.1-.1-.1-.1-.2 2.6.4 5.2 1.5 7.7 2.2 2.7.8 5.5 1.5 8.3 2.2 3.4.8 6.7 2 10.2 2.5 1.6.7 3.5 1.1 5.1.6 1.3-.4 2.2-2 1.4-3.3-1.3-1.9-3.4-3.1-5.2-4.4-3.2-2.2-6.7-3.7-9.9-5.8-3-2-5.6-4.4-8.5-6.5-3.1-2.3-6.4-4.4-9.6-6.5-3.2-2-6.2-4.2-9.1-6.6-.3.1-.6 0-.9-.2-1.6-1.3-3.8-2.6-4.8-4.5-.2-.4-.3-.8-.4-1.2h-.3c-.2-.4-.3-.8-.4-1.2l.6-.6c.2-.2.4-.4.5-.6.2-.4.5-.7.9-.9.3-.1.5-.2.8-.3.4-.2.9-.3 1.4-.4-.1.1-.2.1-.2.2H15c.2-.1.5-.2.8-.1 1.2.3 2.3.8 3.5 1.3l-.5-.5c.9.5 1.8 1 2.4 1.4 1.9 1 3.8 1.8 5.7 2.6 1.8.8 3.7 1.7 5.5 2.6l2.7 1.5c1 .6 1.9 1.5 2.9 2 1.2.6 2.4 1.2 3.5 1.9 1.2.8 2.2 1.9 3.5 2.6 1 .5 2.2.9 3.2 1.5 2.2 1.4 4.6 2.8 6.5 4.5 1.5 1.4 3.9 2.1 5.9 2.4.5.1 1 .2 1.4.3 1.1.6 2.3.7 3-.5.4-.6.3-1.2 0-1.8.1-.4 0-.8-.4-1.1-6.3-6.3-12.6-12.5-18.9-18.7l-.1.1c-.3-.3-.8-.5-1.4-.6-.5 0-.9 0-1.4.2-.2.1-.5.1-.7 0 0-.3-.1-.6-.1-.9v-.9c.5-.3.9-.7 1.3-1.1.7-.6 1.6-.9 2.3-1.5.3-.3 0-.8-.4-.7-.7.2-1.6.5-2.1 1-.3.3-.6.6-.9.8-2.1-2.1-4.3-4.2-6.4-6.3-2-1.9-3.9-3.8-5.6-6-1.4-1.7-3.2-3.1-4.5-4.9-1.2-.8-2.3-1.8-3-3-.1-.1-.2-.1-.3-.2-.2-.2-.3-.4-.5-.6v.1c-.9-1-1.4-2.1-.8-3.2.1-.1.2-.2.2-.4.2-.6.6-1.2 1.1-1.6 1.3-.4 2.4-.8 3.8-.6.3 0 .5.1.8.2.1 0 .1.1.2.1-.2 0-.3-.1-.4-.1h-.1c1.2.6 2.2 1.2 3.3 2 0-.1-.1-.2-.1-.3.3.2.6.5.9.7.7.6 1.5 1 2.2 1.4 1.6.8 2.8 2.5 4.2 3.7 4.2 3.3 8.2 6.9 12.2 10.5 1.5 1.3 2.9 2.6 4.4 3.9l.1.1s.1 0 .1.1l.1.1c.4.3.9.5 1.3.9.2.2.4.3.6.5l-.2.2c2.1 1.9 4.3 3.8 6.4 5.6 3.3 2.8 6.3 5.9 9.7 8.4.8 1.2 1.8 1.6 2.9 2.5.3.2.6.3 1 .1l.1-.1s.1 0 .1.1c.5.3 1 0 1.1-.4l.3-.3c1.2-1.8 1.5-2.3 1.2-4.6-.1-1.1-.7-2.1-1.1-3-.4-.8-1.4-2.6-2.1-3.2-4.1-4.1-7.3-9.1-11-13.6-2-2.5-3.9-5-5.8-7.5l-.9.6c-.3-.1-.6-.3-.8-.3-.3-.1-.5-.2-.8-.3 0-.2.1-.3.1-.5.1-.3.3-.6.3-.9.8-.7 1.8-1.4 2.7-1.9 1.8-.9 3.9-1.3 5.6-2.4.3-.2.1-.5-.2-.5-.4.1-.9 0-1.3.2-.7.4-1.4.7-2.2 1-1.1.3-2.1.7-3.2 1.2-.5.2-1 .6-1.5 1-1.4-1.8-2.8-3.7-4.3-5.5-2-2.4-3.9-4.8-5.5-7.4-.2 0-.4-.1-.5-.3-1.7-1.8-4.6-6.4-3.2-9 0-.5.1-1 .3-1.4.1 0 .2 0 .3-.1.1 0 .3-.1.4-.1l.2-.2c.1 0 .1-.1.2-.1 3.1-.8 5.3 1.5 7.4 3.5 1.1 1 2.1 2.5 3.3 3.5 0 .1 0 .2-.1.3l6 6.3c1.2 1.3 2.5 2.6 3.8 3.9h.2c.5.9 1.4 1.1 2.4 1.1.2 0 .8 0 .8.4 0 .1-.1.7 0 .4-.1.2-.3.4-.4.6-.3.5.1 1.1.5 1.2.8.8 1.5 1.6 2.3 2.5 2.9 3.2 5.4 6.8 8.2 10 2.9 3.2 5.5 6.5 8.6 9.5 3.5 3.4 7.1 6.7 10.7 9.9 3.1 2.7 6 5.5 9.9 6.9.8.3 1.6.3 2.3 0-.4 2-1.1 4.1-1.9 5.9-1.8 4.1-1.8 9.7-1.4 14.1.8 8.9 3.1 16.1 9.8 22.4.5.4 1.3-.2.9-.7-5.6-7.4-8.1-15.3-8.2-24.6 0-4.6 1-8.8 1.8-13.3.4-1.9.6-3.7.8-5.6.1-.3.2-.6.2-.9l.1-.1c2.1-3.5-1-7.7-2.2-11-1.8-4.7-3.2-9.6-4.2-14.5-.9-4.4-2.1-8.7-.8-13.2.8-2.7 3.4-2.8 5.7-3.2.3-.1.6.1.9.4 0 .2.1.4.1.6-.1 0-.2 0-.3.1.4.1.7.3.8.7.2.6.8 1 1 1.6.1.2.1.4 0 .6 0 .1.1.1.1.2.1.1.1.2.2.3.1.1.1.2.2.3.1.2.1.3.2.5.2.6.5 1.1.7 1.7h-.1l.3.9h.1c.1.3.2.5.3.8h-.1c.1.3.2.5.3.8h.1c.1.2.1.4.2.6.8 2.8 2 5.5 3.2 8.2-1.1.5-2.2.8-3.5.6-.4 0-.6.5-.2.7 1.4.4 2.7 0 3.9-.7 0 0 0 .1.1.1.1-.1.2-.2.4-.3.7.7 1.2 1 2.2 1.3.1 0 .2.1.3.1-.1.1-.2.3-.3.3-.3.3-.8.6-1.1 1-.2.2-.2.3-.2.5-.7.2-1.3.4-2 .7-.5.2-.3.9.2.8.8-.1 1.6-.3 2.3-.6 1.5 3.7 3 7.4 5 10.7 1.7 2.7 3.2 5.6 4.7 8.4l.9 1.8c1 2 2.2 3.9 3.1 5.9.8 1.7 1.1 3.5 1.8 5.1.2.5.3 1 .4 1.5v1.1c0 1.9.9 3.8 1.2 5.7.1.8.4 1.6.5 2.4.1.7.2 1.5.2 2.3 0 .5.1 1 .1 1.5v1.5c.2 2 .6 4.1 1 6.1 0 .1.1.3.1.4v.1c-.1 1-.1 1.9.1 2.9.1.4.1.9.2 1.3l.6-.6c.3 1.3.8 2.5 1.2 3.6 1.5 3.4 4.7 5.5 7.1 8.1 2.3 2.4 5.3 4.5 8.1 6.3 2.2 1.8 4.2 3.7 6.3 5.5 3.1 2.5 6.7 4.2 9.8 6.7 1.2.9 2.3 1.8 3.6 2.4 2.1 1.1 1.8-.1 1.8 2 0 1 1.6 1.7 2.1.6 1.1-1 1.8-2.7.4-4.2z"/><path class="snap-st0" d="M67.1 35.5c-.7.5-1.1.8-1.7 1.5-.5.5-.9 1.3-1.5 1.7-1 .7-2 2.2-2.5 3.3-.1.3.4.6.5.3.5-1.1 1.7-2.6 2.6-3.3.4-.3.6-.8.9-1.2.6-.6 1.2-1.2 2-1.6.4-.3.1-.9-.3-.7zM118.9 118.1c-.2.5.1.8.4 1.1.5.7 1.6 0 1.1-.7l-.3-.3-.1-.1c-.2-.5-.9-.5-1.1 0zM42 75.7c-1.1.8-2 1.7-2.8 2.7-.9 1.1-1.7 1.9-2 3.4-.1.4.6.7.7.3.5-1.3 1.5-2.1 2.4-3.1.7-.9 1.8-1.5 2.4-2.5.4-.5-.3-1.1-.7-.8zM37.5 77.4c-.4.6-.6 1.3-1.1 1.8-.4.3 0 .8.4.6.7-.5 1-1.3 1.4-2 .2-.4-.4-.8-.7-.4zM68.5 85.5c-.6.1-1.3.8-1.9.7-.2 0-.5.1-.5.3-.7 2.9-2.6 5.2-3.1 8.2-.5 2.8.4 5.7 0 8.5-.1.5.6.6.7.2.8-3.8-.6-7.8 1.2-11.4 1.2-2.4 1.5-4.6 3.9-6 .3-.1 0-.5-.3-.5z"/><path class="snap-st0" d="M79.9 73.2h-.1c-.1-.1-.3-.2-.5-.1-2.2 1.5-4.4 2.8-6.2 4.8-1.4 1.6-3.4 2.5-4.1 4.7-.1.4.4.5.6.1.6-1.9 3.2-3.3 4.6-4.8 1.3-1.4 3.1-2.3 4.5-3.4.6-.2.9.2-.1 1.4-.4.5-.9 1.1-1.4 1.6-1.5 1.6-3 3-4.2 4.9-2.3 3.6-4.6 6.6-5.6 10.8-.1.6.7.8.9.2 1.3-5.2 4.7-10.2 8.4-14.1 1.2-1.2 4.5-4 3.6-5.9 0-.2-.2-.2-.4-.2zM86.6 67.5c-1 .3-2.3.6-2.6 1.8-.2.7.8.9 1 .2.1-.3.4-.4.7-.5.4-.2.8-.3 1.2-.5.7-.2.5-1.2-.3-1zM163.3 218.8c.9 1 1.8 1.9 3.1 2.8 2.3 1.7 5.5 2.3 8.2 3.3 3.3 1.2 6.9 2 10.4 2.7 2.3.5 4.6 1.1 6.9 1.6l-.1.1c1.7.4 3.4.8 5.1 1.3l.1.1c2.7 1.7 6.6 1.7 9.7 2.1 2.1.3 4.2.7 6.3 1.1.2-.3.3-.7.5-1 .9.1 1.8.1 2.7.2 3.9.3 7.8.8 11.8 1.1 3 .2 7.5-.2 10.2 1.2.6.3 1.7.5 2.1.7.1.2.1.4.3.7.5.9 1.6 1.2 2.6.8.9-.3 1.6-1.4 2.2-2.1.2-.2.4-.5.5-.7.1.1.1.2.2.2.2 1.1.5 2.1 1.8 2.2.5.1 1-.2 1.5-.3.6-.2 1.1-.3 1.7-.3 1-.1 1.2-1.7.2-2-.7-.3-1.3-.2-2 0-.4.1-.7.3-1 .4-.4.2-.4.3-.5-.1-.1-.3-.2-.7-.5-.9-.2-.2-.4-.3-.6-.5-.1-.2-.3-.4-.5-.4-.1-.2-.2-.4-.4-.5-.3-1.5-.1-3.1.1-4.5.2-1.2 1-2.3.5-3.6-.2-.4-.8-.4-.9 0-1.1 2.4-1.5 5.3-.9 7.9-1 .3-1.6 1.5-2.4 2.2-.1-.1-.2-.2-.4-.3.2.1.2.1 0-.1v-.1c0-1.1.4-2.2.5-3.3 0-.6-.7-.7-.9-.2-.4.9-.6 2-.6 3-1-.6-1.7-1.6-2.8-2.1-2.8-1.1-6.7-.8-9.6-1-3.9-.3-7.9-.7-11.8-.7-2.2 0-4.5.1-6.8.1-1.1-.3-2.3-.5-3.5-.7-1.8-.3-3.6-.7-5.4-.8-.3-.1-.7-.2-1-.3-2.2-.6-4.5-1.2-6.7-1.7v.1c-4.2-2-9.4-3.5-13.6-4.3-5-1-9.8-2.8-13.8-5.7-.6-.8-1.4-1.5-2.1-2.4-.8-.9-2.9-2.9-2.6-4.3.4-2.1.6-4.4.2-6.6 0-.2-.1-.3-.1-.4 0-1.5-.2-3-.5-4.4-.3-1.5.9-2.2 1.6-3.5.5-.8.8-1.6 1-2.4.1-.1.2-.3.3-.5 1-3.4.7-6.1-2.3-8.5-1.8-1.5-4.9-2.9-4.8-5.7.1-1.5.4-2.5-.2-3.6l.1-.1 1.2-.6h.1c.7 0 1.4-.4 2.1-.6h.1c.1 0 .2-.1.4-.1.6-.1 1.3 0 2-.1.2 0 .3-.1.4-.2 1.9 1 3.7 2.1 5.4 3.2l.3-.3c.1 0 .1.1.2.1.8.4 1.7 1.2 2.6 1.2.3 0 .6-.3.4-.6-.4-.8-1.5-1.3-2.3-1.6-.9-.4-1.6-1-2.3-1.6-.1-.1-.3-.1-.4-.1-1.1-.6-2.3-1-3.5-1.7-.1-.4-.4-.7-.9-.7h-.2c-.3-.2-.7-.5-1-.7 0-.2-.1-.3-.2-.5-2.4-3.4-6.5-4.5-9.1-7.6-2.3-2.6-6.6-8.5-2.8-11.8 2.1-1.8 4.1-3.4 7.1-2 1.8.8 3.5 1.8 5.4 2.5 1.9.7 4 .9 5.8 1.9.4.2.9.6 1.4 1.2-.1.2 0 .4.1.6.6.7 1.2 1.9 1 2.9-.1 0-.1 0-.2.1-.8-.4-1.5-.9-2.3-1.2-1.2-.4-2.4-.9-3.5-1.3h-.3c-1.2-.7-2.4-1.5-3.7-1.6-.8-.1-1.7 1-1 1.7 1.5 1.5 3.9 1.9 5.8 2.6.6.2 1.2.6 1.8.9-.1.1-.2.2-.2.3l2.6 1h.7c4.6 1.6 9.3 3.2 13.9 4.5 3.9 1.2 7.8 2.6 12 2.2.9-.1 1.7-.5 2.2-1.1 1.5-.5 1.3-2.6.4-3.8-.3-.4-.6-.8-1-1.2-.1-1-.9-1.6-1.8-2h-.1c-.8-.3-1.6-.5-2.3-.6-.1 0-.2 0-.3.1-.8-.1-1.6 0-2.5.1-2.9.2-5.8 0-8.7-.3-1.8-.2-4.4-.8-5.3-2.7-.7-1.7-1.1-3.6.9-3.9 1.4-.2 2.8-.8 4.2-1.3 4.4 0 8.7-1.5 13-2.4 4.3.3 8.7 1.4 12.8 3.1.3.2.5.4.8.6.1.1.2.2.2.3 5.6 4 11.3 7.9 14.6 13.5 2.9 4.9 5.9 10.1 9.4 14.8v-.2c.5.4 1 .7 1.7.8-.7 1.3-1.4 2.6-1.5 4.2-.2 2-.3 4.1-.3 6.2 0 .5.8.5.9 0 .3-2 .3-4 .4-6 .1-1.6.9-3 1.5-4.4.4-.1.7-.2 1.1-.5.6-.4 1.2-.8 1.9-1 .4-.1.6 2.5.7 2.7.1.3.2.5.3.6-.2.3-.4.5-.6.7-.4.4.1 1.1.6.7.4-.3.6-.7.8-1.1.8.2 1.7.2 2.3.5 1 .6 2-.7 1.1-1.5-.6-.5-1.2-.7-2-.8-1.1-.2-.6-.3-.7-1.4-.1-1.4-.4-2.5-1.7-3.1-1-.5-2.5.1-3.4.5-1.3.5-.8.4-1.6-.8-.1-.1-.2-.2-.2-.4v-.2l-.9-1.5c-.7-1.5-1.7-2.8-2.8-4 0-.1-.1-.2-.1-.3-1.7-3-3.3-6.1-5.5-8.8-2.4-3-5.5-6-8.7-8.8-5.5-4.3-11.8-6.8-19.1-7.6-5.8.4-11.6 1.6-17.3 3-1.6 0-3.2.1-4.4.7.2-.9.5-1.7.7-2.6.2-.7-.8-1.3-1.1-.6-.8 1.6-1.1 3.4-1.6 5.1-.6-1.3-1.3-2.5-2-3.9-.7-1.5-1.6-3.6-2.8-4.8-.3-.3-.9 0-.7.4.6 1.4 1.1 3.2 2.1 4.4 1 1.1 1.8 2.6 2.5 4-.7-.8-1.3-1.6-2.1-2.4-1.3-1.1-2.7-2.1-4-3.3-3.3-2.9-6.4-5.9-9.7-8.8-.7-.6-1.6.5-1 1.1 3 3.3 6.2 6.4 9.6 9.3 1.2 1 2.4 2.2 3.6 3.3-1.7-.6-3.6-1-5-1.7-2.6-1.3-6.4-4.5-9.5-3.8-2.3.5-5.3 2.7-7 5.4-3.4-3.1-7.9-5-11.7-7.6-.6-.4-1.2.5-.6.9 3.7 2.8 8.3 4.5 11.8 7.6-.4.7-.6 1.4-.7 2.2l-3.3-.3c-.7 0-.7.9-.1 1 1.1.1 2.2.2 3.4.3 0 .7.2 1.4.6 2.1 1.6 2.9 3.1 6.4 5.4 8.8 1.1 1.2 2.4 2.3 3.8 3.4-6.5.2-13.3 1.1-19.7.3-.7-.1-.8.9-.1 1.1 3.2.6 6.7.5 9.9.1 3.7-.4 7.4-.5 11.1-.5.5.4 1.1.8 1.6 1.2h-.1c.1.1.3.2.4.2.2.1.3.2.5.4.2.1.3.1.4.2-.6.2-1.2.4-1.6.8-.1 0-.1-.1-.2-.1-.3 0-.5 0-.8.3-.5.4-.9.6-1.2 1.2-.1.1-.1.2-.1.4 0 0-.1.1-.1.2-.2.1-.4.3-.4.6-.6 3-1.5 7.1 1 9.5 1.2 1.2 2.8 2 4.1 3.2 1.2 1.1 1.5 2.1 1.7 3.3h-.3c-.2 1.4-.7 2.9-1.5 3.9-.6.7-1.9 1.6-2 2.7-.3 2.4.2 5.7 1.2 7.9.1.3.3.4.5.5-.4 2.8-2.3 5.2-.5 8.1.9 2.4 2.6 5 4.6 6.3zm9-61c.3-.6.4-1.4.5-2.2.2.3.3.5.5.7 4.2 5.3 11.1 4 17.2 3.9.8.3 1.6.5 2.4.8.4.4.7.7 1 1.1.3.4.6.8 1 1.2.4.3.4.4.2.2l.1.1v.1c-3.1 1.1-11.5-2-13-2.6-3.4-1.2-6.6-2.2-9.9-3.3z"/><path class="snap-st0" d="M162.7 206.7c.1-.3.2-.5.1-.8-.2-.6.8-.9 1.1-.3.2.5.1 1-.1 1.5-.3.6-1.3.3-1.1-.4zM174.6 177.7c.5.3 1.1.3 1.6.5.6.3.3 1.1-.4 1-.6-.2-1.2-.4-1.7-.8-.4-.4 0-1.1.5-.7z"/><g><path class="snap-st0" d="M181.6 112.2c-2.1-2.4-5.7-.9-8.1-.1-4.9 1.5-1.3-1.8 1-3.4 2.4-1.7 6.1-3.1 9-3.5 1.5-.2 1.2-2.4-.3-2.3-4.6.4-9 2.4-12.5 5.3-1.8 1.4-4 4.6-1.8 6.5 2.3 2 6.8-.4 9.2-.8 3.4-.6.2 2.7-.2 3-1.1.8-2.3 1.1-3.6 1.5-2.2.6-4.1 1.2-5.6 2.9-1 1.1.6 2.5 1.7 1.8 2.7-1.7 16.4-5 11.2-10.9zM197.7 100.8c-.1-1.6-2.5-1.6-2.8 0-.4 2.3.9 7.9-.5 10.4-2.4-2.7-4.1-8.4-8-7.9-.7.1-1.1.6-1.3 1.2-.4 1.3-.3 2.6-.2 3.9.1 2 .9 5.3-.1 7.1-.7 1.3 1.4 2.6 2.2 1.3 1.9-3 .6-6.6.8-10.1.9 1 1.7 2.8 2.1 3.4 1.1 1.5 2 3.2 3.6 4.3.6.4 1.2.4 1.9.1 3.9-2.2 2.5-10.1 2.3-13.7zM212 110.8c-.4-2.5-1.1-5-1.7-7.5-.6-2.5-1.3-5.8-3.2-7.8-1.4-1.5-3.5-.9-4 1.2-.4 1.8-.5 3.7-.9 5.5-.4 1.7-.9 3.3-1.4 4.9-.7.3-.9 1.1-.6 1.6-.4 1.1-.9 2.3-1.4 3.5-.6 1.5 1.6 2.4 2.3 1 .7-1.5 1.3-2.9 1.9-4.3 1.4-.5 2.6-1.1 3.9-1.8 1.2-.6.5-2.3-.7-1.9-.7.2-1.4.5-2.1.8.5-1.5.9-3 1.3-4.6.2-1.1.3-2.1.5-3.2.3.5.5 1 .7 1.6 1.5 3.8 1.6 8.3 3.5 11.9.4 1 2.1.2 1.9-.9zM221 99.1c1.6-1.2 2.4-3 1.3-4.8-1.8-3.1-8-1.4-10 .8-.2.1-.3.3-.4.6-.1.2-.1.5 0 .7.2 1.6.3 3.4.4 5.2-.1.1-.2.2-.3.2-.7.8-.3 1.6.5 1.9.3 2.1.8 4.1 2.1 5.6.6.7 2.1.4 1.8-.7-.4-1.9-1.1-3.7-1.4-5.7v-.1c.8-.5 1.6-1.1 2.4-1.5 1.4-.6 2.6-1.3 3.6-2.2zm-6.7-2.7c.8-.6 2-.8 3-1 .5-.1 2.7-.3 2.9.5.2 1-3 2.4-3.7 2.7-.6.3-1.2.6-1.8 1-.1-1.1-.2-2.1-.4-3.2zM227.3 90c-.9-1.5-3 .1-2.1 1.6 1.3 2.1 1.3 4.9 1.6 7.3.1 1 1.7 1.4 2.1.3.7-2.9 0-6.5-1.6-9.2zM228.7 103.4c-1.8-.8-2.9 2-1.2 2.7 1.7.8 2.9-2 1.2-2.7z"/></g></svg>