<svg id="Layer_1" xmlns="http://www.w3.org/2000/svg" viewBox="0 0 329.3 125.9"><style>.sofa-st0{fill:#333333;}</style><path class="sofa-st0" d="M19.1 93h-1.8v.2h1.8c.9-.1.9-.2 0-.2zM267.4 59.8c-34.5-.1-69.5-.2-104.4-.1-34.8 0-69.7-1.1-104.5.4-.1 0 0 .1 0 .1 34.7 1.6 69.6.4 104.4.4 34.9 0 69.9-.1 104.4-.1 1.4 0 1.4-.7.1-.7zM34.1 22.3c-.8-1.3-2.1-1.5-3.5-1.7-2.3-.2-4.4-1.9-6.8-1.5-.4.1-.3.6 0 .7 1.7.4 3.4.8 5.1 1.3 1.7.4 3.8-.4 5.1 1.4 0 .1.2 0 .1-.2zM44.9 80.4c-.2-.2-.5-.4-.8-.4-.4 0-.9.3-1.2.1-.3-.2-.7.1-.7.4 0 .4.5.6.8.3.5-.4 1.2-.7 1.8-.2.1 0 .2-.1.1-.2zM283.1 79.3c-.2 0-.5-.1-.7-.1-.3 0-.6.1-.7.4 0-.1-.7-.5-.8-.7-.1-.1-.3.1-.2.2.2.2.4.5.6.7.1 0 .1.1.2.1h.2c.1.3.4.4.7.3.2 0 .5-.1.7-.1.5.1.5-.7 0-.8zM79.7 87.1c-5.1-.3-10.2.5-15.2.5-5.8 0-11.6-.5-17.4.1-.1 0-.1.1 0 .1 5 .5 10.2.6 15.2.3 5.8-.3 11.6.7 17.4.3.9-.1.9-1.3 0-1.3zM215.7 88.1c-37.2-.7-74.9-.2-111.6.3v.1c36.7.5 74.5 1 111.7.3.5 0 .4-.7-.1-.7zM277.8 87.5c-15.3 0-30.4 0-45.7.2v.1c15.3.3 30.4.2 45.7.2v-.5zM225.7 88.3h-1.5c-.2 0-.2.3 0 .3h1.5c.2 0 .2-.3 0-.3z"/><path class="sofa-st0" d="M321.3 20.8c-.8-1.1-2-1.9-3.3-2.5-3-2.7-6.7-4.6-9.9-4.7-.3 0-.5-.1-.8-.2-1.6-1.3-3-2.7-4.6-3.9-.4-.3-.7-.7-1-.9-2.1-1.6-5.6-2.1-8.1-2.5-2.8-.4-5.5.5-8.4.1-2.7-.4-5.2-1-7.8-.5-.6-.3-1.2-.6-1.8-1-.6-.4-1.1-.1-1.4.4-2.4-.5-5-.2-7.3.6-1.5.1-3 .3-4.2 1-.1.1-.2.1-.3.1-1.1.1-2.2.1-3.3-.1-2.7-.7-6-2.4-7.8-2.8-1.7-.4-3.9.4-5.5.8-2.5.7-3.9 1.1-6.6.5-4.9-1.2-9.3-1.7-13.2 1.3-1.9-1.8-8.3-2-10.5-1.8-3 .3-2.6 1.7-5.9.3-2.4-1.1-5.3-1.2-7.8-1.5-1.4-.2-2.9-.2-4 .7-2.6 2.2-3.2 1.8-6.4 1.1-4.3-1-10.7-1.3-14.1 2.1-.3-.1-.5-.3-.8-.4-.2-.1-.4-.2-.5-.2-.1 0-.1-.1-.2-.1-.2-.1-.4-.1-.6-.2-2.6-.9-5.2-1.2-8.2-1.1-2 .1-4 .6-5.9 1.1-1.5.4-4.3-2.3-5.7-2.7-4.3-1.3-9.9 2.5-13.5.6-3-1.6-10.3 1.4-13.5 1.7-.2 0-.4.1-.6.2-1.4-.5-3-1.6-3.8-2.1-1.6-.9-3.3-.8-5.1-.8-2 0-4.1.8-5.8 1.6-2.6 1.2-5.8-1.1-8.2-1.4-4-.4-8.6 2.4-12.6 2.7-1.6-.4-3.3-.9-5-1.3-1.6-.6-3.3-.7-5.2-.5-.6 0-1.3.1-1.9.2-2.3.4-4.5 1-6.4 1.4-1.1-.5-2.2-1.3-3.1-1.6-1.8-.4-3.3-.6-5.2-.4-3.2.3-6.6 1.5-9.8 2.8-.5.1-.9.1-1.4.2-3.2-1.9-6.6-1.4-10.3-1.4-5 0-9.1.2-13.9 2.1-1.4.6-2.7 1.6-4 2.5-.2.2-.5.3-.8.5-.8.3-1.6.7-2.4 1-1.9.6-3.9 1.1-5.5 1.7-2.3.9-3.7 2.5-5 4.2-.9.8-1.8 1.7-2.7 2.4-6.1 4.7-9 11.3-6.2 18.5.3 1.9 1 3.8 2.1 5.5 1.9 2.9 5.1 4.2 8.3 4.6.6.1 1.3.1 2 .1 2.5.8 5 1.2 7.1 1.1.1 0 .1 0 .2-.1 3.9 9.1 4.3 19.8 4.1 29.6-.1 6.1-.9 12.1-.3 18.2.4 4.3-.7 9 1.7 12.7-3.5-.3-9.4 1.3-10.7 4.8-.8 2.1.8 4.3 2.7 5.1 1.6.7 3.5.7 5.3.5.2.3.4.5.9.5 46.4.2 92.8.7 139.1.9 47.1.2 94.2 1 141.3.2.7 0 1.2-.3 1.6-.7 2.9.4 6.2-.9 4.9-4.2-1-2.6-3.2-4.4-5.8-5.6-3.5-2.5-8.2-4.2-10.4-3.6-.2.1-.3.2-.5.3-.1-.2-.2-.4-.5-.4l-.3-.1c.9-.8 1.6-2 1.7-3.2.6-7-.7-13.9.2-20.9.9-7.2.7-14.3 2.3-21.5.9-4.4 2.5-8.5 3.3-12.9.2.2.4.3.7.3 6.9-.5 14.3-1 18.9-6.8 4.6-5.4 1.9-16.8-2.1-22.2zm-13.2 95c.8.7 1.5 1.3 2.2 2 0 .1 0 .1.1.2-.6-.5-1.2-1-1.8-1.4-.1-.2-.3-.3-.5-.4l-.2-.2c-.4-.3-.8-.5-1.3-.8 0-.2-.1-.4-.2-.5.6.2 1.2.6 1.7 1.1zM7.6 25.3c.4-.5.8-.9 1.2-1.3-.7 1-1.4 2-2 3 .3-.6.5-1.2.8-1.7zm12.7 91.6c.4.3.8.6 1.3.8.3.4.8.8 1.2 1.1-.9-.3-2.4-1.1-2.5-1.9zm11.6-1.7c-.5-1.1-1.6-1.9-3.4-1.6-.5.1-.8.4-.9.8-1-.3-2.1-.4-2.8.3-.5-.1-1 0-1.5 0 2.1-.7 4.4-.9 6.2-2.1.5-.3.7-1.2.3-1.7.1 0 .1-.1.2-.1l1 .5c-.3.3-.4.7-.2 1.3.5 1.1.8 2.1 1.5 2.8-.2 0-.3-.1-.4-.2zm1.4-3.8c.3-.1.8-.3.8-.3 1.6.1 3.1.1 4.7.2-1.8.1-3.6.3-5.3.4-.1-.2-.2-.3-.2-.3zm187.1 1c-18.7 0-37.5.1-56.2.1-38.2.1-76.5-.6-114.6 1.3-.2 0-.2.3 0 .3 1.1.1 2.2.1 3.3.1h-.1c-.3.1-.2.6.1.5.5-.2 1.1-.3 1.6-.4 7.7.3 15.5.6 23.2.7-9.8.1-19.5.3-29.2.6-.5 0-.5.8 0 .8 3.4.1 6.8.2 10.1.3-4.2.2-8.3.4-12.5.8l.1-.1c.4-.2.9-.3 1.3-.7 1.1-1.1 0-3.1-.4-4.2-.4-1-1.6-.8-1.7.2-.1.8.1 1.3.4 2.1.3.8.3.3-.6.8-1.5 1-1.5 1.7-1.8 3.2-1 .1-2.2.2-3.4.3h-2.4c-.7-.1-1.3-.2-1.8-.4.1-.8 0-1.4-.4-1.9v-.1c.1-.5.2-1 .3-1.6.1-.7-.2-1.6-1-1.8-.4-.1-.6-.3-.8-.7 3.4.3 6.8.7 10.2.3 1.1-.1 1.3-1.4.5-1.8 2.5.1 5.1.1 7.6.1 24 1 48.2.6 72.2.7 26.8.1 53.5.2 80.3-.2.3 0 .5-.1.6-.3 24 .2 47.9.3 71.9-.3-.2.4-.3.9-.3 1.5-.1 0-.2-.1-.3-.1-18.5-1.3-37.5-.2-56.2-.1zm56.1 4.4c.1-.3 0-.7-.4-.7-3-.2-6.1.1-9.1.2-1.9-.1-3.8 0-5.7 0h.1c.3 0 .4-.3.4-.5 5-.1 9.9-.5 14.8-.9.2 0 .4-.1.5-.2.1.4.2.7.4 1 .2.4.8.8 1.2.9.6.2.8.2.8.5-.9-.1-1.9-.2-3-.3zm2.2-4.4c.1.1.3 0 .3-.2.1-.3.1-.6.2-.8 4.2-.1 8.3-.2 12.5-.4-.1.1-.1.2-.2.4-4.2-.1-8.6.6-12.8 1.1.1 0 0 0 0-.1zm9.5 4.2c0 1.5-1.5.9-2.8 1.1-1.2.5-2.2.2-3.1-.8 0-.4 0-.7-.2-1-.5-.8-2.5-1.7-3.2-2.9 4.2.6 8.5 1.3 12.8 1.1-.2.8-.6 1.4-1.2 1.2-.9-.4-2.3.1-2.3 1.3zm2 1.4v-.6c0-.1.4 0 .8.1.1.1.2.2.4.2 1.3.1 2.7.2 4.1.4-1.8-.1-3.6-.1-5.3-.1zm24.6-73.5c-3.5 2.3-7.2 2-11.1 1.6-.7-.7-2.4-.7-2.6.6-1.6 9.2-4.5 18-5.7 27.3-.7 5.5-1.1 11.9-.7 17.4.2 2.6 2.7 16.5-.9 17.1-.3.1-.3.6 0 .7h.9c0 .2.1.4.2.6-2.7-.1-5.5-.2-8.2-.3.3 0 .7-.3.5-.7-.9-2.8-.5-5.8-1-8.7-.7-3.9-.3-8.2-.2-12.1.3-8.2.9-16.6 2-24.7 1.1-7.7 2.8-16 5.1-23.4 1.8-5.8 6.2-9.7 12.4-9.5 1.4 0 2.4.5 3.6 1.2l1.5.6c2.1.8 1.2 2-2.7 3.7-.5-.2-.9.6-.5.9 4.3 3.9 9.1-3.5 4.8-5.6-2.8-1.4-4.7-3.1-8.2-2.4-5.2 1.1-8.2 2.7-10.9 7.3-3 5-3.2 11.5-4.6 17.1-1.8 7.1-2.8 14.5-3.2 21.8-.4 5.9-.9 12-.9 17.9 0 5.2-.1 11.4 1.7 16.3.1.2.3.4.5.4-40.8-1.3-81.8-.3-122.7-.3L97 109c-18.6 0-37.3-.4-55.9.2 2.2-10.7.1-22-.1-32.7 0-5.9-2-11.8-2.5-17.8-.3-5.7-1.4-11.6-3.5-16.9-1.5-3.8-4.4-9-7.9-11.3-2.7-1.8-7.6-3.8-10.8-1.9-2.4 1.4-4.3 5.1-3.6 7.9.8 3.1 7.5 3 9.8 2.5.6-.1.6-1.1 0-1.2-2.1-.4-2.1-.3-4.5-.6-5.6-.8-2.9-7.1 1.5-7.3 6.1-.2 9.5 5.1 12.3 9.6 4.1 6.8 4.2 15.1 5.3 22.7 1.3 8.2 1.7 16.3 2.8 24.5.9 6.9.9 15.5-.6 22.5-2.7.1-5.4.2-8 .4-3.2-3.6-1.4-15.3-1.4-18.9 0-6.3.1-12.5.1-18.8 0-4.5-1.1-8.4-1.3-12.7-.2-3.8-1.2-7.9-3.1-11.2-.2-.3-.4-.5-.7-.6.3-.1.6-.3.8-.5.7-.4.2-1.4-.5-1.2-.6.1-1.3.2-1.9.3-.2-.5-.9-.8-1.4-.3-1.4 1.4-4.1.7-6.2.2C11 44.2 7 41.5 5.5 36.6c-.1-3.1 1.4-6.9 2.5-9.1.6-1.3 1.5-2.3 2.6-3.3.3-.3.7-1.5 1-2.4 2.3-1.8 4.6-4.8 7.3-5.9 1.4-.6 2.9-1.3 4.3-1.9 1.5-.4 3-.8 4.3-1.4 1.8-.8 3.4-1.6 4.9-2.4 1-.3 1.9-.6 2.8-.8 4.9-1.1 9.2-1.2 13.7-1 1.7.2 3.4.5 5 1.2.8.4 1.5-.1 1.6-.8.3 0 .5 0 .8.1.3 0 .5-.2.5-.5.2-.1.4-.1.6-.2 1.5-.1 3-.2 4.5-.1 3.8.1 7.6.9 11.4.7.1.2.4.3.7.2.3 0 .7-.1 1-.1.3 0 .6.1.8.1.3 0 .7-.2 1.1-.4 2.2-.4 4.3-.7 6.6-.7 2.6.1 5.3 2.7 7.8 2.5 2-.1 3.6-.9 5.3-1.9 4.7-2.7 7.1-1.7 11.1-.6l1.5.6c.3.1.5 0 .7-.1h.1c0 .6.6 1.1 1.2.8 4-2 7.3-3.1 11.9-2.2.3.1.6.2.8.2 1 .5 2.1 1.1 3.2 1.4.2.2.6.4 1 .3h.2c-.2.5.4 1.1 1 .8 2.4-1 10.3-3.4 12.5-1.7 1.4 1.2 3.7.7 5.2-.2 3.9-2.3 6.6-.3 9.9.6.8.5 1.6.8 2.6.8 1.4 0 3.1-.7 4.7-1.2 4.1-.7 8.8-1.1 12.2 1.2.2.3.5.5.9.6.4.2.8.1 1-.1 3.5-.7 6.2-2.1 10.1-1.4 2 .4 4.7 1.5 6.8 1.5 1.3 0 2.3-1.6 3.4-2.1 2.2-1 4.7-.8 7.2-.3 1.4.4 2.8 1 4.2 1.4.6.2 1.1.5 1.6.7.7.3 1.4.3 2-.3.2-.2.4-.3.5-.4.8-.4 1.7-.8 2.6-1.1 2.3-.4 4.8.4 7.3.9-.1.8.6 1.7 1.6 1.4.6-.2 1.3-.4 1.9-.7.9.1 1.8-.1 2.7-.3 1.6-.4 2.8-1 4-1.3.3 0 .5 0 .8.1 2 .3 4 1.2 5.9 1.8 2.3.8 4.3-.5 6.5-1.3.8-.2 1.6-.5 2.3-.6.7-.1 1.5-.1 2.3.1 3.1.7 8.1 4.5 11.2 2.5 2.6-1.6 12.4-3 14.8-.2.6.7 1.7-.1 1.5-.9 1.5.3 3.2.2 5 .2-1.8.6-3.4 1.5-4.7 2.4-.2.1 0 .4.2.3 3-1.9 7-2.8 10.8-2.9 4.4.2 8.5 1 11.8 4.5 1 1 1.8 1.6 2.6 2 .4.4.8.7 1.2 1.1.7.6 1.6 1.1 2.7 1.6-.8-.2-1.5-.3-2.2-.4-11.4-1.4-19.5 9.3-24.2 18.1-4.8 8.8-6.5 18.2-7.1 28-.2-.9-.5-1.8-.7-2.7-.1-.3-.4-.6-.7-.5-.5.1-.9 0-1.3-.1-1.6-1.9-3.5-3.7-4.7-5.1-6.2-7.6-14.7-12.2-24.5-11.7-.2 0-.3.1-.4.1-10.4-1.1-21.2-.5-31.6-.5-11.6 0-23.4-.5-35 .2-.2-.3-.6-.4-.9-.2-.1.1-.3.2-.4.2-.5 0-1 0-1.4.1-.4 0-.6.2-.8.5h-1.6c-1.2 0-2.3.4-3.5.7-2.1.6-4.2 1.3-5.4 3.1-.5-.8-2-1.3-2.8-1.8-1.8-1-3.6-1.4-5.4-1.6 0-.1-.1-.1-.2-.1-.7 0-1.4-.1-2.1-.1-.7-.1-1.5-.1-2.3-.2-.1 0-.3 0-.3.1-8.2-.4-16.5-.8-24.7-.8-10.4-.1-21.2-.7-31.5.1-.4 0-.7.2-.9.5-15.1-2.5-28.3 3.7-37.8 15.4-1.1.2-2.7 1.4-2.8 2.6-.3 2.2 0 4.3-.3 6.5-.1.6-.1 1.2-.2 1.9-.1-.6-.2-1.2-.3-1.7-.7-5.2.4-10.9-.9-16.1-1.2-4.5-2.6-8.1-4.4-12.3-1.9-4.7-2.8-9-5.9-13.2-.3-.4-1 0-.7.4 2.9 3.9 4.4 8.3 5.8 13 1.1 3.7 3.2 6.8 3.9 10.7 1 5.2.9 10.7 1.3 16 .1 2.1.7 4.7 1 7.2v.1c-.1.7 0 1.4.2 2.1 0 .8 0 1.6-.1 2.3-1.4.1-2.9-.1-4.4-.1-.5 0-.8.4-.9.8 0 .3.1.6.1.9.1.7 1.3.7 1.4 0v-.1c1.2 0 2.3.1 3.4 0 .1.1.4.1.5 0 .5 0 1.1-.1 1.6-.2.2.4.5.7 1.1.6 17.8 1.4 36 .5 53.9.5H244.3c8.4 0 18.2 1.4 26.4-.9.1 0 .1-.1.2-.1.4-.1.7-.2 1.1-.3.8.4 1.7.8 2.6 1 1.2.3 2.8.6 3.7-.3.3-.3.3-.9 0-1.2-.8-.7-1.6-.5-2.6-.5-.4 0-.7 0-1-.1.3-.1.6-.2.9-.2.4-.1.9-.3.8-.8 0-.3-.1-.6-.1-.9.4-.3.7-.7.7-1.2 0-3.4-.3-6.4-.9-9.5.9-16.9 4.7-34.2 18.8-44.6 8.6-6.3 19.1-1.6 24.3 6.5 3.7 5.4.5 12.8-4.4 16zM165 76c-.1-.2-.4-.2-.5-.1.1-3.9-.2-8.1-.3-12.1 0-.2-.3-.2-.3 0-.2 4.3-.4 8.6-.3 12.9-.1-.2-.3-.2-.5 0-.4.4-.7.8-.8 1.3h-51.8c-18.2 0-36.8-.9-55 .4-.2-.1-.5-.5-.8-.4-.1.1-.2-.2-.4-.2h-.1c-.2 0-.4.2-.6.1-.1-1.3-.5-2.4-.8-3.7 0-.2-.1-.2-.2-.3.2-2.5.3-4.9.7-7.4.2-1.2.1-2.5.4-3.7.1 0 .3 0 .4-.2 1.9-2.3 4.5-4 6.6-6.1 3-3 5.7-5.3 9.5-7.2 5.5-2.7 10.1-3.4 16.2-3.4 3.3 0 6.4.8 9.7.4.1 0 .2-.1.3-.2 8.8.5 17.9 0 26.7 0 9-.1 17.9-.4 26.9-.9 0 0 .1.1.2.1 2.8.8 6.5-.1 9 1.7.1.1.3.2.4.3.7 1 1.6 1.9 2.5 2.8.1.1.2.2.2.3v.9c0 .1 0 .1.1.1-.1.5-.2.4-.2 2.2h1c0 1.4-.2 3 .1 4.2 0 .1.2.2.3 0 .4-1.9.6-4.7 0-6.6.1-.3.2-.6.4-1 .1-.1.1-.3 0-.4 2.2-1.7 4.5-3 7.2-3.7 1-.2 2-.3 2.9-.4.1 0 .2.1.3.1 12.5.9 25.2.4 37.7.3 10.4 0 21.2.6 31.6-.5.1 0 .1.1.2.1 2.6.9 5.4 1.1 8.1 1.6 3.9.8 7.9 3.7 10.9 6.3 2.1 1.8 3.6 4.3 5.8 5.9 1.6 1.2 4.6 3.4 5.4 5.9 0 .6.1 1.3.1 1.9 0 .2-.1.3-.2.5-.1.3 0 .6.2.8.1 2.2.3 4.4.3 6.6-.6.5-.5 1.5.2 1.9l.6.3v.1c-.6.1-1.2.2-1.8.4-.5.1-1 .3-1.5.4-.4-.2-.7 0-.9.2-.1 0-.2 0-.3.1-7.4-1.9-16.2-.8-23.8-.8h-80.5c-.1-.1-.2-.2-.3-.4-.7-.3-.9-.9-1.2-1.4zm0 1.9h-.6c0-.5 0-1 .1-1.5.1.5.3 1 .5 1.5zm-4.6-30c.5.2 1 .4 1.5.7.2.1.3.5.3 1-.6-.6-1.2-1.1-1.8-1.7z"/><path class="sofa-st0" d="M59.1 23.4c-2.2-3.4-5.4-6.2-8.2-9.1-1.2-1.2-2.5-2.1-3.8-3.1-2-1.3-3.2.1-5.5-2 0 0-.1 0 0 0 1.3 1.3 2.5 1.6 4.3 2.1 3.6.9 6.8 5.7 9.3 8.2 6.2 6.6 9 16.7 10 25.6.1.6.9.6.9 0-.4-7.1-3.2-15.6-7-21.7zM280.4 12.5c-5.6 2.8-11.1 6.7-14.3 12.2-1.7 2.9-2.7 5.9-3.6 9.1-1.1 3.7-1.2 8.2-2.7 11.7-.2.5.4 1.2.9.7 3.1-3.6 3-10.5 4.4-15.1 2.4-7.8 8.7-14.2 15.4-18.5.1 0 0-.1-.1-.1zM254.8 20.9c.3 0 .3-.2.2-.3-.8-.3-1.5 0-1.9.7-.2.4-.2.8-.3 1.2 0 .3 0 1 .3 1.2.7.4 1.6-.1 2-.7.3-.7.1-1.5-.3-2.1zm-1.3 2.3c-.1 0-.1-.6-.1-.7 0-.3 0-.5.1-.8.1-.4.4-.7.7-.8.5.8.6 2.6-.7 2.3zM246.6 33.1c-.1-.9-.5-2-1.5-2.3-.3-.1-.6.4-.2.6.3.1.5.4.7.7-2.2 0-1.9 3.7.1 3.2.9-.3 1-1.5.9-2.2zm-.8 1.2c-.3.7-.9.2-1.1-.3-.3-.8 0-1.6.9-1.7.1 0 .1 0 .1-.1.3.7.4 1.5.1 2.1zM237.2 20.6c.1-.1.2-.2.3-.2.2-.1 0-.3-.1-.2l-.6.3c-.1 0-.2.1-.3.2-.4.3-.8.8-1 1.2-.4 1 .3 1.7 1.2 2 .1 0 .3 0 .4-.1.9-.9.7-2.3.1-3.2zm-.9 1.2l.3-.6c.2.6.4 1.3.1 1.9-.5-.3-.6-.7-.4-1.3zM230.6 32.7c0-.3-.4-.3-.4 0-.1.6 0 1.2-.1 1.8 0 .6-.3 1.7-1 1-.5-.5.6-1.8.9-2.2.1-.2-.1-.4-.2-.2-.6.6-1.7 2-.9 2.8.2.2.6.2.8.3.4 0 .5-.2.6-.5.4-.9.4-2 .3-3zM220.9 21.3c0-.1-.1-.2-.2-.2l-.1-.1c-.6-.2-1.2-.1-1.6.4-.3.4-.2 1 0 1.4.3.5.9.6 1.4.5.3-.1.5-.3.5-.6.1-.4.1-.9 0-1.4zm-1.4 1c-.1-.5.3-.7.8-.7-.1.4 0 .8 0 1.2-.5.1-.8 0-.8-.5zM211.8 31.2c.1-.2.2-.4.3-.5.1-.2-.2-.4-.4-.2-.1.1-.1.3-.2.4-.2-.1-.5.2-.3.4l.1.1c-.6 1.2-1.4 2.9-.3 3.6.8.5 1.4-.6 1.7-1.3.1-.9-.3-1.8-.9-2.5zm-1 2.6c0-.7.3-1.4.6-2.1.3.4.6.9.6 1.5.1.9-1.1 2-1.2.6zM204.7 20.9c.3 0 .3-.2.2-.3-.8-.3-1.5 0-1.9.7-.2.4-.3.8-.3 1.2 0 .3 0 1 .3 1.2.7.4 1.6-.1 2-.7.3-.7.1-1.5-.3-2.1zm-1.3 2.3c-.1 0-.1-.6-.1-.7 0-.3 0-.5.1-.8.1-.4.4-.7.7-.8.5.8.6 2.6-.7 2.3zM196.5 33.1c-.1-.9-.5-2-1.5-2.3-.3-.1-.6.4-.2.6.3.1.5.4.7.7-2.2 0-1.9 3.7.1 3.2.9-.3 1-1.5.9-2.2zm-.8 1.2c-.3.7-.9.2-1.1-.3-.3-.8 0-1.6.9-1.7.1 0 .1 0 .1-.1.3.7.4 1.5.1 2.1zM187.1 20.6c.1-.1.2-.2.3-.2.2-.1 0-.3-.1-.2l-.6.3c-.1 0-.2.1-.3.2-.4.3-.8.8-1 1.2-.4 1 .3 1.7 1.2 2 .1 0 .3 0 .4-.1.9-.9.7-2.3.1-3.2zm-.9 1.2l.3-.6c.2.6.4 1.3.1 1.9-.5-.3-.6-.7-.4-1.3zM180.5 32.7c0-.3-.4-.3-.4 0-.1.6 0 1.2-.1 1.8 0 .6-.3 1.7-1 1-.5-.5.6-1.8.9-2.2.2-.2-.1-.4-.2-.2-.6.6-1.7 2-.9 2.8.2.2.6.2.8.3.4 0 .5-.2.6-.5.4-.9.4-2 .3-3zM170.8 21.3c0-.1-.1-.2-.2-.2l-.1-.1c-.6-.2-1.2-.1-1.6.4-.3.4-.2 1 0 1.4.3.5.9.6 1.4.5.3-.1.5-.3.5-.6.1-.4.1-.9 0-1.4zm-1.4 1c-.1-.5.3-.7.8-.7-.1.4 0 .8 0 1.2-.5.1-.8 0-.8-.5zM161.7 31.2c.1-.2.2-.4.3-.5.1-.2-.2-.4-.4-.2-.1.1-.1.3-.2.4-.2-.1-.5.2-.3.4l.1.1c-.6 1.2-1.4 2.9-.3 3.6.8.5 1.4-.6 1.7-1.3.1-.9-.3-1.8-.9-2.5zm-1 2.6c0-.7.3-1.4.6-2.1.3.4.6.9.6 1.5.1.9-1.1 2-1.2.6zM154.6 20.9c.3 0 .3-.2.2-.3-.8-.3-1.5 0-1.9.7-.2.4-.2.8-.3 1.2 0 .3 0 1 .3 1.2.7.4 1.6-.1 2-.7.3-.7.1-1.5-.3-2.1zm-1.3 2.3c-.1 0-.1-.6-.1-.7 0-.3 0-.5.1-.8.1-.4.4-.7.7-.8.5.8.6 2.6-.7 2.3zM146.4 33.1c-.1-.9-.5-2-1.5-2.3-.3-.1-.6.4-.2.6.3.1.5.4.7.7-2.2 0-1.9 3.7.1 3.2.9-.3 1-1.5.9-2.2zm-.8 1.2c-.3.7-.9.2-1.1-.3-.3-.8 0-1.6.9-1.7.1 0 .1 0 .1-.1.3.7.4 1.5.1 2.1zM137 20.6c.1-.1.2-.2.3-.2.1-.1 0-.3-.1-.2l-.6.3c-.1 0-.2.1-.3.2-.4.3-.8.8-1 1.2-.4 1 .3 1.7 1.2 2 .1 0 .3 0 .4-.1.9-.9.7-2.3.1-3.2zm-.9 1.2l.3-.6c.2.6.4 1.3.1 1.9-.5-.3-.6-.7-.4-1.3zM130.4 32.7c0-.3-.4-.3-.4 0-.1.6 0 1.2-.1 1.8 0 .6-.3 1.7-1 1-.5-.5.6-1.8.9-2.2.2-.2-.1-.4-.2-.2-.6.6-1.7 2-.9 2.8.2.2.6.2.8.3.4 0 .5-.2.6-.5.4-.9.4-2 .3-3zM120.7 21.3c0-.1-.1-.2-.2-.2l-.1-.1c-.6-.2-1.2-.1-1.6.4-.3.4-.2 1 0 1.4.3.5.9.6 1.4.5.3-.1.5-.3.5-.6.1-.4.1-.9 0-1.4zm-1.4 1c-.1-.5.3-.7.8-.7-.1.4 0 .8 0 1.2-.5.1-.8 0-.8-.5zM111.6 31.2c.1-.2.2-.4.3-.5.1-.2-.2-.4-.4-.2-.1.1-.1.3-.2.4-.2-.1-.5.2-.3.4l.1.1c-.6 1.2-1.4 2.9-.3 3.6.8.5 1.4-.6 1.6-1.3.2-.9-.2-1.8-.8-2.5zm-1 2.6c0-.7.3-1.4.6-2.1.3.4.6.9.6 1.5.1.9-1.1 2-1.2.6zM104.5 20.9c.3 0 .3-.2.2-.3-.8-.3-1.5 0-1.9.7-.2.4-.3.8-.3 1.2 0 .3 0 1 .3 1.2.7.4 1.6-.1 2-.7.3-.7.1-1.5-.3-2.1zm-1.3 2.3c-.1 0-.1-.6-.1-.7 0-.3 0-.5.1-.8.1-.4.4-.7.7-.8.5.8.6 2.6-.7 2.3zM96.3 33.1c-.1-.9-.5-2-1.5-2.3-.3-.1-.6.4-.2.6.3.1.5.4.7.7-2.2 0-1.9 3.7.1 3.2.9-.3 1-1.5.9-2.2zm-.8 1.2c-.3.7-.9.2-1.1-.3-.3-.8 0-1.6.9-1.7.1 0 .1 0 .1-.1.3.7.4 1.5.1 2.1zM86.9 20.6c.1-.1.2-.2.3-.2.2-.1 0-.3-.1-.2l-.6.3c-.1 0-.2.1-.3.2-.4.3-.8.8-1 1.2-.4 1 .3 1.7 1.2 2 .1 0 .3 0 .4-.1.9-.9.7-2.3.1-3.2zm-.9 1.2l.3-.6c.2.6.4 1.3.1 1.9-.5-.3-.6-.7-.4-1.3zM80.3 32.7c0-.3-.4-.3-.4 0-.1.6 0 1.2-.1 1.8 0 .6-.3 1.7-1 1-.5-.5.6-1.8.9-2.2.2-.2-.1-.4-.2-.2-.6.6-1.7 2-.9 2.8.2.2.6.2.8.3.4 0 .5-.2.6-.5.4-.9.4-2 .3-3zM70.6 21.3c0-.1-.1-.2-.2-.2l-.1-.1c-.6-.2-1.2-.1-1.6.4-.3.4-.2 1 0 1.4.3.5.9.6 1.4.5.3-.1.5-.3.5-.6.1-.4.1-.9 0-1.4zm-1.4 1c-.1-.5.3-.7.8-.7-.1.4 0 .8 0 1.2-.4.1-.8 0-.8-.5z"/></svg>