<svg id="Layer_1" xmlns="http://www.w3.org/2000/svg" viewBox="0 0 179.9 115.9"><style>.st0{fill:#D2D5E7;} .st1{fill:#333333;} .st2{fill:#FFFFFF;}</style><path class="st0" d="M167.6 88.9c-1.4-2-3-3-5.2-4.1-1.5-.7-2.9-1.3-4.3-1.3 0-1.7-.7-3.4-1-5-.5-2.9-1.9-5.7-3.5-8.2-.7-1-1.3-2-2-2.9-.2-.3-.4-.5-.6-.7-.4-.9-1-1.6-1.9-2.2-.5-.3-1.1-.5-1.7-.7-1.6-1.2-3.3-2-5.4-2.6-2.8-.7-5.4-1.8-8.2-2.5-1-.3-2.1-.4-3.1-.7-.5-.7-1-1.3-1.6-1.9v-.6c.5-.4.6-.9.4-1.4 0-.2 0-.4-.1-.6-.1.1-.1.1-.2.1-.9-.9-2.1-1.1-3.3-1.4-.2 0-.4-.1-.6-.1-.1-3-.1-5.5-.4-8.3-.1-1.2 0-3.4-.8-4.6v-.3s0-.1.1-.1c1.7-2 2.1-5.8 2.4-7.8.3-2 .4-4 0-6-.3-1.3-.7-2.5-1.3-3.7-.6-3.3-1.7-6.4-4-8.9-1.6-1.7-3.9-2.7-6-3.6-2.3-.9-4.7-1.5-7.1-1.7-2.2-.2-4.2.4-6.4.5-1.1 0-2.4-.4-3.5-.6-.3-.1-1.7-.5-1.9-.7-.3-.5-1.1-.4-1.3.2-.2.7 0 1.4.5 1.9-.3 0-.6.3-.6.6h-.3c-.2 0-.4 0-.6.1H94c-.7-.2-1.3-.3-2-.1-.8.3-1.1 1.4-.2 1.9.6.3 1.2 1.6 1.3 2.1.1.7 1.1 1.5 1.5 2 .8.8 1.6 1.5 2.5 2.2.3.2.5.4.8.6 2.1 3.2 2.6 7.8 3 11.4.9.3 1.5 1.2 1.5 2 0 2.9-.3 5.7-1.3 8.4.1.3.2.5.3.8.1.4.5 4.1.2 5.1.7 1.1 1.3 2.3 1.8 3.5v.2c.5 1.3.9 2.7 1.1 4.1.5-.2 1-.5 1.5-.7.2.5.5 1 .7 1.6.1.3.1.6.2 1 0 .9-.9 1.5-1.5 2.1-.1.1-.1.2-.2.3-.2.1-.4.2-.5.3.1.1.2.3.4.4.8.7 1.2 1.3 1.6 2.3.7 1.7 1.1 3.3.7 5.1v.4c-1.2 1.8-3.9 2-6 2.8-1.1.5-2.7.8-3.7 1.7-.1.1-.2.1-.3.2-.5.4-.7.8-.9 1.4-.1.3 0 .7 0 1.1-.1.6-.3 1.2-.5 1.7-.7 2.1-1.5 4.2-2.6 6.1-.8 1.6-2 3.1-2.3 5-.3 2-.7 3.9-1.2 5.8l-.3 1.2c-.3 5.8-1.6 11.8-3.6 17.3.8.3 1.7.5 2.5.7 3.9.9 7.8-.5 11.7-.7.9 0 1.7-.1 2.6.1.7.2 1.4.4 2.1.4 1.7.1 3.7-.2 5.4-.4 2.2-.3 4.3-.6 6.5-.8 2.3-.2 4.7 0 7 0 4.4 0 8.7-.1 13.1-.2 4.4-.2 8.8-.2 13.2-.8 1.7-.3 3.5-.7 5.2-.7 1.1 0 2.1-.2 3.3-.1 1 .2 2.1.8 3.2.7 2.6-.1 3.3-2.5 3.9-4.7.3-1.1.5-2.2.8-3.3.3-.5.4-1.1.6-1.6.4-1.2.7-2.5.9-3.8.5-2.4.9-4.4-.4-6.3z"/><path class="st1" d="M167.6 83.9c-2.2-1.5-4.8-1.9-7.4-2-.4-1.5-.9-2.9-1.5-4.3-1.2-3.1-2.9-5.8-4.8-8.4-1.4-1.9-2.6-4.1-4.6-5.4-.3-.2-.6-.2-.9 0-3.2-2-6.5-3.7-10.1-4.9-2-.7-4.1-1.2-6.2-1.5-.3-.1-2.3-.2-2.6-.8l.3-.9c.2-.6.5-1.2.5-1.8 0-.2-.1-.3-.2-.5-.4-1.3-1.8-1.4-3.1-1.4h-.6v-.2c.1-.1.2-.1.3-.2-.5 0-.9.1-1.4.4-.3.2-.7.2-.9 0-.1 0-.2.1-.3.1-.6.1-1.3.2-1.9.3h-.3-.1c-.1 0-.2.1-.3.2-3.1.4-7.1-.2-8.7-.2-3 0-5.5 1-7.6 3-.6.3-1.3.7-1.9 1.2-1.4 1.1-2.9 1.8-4.3 2.9-.3.2-.5.6-.5.9-.3.3-.3.9.2 1.2.7.4 1.2 1 1.7 1.6.1-.1.1-.2.3-.3.1 0 .1.1.2.1 0 .2 0 .4.1.5-.7 1.8-5.2 3.8-6.4 4.4-1.9.9-3.8 2.5-4.4 4.6-.8.9-1.5 1.7-2.2 2.7-1.7 2.5-2.8 5.3-3.8 8.1-1 2.7-.8 5.4-1.4 8.2-.5 2.2-1.6 4.7-1.3 7 .1.8.9 1 1.4.4 2.7-3.6 2.6-9.4 3.7-13.6.8-2.9 2.1-6.2 3.8-8.7 1.3-1.9 2.8-4 3.7-6 1.4-1.3 3.3-2.2 4.9-3.1 1.1-.7 2.2-2 3.2-2.9.3-.2.4-.5.4-.8.1-.1.1-.2.1-.3.1-.4.1-.7.1-1 0-.3-.2-.6-.4-.8-.2-.1-.5-.2-.7-.3 0 0-.2-.1-.2-.2s-.1-.2-.2-.3c1-.5 1.9-1.3 2.8-2l1.8-1.5c.1 0 .3-.1.4-.2 4.5-3.7 9.6-2.3 14.9-3.2.7-.1 1.4-.2 2-.4 1.8.2 3.7 0 5.4.7 0 .1 0 .2-.1.3-.1.1-.1.2-.2.2-.3.5-.5 1.2-.3 1.7.1.2.2.3.4.4.1.2.1.4.3.5l.3.3c-3.8-.1-7.4 0-11.2.1-.5 0-.5.7 0 .7 3.8.5 7.7-.3 11.6-.6.9.6 2.3.8 3.3 1.1 5.4 1.3 10.3 3.9 15.3 6.3.3.2.6.1.9 0 1.3 1.7 2.3 4.1 3.4 5.9 1.8 2.9 3.1 5.9 4.2 9.2.1.4.2.8.4 1.2-3.7 0-7.5.1-11.2.2-4.8.1-9.6 0-14.4.5-4.4.4-8.7 1.5-13 2.2-3.8.6-6.2 2.7-8.2 5.9-2.7 4.3-2.6 9-3.7 13.7-.2 1 1.2 1.7 1.7.7 3.2-5.9 3.3-14.1 10.7-16-.3.4-.6.9-.9 1.3-.9 1.2-1.2 2.9-1.5 4.4-.8 2.7-1.5 5.5-2.3 8.2-.2.5.7.9.9.4 1.6-3.2 2.1-6.8 3-10.3.2-.8 1.3-3 2.5-4.3 7.1-1.3 14.1-2 21.4-2 5.3 0 10.9-.7 16.2-.4v.1c1.4-.3 2.8-.1 4.2.3 2.2.4 3.4 1.5 3.8 3 .3.6.6 1.3.6 2.1.4 5.2-2.4 9.8-3.1 14.7 1 .8 3 .6 3.4-1 1.7-6.1 8.1-16.5.6-21.4z"/><path class="st1" d="M121.1 10.6c-2.2-1.8-4.7-3.5-7.4-4.2-1.3-.4-2.7-.5-4.1-.6-.9-.1-1.9.1-2.8.4-1.5 0-3 .2-4.6.4-.1-.1-.2-.1-.3-.1-2.1-.2-3.8-.7-5.7-1.6-.9-.4-1.8-.8-2.7-.1-1.1.8.2 2.3 1.1 3.3-1.5.1-3.3-.3-4.3.9-.8 1 .2 1.6 1.2 1.8.1.8.1 1.5-.5 2.2-.6.7-1.2 1.6-1.5 2.4-1.3 3.1-1.1 6.4-.8 9.7v.2c0 3.3-.2 5.9-1.5 9-.7 1.6-2.4 2.3-1.9 4.1.4 1.5 2.6 2.4 4 2.7h.3c-.2.8-.2 1.6-.7 2.3-.4.6-.6 1.5.1 2s1.3.7 2.1.8c.1.2.4.3.7.1h1c-.1.2-.2.3-.4.5-.1.1-.4.3-.5.4-.1 0-.1.1-.1.1-.8.1-1.7 0-2.2.6-.1.1-.2.2-.2.4.2 1.6 1 3.5 2.6 4.2 2.5 1 5.1 2.2 7.7 2.7.2 0 .4-.1.6-.2.1.1.3.2.4.3.4.3.8.7 1.3.8.3.1.6-.3.3-.5-.4-.4-.9-.6-1.3-.9l-.6-.3c0-.1-.1-.2-.3-.3-3.2-1.4-8.7-1.6-9.7-5.5.5 0 1-.1 1.4-.2.3 0 .6-.1 1-.3 0 0 0-.1-.1-.1.6-.3 1.1-1 1.3-1.5.1-.4 0-.9-.4-1.1-.3-.2-.6-.2-.9-.2 0-.1 0-.1.1-.2-.6 0-1.6.2-2.1-.2-.2-.1-.4-.3-.7-.4-.2-.1.4-1.1.5-1.3.1-.4.2-.8.2-1.1.2-.1.3-.2.4-.4v-.9-.4c-.1-.4-.1-.7-.2-1.1-.3-1.1.2-2.1.2-3.2 0-.5-.6-.5-.8-.1-.3.8-.5 1.8-.5 2.7 0 .4.1.7.1 1h-.1c-2.7-1-2.7-1.6-1.5-3.6.8-1.4 1.3-3.1 1.7-4.6.4-1.5.3-2.6.2-4.2 0-.5-.1-1.1-.2-1.7.1-.1.1-.2.2-.4.2-3.2-.4-7.5 1.3-10.4 1.1-1.9 1.2-2 .9-3.9h.6c.4-.1.4-.7 0-.8-.4-.1-.8-.3-1.3-.4-.3-.1-.5 0-.2-.2s.8-.2 1.1-.3c1-.1 2 0 2.9-.3.5.3 1.3-.2 1-.8l-.6-1.2c-.1-.2-.3-.4-.5-.6.5.2 1 .6 1.4.7.5.2 1.1.4 1.7.5.9.2 1.7.2 2.6.2 0 .2.1.4.2.6.1-.1.3-.2.4-.2 5.7-.7 12.9.2 17.8 3.4l-.1-.1c.1.1.3.2.4.3 3 2.1 5 5 5 8.9.1.6.2 1.2.2 1.8.2 1.5.4 3 .4 4.5 0 .2.1.4.1.6.1.3.2.4.4.5 0 .9.1 1.8.1 2.7-.1.7-.3 1.4-.3 2 0 .6-.1 1.3-.3 1.9-.1.1-.2.3-.3.5-.1.7-.2 1.4-.5 2.2-.8 1-2.4 3.4-2.9 3.3-.7-.2-1.8.4-2.5.7-.5.2-1 .3-1.4.4-1.6 0-7.3.1-8.7.3-1 .2-1.4.5-2-.4-.4-.6-.5-.7-1.1-1.2-.2-.2-.4-.3-.5-.4 0 0 0-.1.1-.1 0-.1 0-.3.1-.4-.4-.3-.8-.6-1.3-.8h-.1c-.4-.1-.8-.2-1-.3.6-1.4.7-3.1.5-4.4 0-.2-.1-.3-.2-.4.1-.6.1-1.3 0-1.9.1-1.2 0-2.8-.9-3.7-1.3-1.4-2.8 0-3.8 1.1-.4.4.2 1 .6.6.3-.3 1.9-1.7 2.4-.5.2.4.2.9.2 1.3.1.7 0 1.4-.1 2.1-.2 1.6-.5 4.6-2.5 4.9-.7.1-.6 1.2 0 1.3.7 1 1.7 2.1 2.8.8 0 0 .1.1.2.1 1.3.9 2.6 1.8 3.5 3.2.6.9 1.8.9 2.8 1 2.2.3 8.6-.1 10.8.3 1 .2 1.7 0 2.5-.6.3 0 .6-.1.8-.3.1-.1.3-.2.4-.3v.2c.1 1.6.5 3.2.6 4.9.1 1.4 0 2.8 0 4.2.6-.2 1.2-.3 1.8-.3.1-1.7.1-3.3-.1-5-.3-2.1-1.3-4.9-.8-7.2l.6-.9c.4-.7.6-1.5.8-2.3.1 0 .1-.1.2-.1.4-1.9.3-3.8.6-5.7.2-.8 0-1.7-.1-2.5V28c.1-.1.2-.2.2-.4 1.6-6.1-1.6-13.3-6-17zM148 66c-12.5-2.4-25.8-1.5-38.3.3-.1 0-.2.1-.3.2-.7-.1-1.4-.2-2.1-.1-1.3.1-2.5.4-3.8.5-1.6.1-3.4.3-4.5 1.6-.2.2 0 .6.3.5 1.7-.5 3.3-.9 5.1-1.2 1.7-.2 3.4-.4 5-.9.1.1.2.2.4.2 5.9-.4 11.6-1.4 17.5-1.4 3.4 0 6.8.1 10.2.2 3.2.1 7.2-.1 10.3.8.5.2.7-.6.2-.7z"/><path class="st1" d="M107.1 52.9c-.8-1-2.8-1.8-4.1-1.5-1 .2-2 .6-3 .6-1.2 0-2.3-.2-3.5-.1-.3 0-.3.5 0 .5 1.6-.1 3.2.4 4.8.4.5 0 1.1-.2 1.6-.4 1.3-.4 2.6.5 3.7 1.1.5.3.8-.2.5-.6zM81.4 101.1c-.4.2-.6.5-.8.9-.1.4-.3.8-.4 1.2-.1.3.2.7.6.6.5-.2.7-.4.9-.9.1-.2.1-.3.1-.5 0-.1 0-.1.1-.2.9-.4.2-1.5-.5-1.1zM100.6 77.3c-.7-1.6-2.5-4.7-4.5-5-.5-.1-.7.6-.2.8 1.8.6 3.4 4.3 4 6 .4 1 1 1.8 1.1 3 .1.8.3 1.4.7 2.2.1.3.6.2.6-.1.6-2.5-.8-4.8-1.7-6.9zM103.2 94.1c0-2.4-.1-4.6-.5-6.9-.1-.4-.8-.3-.8.1 0 4.3.8 8.7.6 13 0 .6.9.6 1 0 .1-2.1-.3-4.1-.3-6.2zM165.5 108.7c-.3-.3-.8-.5-1.3-.2-.1 0-.2.1-.3.2 0 0-.1 0-.1.1-.6.4-.8 1.2-.5 1.8.1.3.2.5.4.8.9 1 2.3.1 2.5-1 .1-.9-.2-1.5-.7-1.7zM107.7 108.4c.1-.5-.3-.8-.7-.9h-.1c-.4 0-.7.2-.8.6v.3c-.1.2-.1.4-.2.6-.2.8.8 1.5 1.4.8.3-.4.4-.9.4-1.4zM113.2 108.3c0-.5-.7-.5-.8 0v.9c0 .6.9.6.9 0-.1-.3-.1-.6-.1-.9zM84 27.4c-.1-.5-.5-.7-.8-.5-.1-.1-.3-.1-.4-.1-.9 0-1.9 0-2.8.2-.1 0-.3.1-.4.1-1.9-.6-4.3 0-6.2 0-1.4 0-3.2.4-4.8.7h-.2c-1.3.2-2.4.2-3.4 0-.3-.1-.5 0-.6.2-1.8-.3-3.8.2-5.6.3-.7 0-1.3.1-2 .2-.2-.9-.4-1.8-1.2-2.4-.8-.6-1.5-1.2-2.4-1.5-.7-.3-1.4-.7-2.1-.7 1.5-2 2.2-4.8 1.7-7.4-1.4-7-7.6-11.8-14.5-10.3-7.2 1.5-8.1 11.4-5.4 16.8.2.3.3.6.5.9 0 0-.1 0-.1.1-.4.2-.8.5-1.2.7-.7.4-1.2 1-1.7 1.6-.9 1.2-1.6 2.4-1.8 3.9-8 .4-16.1.2-24 1.5-.8.1-.9 1.2-.1 1.3-.3 8.4-.3 16.9-.4 25.3 0 9.1-.4 18.3.1 27.3 0 .3.1.5.3.6-.1.3.1.7.5.7 8.5.2 17.2-.7 25.8-1.2-.1 2.4-.1 4.8-2.7 5.8-1.7.7-3.3 2-4.8 3.1-.7.5-.1 1.6.7 1.2 1.2-.7 2.3-1.6 3.5-2.3 1-.6 2.3-.9 3.1-1.8 1-.9 1.4-2.2 1.5-3.5.2-.1.3-.3.3-.6v-.3c2.5.9 5.2.6 7.9.5 2.6 0 5.9.2 8.5-.6 0 0 .1.1.2.1.2 1.5.9 2.8 2.6 3.5 5.7 2.3 12.2 4.2 18.2 5.5 1.3.3 1.7-1.5.5-1.9-3.3-1.1-6.6-2.3-9.9-3.4-3.2-1-9.4-1.2-10.2-4.9.2-.4.1-1-.1-1.4v-.2c2.7-.2 5.3-.4 8-.7 3.9.1 7.8.2 11.6 0 2.2-.1 4.4-.5 6.6-.7 2.2-.2 4.4-.1 6.5-.6.4.6 1.3.4 1.5-.5.6-4.4.2-9 .2-13.4 0-4.5.1-8.9.1-13.4 0-9.1.4-18.6-.6-27.8zM54.3 27c1.1.8 1.1 2.6 1.5 3.9h-.2c-.8.3-1.5.6-2.3.8-1.5.3-1.8-1.2-2.2-2.3 0-.6-.1-1.1-.4-1.6-.4-.7-1.4-1.1-2.4-1.4.1-.1.3-.1.4-.2.2-.1.3-.4.3-.6.3-.2.7-.5 1-.8 0 .1.1.1.2.1 1.4.8 2.9 1.2 4.1 2.1zm-5 1.6c-3.3.2-6.5.4-9.8.7.1 0 .1-.1.1-.2.5-1 1.9-1 2.9-1.2 1 0 1.9-.1 2.8-.3.8 0 1.6 0 2.4.2.8.1 1.3.4 1.6.8zM38.8 7.9c10-3 16.1 12.1 9.3 17.1-3.9 1.2-7.9 1.7-11.6-.5-5.9-3.5-4-14.8 2.3-16.6zm-7.2 18.9c.5-.6 1.1-1 1.8-1.4.3-.2.7-.3 1-.5 1.3 1.2 3 2.1 4.8 2.6-.4.3-.7.7-.9 1.3-.1.2-.1.5.1.6h-.2c.1.2.2.4.3.5-.1.1-.2.1-.2.2-.4.5-.4 1-.5 1.5-.2.9-.5 1-1.3 1-.2 0-1.1 0-1.5-.1 0-.1.1-.3 0-.4-.2-.5-.2-.9-.2-1.4 0-.4.1-.8-.1-1.2-.1-.3-.5-.3-.7 0-.1.1-.1.2-.1.3h-.3v-.1c-1.1.1-2.2.2-3.2.2h-.5c.1-1 .9-2.2 1.7-3.1zm51.1 2.4c-.7 8.2-.4 16.6-.4 24.8 0 4.4.1 8.9.1 13.3 0 4.2-.3 8.6 0 12.8H82c-7.6 1.7-16 1.4-23.7 1.6-.3 0-.5.2-.6.4-8.7.2-17.4 1-26 1.5-8.6.5-17.4.8-26 2v-.1c.4-8.6.1-17.3.1-25.9 0-8.9 0-17.7-.4-26.6 8.2.2 16.5-1.1 24.7-1.6 1-.1 2-.1 3-.1 0 .3.1.6.1.9 0 .4 0 .8.3 1.2.7.7 1.6.7 2.5.8 1 .1 1.9 0 2.5-.8.5-.6.7-1.5.8-2.3 3.5-.1 7.1-.3 10.6-.5v.7c0 .2.1.4.3.5.4 1.2 1.3 2 2.9 1.9 1.1-.1 2.7-.5 3.7-1.1.9-.6 1-1.6.9-2.6 2.4.2 4.8.3 7-.3h.3c1.1 0 2.5.4 3.5-.1 1.3 0 2.6-.2 3.9-.2 1.7 0 3.6.1 5.4-.2 1.4.2 3.4.5 4.6-.2h.3v.2z"/><path class="st1" d="M34.7 27.2c-.3.3-.3.7-.5 1-.1.2.2.4.3.2.1-.3.2-.7.5-.9.1-.2-.1-.4-.3-.3zM48.6 13.9c0-.1 0-.2-.1-.3-.9-1.1-2.3-1.5-3.6-1.6-1.8-.2-2.7.7-3.9 1.9-2.4 2.5-1.1 6.3 1.4 8 2.3 1.5 5.8-.5 7-2.5 1.1-1.7.5-4-.8-5.5zm0 5c-.8 1.6-3.2 2.7-4.9 2.4-2.5-.4-3.1-3.3-2.6-5.3.5-2.1 2.7-3.2 4.7-3 0 .1.1.2.2.2 2.1 1.2 3.8 3.2 2.6 5.7z"/><path class="st1" d="M46.4 14.4c-1.4-.7-2.7-.6-3.6.6-.2.2-.5.4-.6.7-.6.9-.3 2.3.3 3.1.8 1.1 2.1 1.8 3.5 1.3 2.4-.7 2.8-4.4.4-5.7z"/><path class="st2" d="M44.8 15.2c-.5-.8-1.6-1.1-2.4-.4-.3.3-.4.7-.4 1 0 .4.1.9.4 1.2.5.4 1.3.6 1.8.2.7-.5 1-1.3.6-2z"/><path class="st1" d="M79.9 33c.4-.5-.1-1.5-.8-1.2-1.4.4-2.6 0-4 0-1.2-.1-2.5.3-3.8.4-2.1.1-4.7.1-6.8.7h-.6c-.7 0-1.4.3-2.1.4-.6.1-1.2 0-1.8 0-.2 0-.4.1-.5.2-4.4.4-8.9 1.1-13.3 1.7v.1c5.3.5 11.2.2 16.4-.6.2 0 .3-.1.4-.2.3 0 .6-.1.9-.1.7-.1 1.4 0 2.1 0 .5 0 1-.2 1.5-.3h.5c1.5-.2 2.9-.3 4.3-.3s2.7-.4 4.1 0c.9.2 1.7.2 2.6-.1-.7 6.9-.2 14-.2 20.9 0 7.6-.5 15.4.2 23v.1c-.1 0-.1-.1-.2-.1-1.1-.4-2.3-.4-3.5-.5-1.1-.1-2.7.8-3.7.4-2.1-.7-5.1.3-7.5.8-8.6-.4-17.1 1.2-25.7 1.1-9.8 0-19.4 1.6-29.2 2.2V60c0-7.3.5-14.8-.2-22 1.5-1 6.1-.5 7.2-.7 3.1-.4 6.4-.2 9.5-.5 3.4-.3 6.7-.3 10-.7 2.9-.4 6.1.4 8.9-.5.3-.1.2-.6-.1-.5-3.8.6-7.9.3-11.7.5-3.8.2-7.6 0-11.4.1-3.2.1-6.4.5-9.6.5-1.7 0-3.8 0-4.2 2-.1.4.2.6.5.6C7.6 45.8 8 53 8 60v22.4c0 .7.9.7 1.1.2 9.4-.2 18.7-1.8 28.1-1.8 8.4 0 16.7-1.2 25-1.4h.2c.4 0 .7 0 1.1-.1h.9c.2 0 .3-.1.4-.2 1-.2 2-.3 3.1-.5.1.2.3.3.5.3.6 0 1.3 0 1.9-.3.4 0 .8.1 1.1.3 1 .3 2.7-.3 3.7-.4 1.2-.1 2.2.4 3.5 0 .3-.1.4-.4.3-.6.2.2.6.1.7-.3.7-7.1.2-14.4.2-21.5.4-7.9.9-15.6.1-23.1zM60.4 9.7c-1.1-.2-2.1.3-3.1.6-1.4.4-2.9.9-4.4 1.1-.6 0-.6 1 0 1 1.3 0 2.6-.3 3.8-.6 1.2-.2 2.7-.3 3.8-1.1.3-.3.4-.9-.1-1zM63.7 8.4h-.9c-.8 0-.8 1.3 0 1.3h.9c.8-.1.8-1.2 0-1.3zM73.5 96.2c-.4-.1-.7-.1-1-.1-.7 0-.7 1 0 1 .4 0 .7 0 1-.1.4 0 .4-.8 0-.8z"/></svg>