<svg id="Layer_1" xmlns="http://www.w3.org/2000/svg" viewBox="0 0 58.6 62.6"><style>.tv-st0{fill:#FFFFFF;} .tv-st1{fill:#868FB3;} .tv-st2{fill:#D2D5E7;} .tv-st3{fill:#333333;}</style><path class="tv-st0" d="M50.9 26.9c-.1-.2-.3-.4-.4-.5.1-1.2.1-2.4.2-3.3.2-3 .4-5.5-.7-8.4-.7-1.8-1.3-4.7-3.5-5.3-1-.2-1.9-.3-2.9-.5-1.3-.6-2.7-1.1-3.9-1.3-.7-.1-1.4-.3-2.1-.6-.7-.3-1.5-.6-2.3-.8l-2.4-.9c-1.3-.5-2.8-.8-4.2-.9-.9-.7-2.1-1-3.6-.7-.5.1-.9.3-1.2.5-1.7.1-3.4.4-4.8 1.1-1.9 1-4.1 1.7-5.5 3.3-1.6.1-3.2.8-4.3 2-2.2 2.5-2.6 5-2.5 8.3.1 2.8.1 6.3-.7 9-.6 2.1-.2 4.5 2 4.7-.1.2.2.3.4.4.3.3.6.6.9.8 2.2 1.6 5.1 1.7 7.8 2.1h.1c.7.3 1.4.5 2.1.8 2.1.8 4.2 1.2 6.4 1.7 1.1.3 2.3.4 3.4.6 1.1.2 2 .7 3.1.8 1.3.1 2.6 0 3.9-.2.8.5 1.9.7 2.7.4 1.7-.5 3.2-1.5 4.4-2.7.6-.2 1.1-.5 1.7-.8 3.4-1.5 8.4-5.2 5.9-9.6z"/><path class="tv-st1" d="M51.4 24.3c.1-1 .2-1.9.3-2.9.1-1.8.3-4.4-.8-5.9l-.3-.3c.5-.7-.1-1.8-1.2-1.6-1.5.3-2.9 1.3-4.2 2-1.7 1-3.3 2.1-4.9 3-1.7 1-2.1 2.1-2.1 3.5-1 2.7-.4 5.9-.6 8.8-.1 1.7 0 3.6-.6 5.2-.4 1.1-.4 2.6-.2 3.8.2 1.1 1.4 1.3 2.3.9l.9-.6c.4 0 .9-.1 1.4-.5.2-.1.3-.3.5-.4 1.3-1.1 2.5-2.3 3.6-3.5 1.3-1 2.4-2.2 3.5-3.4 2.1-2.1 4-5.2 2.4-8.1z"/><path class="tv-st2" d="M38.4 20.4c-.3-.5-.9-.8-1.4-.8-.2-.3-.5-.5-.8-.7-.6-.4-1.8-.6-2.6-.8-1.1-.3-2.1-.7-3.2-1.1-4.2-1.4-8.5-2.6-12.9-3.6-1.3-.3-3.6-1.8-5.5-2-.2-.1-.3-.2-.5-.4-.5-.2-1.1-.3-1.6 0-2.4 1.7-3.2 4.2-3.4 6.8-.1.4-.2.9-.3 1.3-.3 1.4-.1 2.9-.4 4.3-.6 2.9-.4 6.2 1.5 8.5s5.4 3.6 8.3 4.1c3.6.7 6.9 2.1 10.5 3.1 1.7.5 3.4.8 5.1 1.1 1.2.2 2.8.8 4 .1.2-.1.4-.2.5-.4 2.4-.2 2.5-5.4 2.6-7 .1-2.3.1-4.6.3-7 .1-1.7 1-3.8-.2-5.5z"/><path class="tv-st3" d="M52.6 16.6c.1-3-1.1-5.5-3.5-7.3-2.6-1.9-6.5-2.7-9.6-3.4-1.9-.5-3.7-1.4-5.5-2.1-1.8-.7-3.8-.6-5.7-1.1-3.7-1.1-7.3 1.3-10.7 2-1.6.3-3.2 1.9-4.7 2.6-1.5.8-3.1 2.1-4.7 2.7-.4.1-.6.5-.6.8h-.1c-2.9 1.3-2.7 4.8-3 7.5-.3 2.6 0 5.3-.4 7.9-.2 1.5-.1 2.6.4 4-.3 4.2-.1 8.4 0 12.6 0 1.8 0 3.7-.2 5.5-.1 1-.1 2.2.9 2.8.4.2.7.3 1 .3 9.5 4.5 20.2 7.6 30.7 8.8.4 0 .7-.1.9-.4.1 0 .2-.1.3-.2 2-1.9 3.9-4.1 6.3-5.5 1.1-.7 2-1.6 3-2.4.9-.8 1.9-1.1 2.2-2.4.3-.1.6-.2.8-.3 2.1-1.1 1.7-3.7 1.7-5.7-.1-4.4.1-8.8 0-13.2 0-.1 0-.2-.1-.3.1-.3.2-.6.2-.9.3-1.7.1-3.5.1-5.2 0-2.4.3-4.7.3-7.1zM6.5 25.5c0-1.5-.2-3.4.3-4.9.7-2.5-.3-5.6 1.6-7.6h.1c1.9-1.8 2.3-1.8 4.8-.8 3.1 1.2 6.7 1.9 9.7 3.3 2.7 1.3 5.6 1.6 8.4 2.6 1.8.7 4.7 1.2 6.3 2.3.7.5 1.6-.6.9-1.2-1.4-1.3-3.1-1.3-4.8-2-3.7-1.4-7.6-2.1-11.3-3.7-3.1-1.3-6.5-2.2-9.7-3.3 3.5-1.5 6.9-3.6 10.7-4.6 6-1.5 12.2 2.3 17.9 3.7 2.9.7 7 2 7.9 5.1.8 2.8-.1 6.3-.1 9.2 0 3.7.2 6.8-2.5 9.8-1.4 1.6-5.2 5.2-7.4 5.3-.5 0-.8.3-.9.6-.2 0-.4-.1-.6-.1 0-.1-.1-.3-.2-.4.9-1.5.7-3.4.7-5.2 0-4.1 1-8 .6-12.1-.1-.8-1.2-.8-1.3 0-.2 2.7-.6 5.5-.8 8.2-.1 2.1.8 6.4-.5 8.4-.1 0-.3.1-.4.2-2.2 1.5-5.3.2-7.6 0-2.2-.2-4.6-1.4-6.8-1.8-3.3-.6-6.5-1.7-9.6-2.8-1.8-.7-4.1-1.5-5.4-2.9-.2-.2-.4-.7-.5-1.3-.1-1.3.4-2.6.5-4zm2.7 20.8c-.3.2-.5.4-.7.5.4-3.2.3-7.3.3-9.2 1.4.6 2.8 1.5 4.2 2.1l2.7 1.2c-1.2.7-2.2 1.7-3.2 2.6-1 1-2.1 1.9-3.3 2.8zm38.8.8c-1.4-.5-3-.4-4.5-.6-1.4-.2-2.8-.8-4.3-1-.2 0-.4 0-.6.1V45v-.1c1.9-.8 3.5-1.8 5.3-3 1.3-.9 3.1-1.6 4.2-2.8 0 2.6-.2 5.3-.1 8zm1.4.5c0-.6.1-1.4.1-2.1 0-2.6.1-5.2 0-7.9 0-.5-.5-.8-.9-.7h-.3c-.9.2-1.3.6-2.1 1.2-1 .8-2.1 1.5-3.3 2.1-1.8 1-3.5 2.7-5.2 3.9-.1.1-.2.2-.2.3-.1.1-.2.2-.2.4v2.3c0 1.1.1 2.3.2 3.4.1.9.1 1.8.1 2.7.1.7.1 1.3 0 2-1.2 1.6-2 1.8-2.2.4-.4-1-.1-2.2-.1-3.2.1-1-.2-2-.2-3 0-1.7-.1-3.5-.5-5.1 0-.1 0-.1-.1-.2 0-.2-.2-.4-.4-.4-4.2-.8-8.5-1.5-12.6-2.6-2.4-.6-4.6-1.8-7-2.6-1.9-.6-3.9-1.8-5.9-2.1-.3-.4-1-.4-1.1.2-.5 2.2-.3 4.6-.4 6.9-.1 1.7-.2 3.4-.5 5-.3 1.3-.6-.3-.5-.9.5-4.8-.1-9.8-.4-14.8.1.2.2.2.2.3 1.2 1.4 3.7 2.2 5.3 2.9 2.2 1 4.4 1.7 6.7 2.4 4 1.3 8.1 2.3 12.2 3.1 1.9.4 4.2.8 6.1 0 1 0 2 0 2.9-.2.4-.1.8-.2 1.2-.4 2.4-.3 4.9-2.9 6.7-4.3 1.3-1 2.6-2.2 3.5-3.6-.2 3.7.2 7.7.3 11.3-.1.7-1.3 4.4-1.4 3.3z"/><path class="tv-st3" d="M31.6 21.8c0-.1-.1-.2-.2-.3.1-2.9-5.5-3.2-7.5-3.8-4-1.3-7.9-2.8-11.9-4.1l-.1-.1c-4-2.8-4 12.1-4.1 14 0 3 3 3.6 5.3 4.6 3.2 1.4 7.4 3.1 11.1 3 .1 0 .3.1.4.1.3.2.7.3 1 .3 1.9.5 3.4.9 4.7-1.5.9-1.6 1-4.2 1.2-6 .3-2 .4-4.3.1-6.2zM33.8 32.7c-.5-.2-.8-.3-1.3-.1-.5.2-.8 1.2-.8 1.7-.2 1.2.4 2.2 1.6 2.3 1.2.1 2.3-.8 2.4-1.9.2-1.3-.9-1.7-1.9-2zm-.1 2.8c-.7.2-1.1-.3-1.1-.9 0-.4.1-.8.3-1.1.1-.1.2-.2.3-.2 0 .2.1.4.4.4.4.1 1 .2 1.2.6.2.6-.6 1.1-1.1 1.2zM43.5 19.7c0-.7-1.1-.7-1.2 0 0 2.4.1 4.8 0 7.2-.1 1.1.1 2.3.3 3.4.1 1-.2 1.2.2 2.1.1.2.4.1.3-.1 0-4.2.4-8.4.4-12.6zM45.5 19.2c0-.4-.6-.4-.6 0-.2 3.7-.6 7.4-.2 11.1 0 .2.3.2.3 0 .4-3.7.7-7.4.5-11.1zM47.6 17.6c0-.5-.8-.5-.8 0 0 3.4-.7 7.1-.1 10.5 0 .1.2.1.3 0 .7-3.4.7-7 .6-10.5z"/><path class="tv-st0" d="M27.9 20c-3.6-1.2-7.2-2.5-10.9-3.3-1.7-.4-3.3-1.1-4.8-1.9-.7-.3-1-.5-1.5.1-1.6 1.4-1.2 4.2-1.4 6.1-.2 2-.4 3.9-.5 5.8 0 .7.3 1.3.9 1.6.2.1.3-.2.1-.3-1.6-.8-.1-5.7-.1-7.1.1-1.5-.1-4.4 1.2-5.6.1 0 .1 0 .2-.1.5-.5 2.9 1.2 3.5 1.4.7.3 1.4.5 2.1.8.1.3.2.7.3 1-.1.1-.1.2-.1.3.1.1.1.3.2.4.1.7.4 1.3.7 2 .5 1.9.7 4 1.3 5.8.6 2 .9 4.1 2 5.8-.1.2 0 .6.3.6s.5.1.8.1c.8.4 1.7.6 2.4.9.2.1.5.1.6-.1.7-.9.2-1.8-.1-2.8-.9-2.5-1.5-5-2.2-7.6-.5-1.7-1-3.8-1.8-5.3 2.2.7 4.4 1.6 6.7 1.9.4.3.5-.4.1-.5z"/></svg>
