<svg xmlns="http://www.w3.org/2000/svg" viewBox="0 0 248.8 226.4"><style>.win-st0{fill:#333333;}</style><path class="win-st0" d="M226.2 176.1c0 .1.1.3.1.4M225.8 178.2l-.3.6M233.5 161.4c-.6 0-1.2.1-1.8.1-.1-.2-.3-.4-.5-.4-1.2-.2-2.5-.6-3.7-.6-1.4-.1-2.8.1-4.2.1-3 .1-6 .3-9 .4-1 .1-2.1.1-3.1.1.1.5 0 1.1-.4 1.5 1 0 1.9 0 2.9.1l9 .4 4.2.2c1 .1 2.1-.2 3.1-.4 1.1.1 2.1.2 3.2.3M116.1 70c0-.1-.2-.3-.4-.3-.3 0-.5 0-.8.1-.3.1-.6.4-.7.6-.2.3.2.5.4.2.2-.2.3-.3.5-.3h.3v.1c.1.2.4.2.5 0 .2 0 .2-.2.2-.4zM118.1 69.4s0-.1 0 0c-.1-.2-.3-.2-.4-.2-.2 0-.3.1-.3.3v.4c0 .2.1.3.3.3h.2c.2 0 .3-.1.5-.2.2-.3 0-.6-.3-.6zM113.2 69.6h-.3c-.2 0-.2.1-.3.2v.3l.1.1c.1.1.1.1.2.1s.3 0 .4-.2c.1-.1.1-.4-.1-.5zM117.3 72c-.6-.2-1.3 0-1.9.2-.8.2-1.7 0-2.5.3-.1-.1-.3-.1-.4 0-.2 1.4.2 2.8 1.5 3.5 1.4.9 2.9-.1 3.6-1.3.4-.6.6-2.4-.3-2.7zm-.2 1.6c0 1.3-1.4 2.3-2.6 2-1.3-.4-1.4-1.5-1.6-2.5.8-.3 1.7-.1 2.5-.2.4 0 .8-.1 1.2-.1.6-.1.5.4.5.8zM86.5 98.9c0-.1-.1-.2-.3-.2-.1 0-.2.1-.2.1-.1 0-.1.1-.2.1-.1.1-.1.2-.1.3v.1c0 .2.1.3.3.3.1 0 .2 0 .4-.1.1-.1.2-.2.3-.2.1-.1 0-.3-.2-.4zM82.3 98.6c-.2 0-.4.1-.5.4 0 .1-.1.1-.1.2s.1.2.2.3c.1.1.2.2.4.2s.3-.1.3-.3l.1-.1c.1-.2-.1-.7-.4-.7zM84.6 101c-.3-.1-.6-.2-1-.2-.7 0-.7 1 0 1 .3 0 .6.1.9.2.3.1.8 0 .8-.5 0-.3-.4-.4-.7-.5zM86.3 103.4c-.2-.1-.4-.1-.7-.1-.4 0-.7 0-1.1-.2-.6-.2-1.4-.1-2-.1-.2 0-.3.1-.3.3-.1-.1-.2-.2-.2-.3-.1-.1-.3 0-.3.1 0 .9 1.1 1.8 1.8 2.2.9.6 1.8.5 2.6-.2.6-.3 1-1.2.2-1.7zm-.4 1.3c-.1.1-.5.4-.6.5-.7.5-1.7-.2-2.3-.6-.3-.3-.5-.6-.7-.9h.1c.7 0 1.6-.1 2.3.2.3.1.6 0 .9 0 .6.2.7.5.3.8zM90.2 91.1c-.3.1-.6.2-.9.2h-.1c0-.6 0-1.2-.4-1.6-.1-.1-.4 0-.3.2.3.5.1 1.4 0 2-.1.3.1.5.4.5.1 0 .3 0 .4-.1.1-.1.3 0 .5 0 .4 0 .9-.1 1.1-.5.2-.3-.2-.9-.7-.7zM92.2 89.3c-.1 0-.2-.1-.3-.1-.2 0-.4.2-.4.4 0 .3.2.5.5.5s.5-.2.6-.4c.2-.2-.2-.6-.4-.4zM87.5 90.6c-.1-.1-.2 0-.3 0-.3 0-.4.3-.4.5 0 .1 0 .2.1.2 0 .2.2.3.4.2h.1c.2 0 .4-.3.4-.5-.1-.1-.2-.3-.3-.4zM70.9 66.7c0-.1 0-.3-.1-.4-.1-.1-.3-.1-.5-.1s-.4.3-.4.5v.2c0 .2.2.4.4.4s.4 0 .6-.1c.1 0 .1-.3 0-.5zM66.5 66.7c-.1-.1-.2-.2-.4-.3-.2 0-.4.1-.6.1-.1.1-.2.2-.1.4 0 .1.2.2.3.2.1 0 .1.1.2 0h.3c.1 0 .2-.1.2-.1h.1c.1-.1.1-.2 0-.3zM68 68.3c-.1 0-.3-.1-.4-.1-.1-.1-.2-.2-.3-.2-.3 0-.5.1-.7.3-.3.3.1.7.5.5.2.2.6.2.9.1.3-.1.3-.5 0-.6zM70.1 70.8c-1.2.1-2.4.5-3.7.2-.1 0-.3.1-.3.2 0 .2 0 .3.1.4-.1 0-.2 0-.3.1-.2.7.2 1.1.7 1.6.4.4 1.5 1.1 2 .9 1.5-.5 1.9-2.1 1.9-3.5 0-.2-.4-.2-.4.1zm-.9 2.6c-.6.7-1.4.2-2-.3-.3-.2-.5-.5-.7-.7.1 0 .1-.1.1-.1-.1-.3-.1-.5-.1-.8 1.1.2 2.4-.1 3.5-.2-.1.7-.3 1.6-.8 2.1zM56.7 95.2h-.2c-.4 0-.4.5 0 .5h.2c.4.1.4-.5 0-.5zM53 96.1c0-.1-.1-.2-.2-.2-.1-.1-.1-.1-.2-.1-.2 0-.3.1-.3.3 0 .2.2.5.4.5.3 0 .4-.3.3-.5zM55 98c-.1.1-.3.1-.5.1-.2.1-.5.1-.7.2-.3.1-.3.4-.1.5.1.1.2.1.2.1.2.1.5.1.7.1.3 0 .6-.1.8-.3.4-.4 0-1-.4-.7zM57.1 100.6c-.3-.3-.9-.2-1.3-.2-.8 0-1.5.2-2.3.5-.4.2-.1.8.4.6.8-.4 1.7-.4 2.7-.4.4 0 0 .9-.1 1-.2.3-.2.5-.6.6-1.1.3-2.2-.8-2.6-1.7-.1-.2-.4-.1-.4.1 0 1.4 2.7 2.9 3.8 1.8.5-.5 1.1-1.6.4-2.3zM46.3 82.5c-.2-.2-.6-.1-.7.1-.1.2-.1.5.1.6.1 0 .2.1.2.1h.1s.3-.1.1 0h.1l.1-.1c.1 0 .1-.1.2-.1.2-.2 0-.6-.2-.6zM41.5 83.4c-.1-.3-.6-.3-.6.1V83.8c-.2 0-.3.1-.3.3 0 .1 0 .3.2.3.3.1.5-.1.7-.3V84c.3 0 .3-.5 0-.6zM44.8 85.6c-.5-.2-1 .1-1.5.3h-.1c-.2.1-.1.4.1.5.5.2 1.1 0 1.5-.2.3-.2.2-.5 0-.6zM43.6 88.1c-.2 0-.2.4 0 .4.3 0 1.7-.6 1.9-.3.1.2-.2.7-.3.8-.2.3-.5.3-.8.2-.5-.1-1-.6-1.3-1-.1-.1-.4 0-.3.2.4.6 1 1.1 1.7 1.2.7.1 1.2-.5 1.4-1.1.3-1.4-1.8-.4-2.3-.4zM53.6 161.1c0-1.8.2-3.7.1-5.5 0-.3-.4-.3-.5 0l-.3 5.1c-.1 1.7-.5 3.4.1 5 .1.1.3.2.3 0 .1-.6-.1-1.3 0-2 .1-.9.3-1.8.3-2.6zM143.5 95.9h-.9c-.6 0-.6.9 0 .9h.9c.5-.1.5-.8 0-.9zM146.1 94.2l-.1-.1c-.1-.2-.3-.4-.6-.4s-.4.4-.4.6c0 .2.1.5.3.6.3.2.6-.1.8-.3.1-.2.1-.3 0-.4zM140.8 93.7c-.1.1-.2.2-.2.3v.4c0 .2.1.3.3.3.2 0 .4-.1.5-.3.1-.1.1-.3.1-.5-.1-.2-.5-.4-.7-.2zM144.8 98.3c-.6-.1-1.2-.1-1.8-.1-.6 0-1.2-.2-1.8-.2-.4 0-.4.6 0 .7.3 0 .6.2.9.2h.9c.6 0 1.2 0 1.8-.1.3 0 .3-.5 0-.5zM152.6 80.2c-.3 0-.6.2-.9.2-.5 0-.5.8 0 .8.2 0 .4 0 .6-.1.1 0 .1-.1.2-.1h.1c.5 0 .5-.8 0-.8zM154.4 78c.1-.1.1-.3 0-.4-.1-.1-.3-.1-.4 0-.1.1-.2.3-.3.5-.1.2 0 .5.3.5h.2c.2 0 .3-.1.3-.3 0-.2 0-.2-.1-.3zM151.2 78.9c0-.2-.1-.3-.3-.3-.2 0-.4.1-.5.3-.1.1-.1.3 0 .4.1.2.4.2.5 0v-.1c.2-.1.3-.2.3-.3zM155.5 83.5c-.1-.5-.2-1-.5-1.4-.3-.4-.8-.2-1.2 0-.5.3-1.2.2-1.7.6-.4.3-.4.7-.2 1 0 .6 0 1.4.4 1.7v.1c.5.9 1.7.5 2.4.2.3-.2.7-.4.8-.8.3-.4.1-.9 0-1.4zm-.8 1.6c-.3.2-.9.5-1.4.4 0-.1-.1-.3-.2-.2h-.2-.1c-.4-.3-.3-1.5-.3-1.9.3-.3 1.1-.3 1.6-.5.2-.1.5-.3.5-.2.2.3.2.6.3.9.1.4.3 1.1-.2 1.5zM133.5 90.2c-.1-.1-.2-.1-.3-.1-.2 0-.3.1-.3.3-.1 0-.1.1-.1.2s0 .3.2.3.3 0 .5.1c.1 0 .2 0 .2-.1.1-.1.2-.2.2-.3.1-.2-.1-.5-.4-.4zM137.8 91c0-.1 0-.1 0 0-.1-.1-.2-.1-.3-.1h-.2c-.1 0-.2.1-.3.3 0 .1 0 .1-.1.2 0 .2.1.3.3.3.1 0 .3 0 .4-.1.1-.1.1-.2.1-.2.3-.1.3-.4.1-.4zM134.7 94.1c-.2-.1-.5-.2-.8-.3-.3-.1-.5-.2-.8-.4-.3-.1-.6.3-.3.5.5.3 1.2 1 1.8.7.3 0 .3-.4.1-.5zM134.8 95.8c-.4-.3-.9-.1-1.3-.3-.5-.2-.9-.8-1.4-1.1h-.2c0-.1-.3-.2-.3 0-.1.9.3 1.8.8 2.5.6.7 1.5.9 2.4.5.7-.3.6-1.2 0-1.6zm-1 1.1c-.4 0-.7-.2-1-.4-.5-.4-.7-.9-.8-1.5.5.3.8.8 1.3 1.1.4.2 1.2 0 1.3.5 0 .3-.7.3-.8.3zM177.6 80.5v-.2c0-.1-.1-.2-.2-.2 0-.1-.1-.1-.2-.1s-.2 0-.3.1c-.1.1-.1.2-.1.3v.2c0 .1.1.3.2.3l.1.1c.2.2.6 0 .6-.2 0-.1-.1-.2-.1-.3zM159 114.1c-.2-.2-.7-.3-.9 0-.1.1-.1.1-.1.2-.2 0-.3.2-.3.4s.2.4.4.4h.3c.2 0 .3 0 .4-.1.1 0 .1-.1.2-.2.1-.3.1-.5 0-.7zM154.7 114.6c0-.2-.1-.3-.3-.3h-.4c-.2.1-.3.3-.4.5 0 .2.2.3.3.4.1.2.3.2.5.1l.2-.2c.1-.1.1-.2.1-.2-.1-.2-.1-.2 0-.3zM156.3 116.8c-.4 0-.7.1-1.1.3-.2.1-.3.4-.2.6.1.2.4.2.6.2.1-.1.3-.1.4-.1H156.3c.5-.1.5-1 0-1z"/><path class="win-st0" d="M230.2 202.6c-.9-.4-2-.1-3-.5h-.1c.1-.1.1-.2.1-.3.3-1.2.2-2.4.2-3.6v-3.9-7.9c0-5.4-.1-10.8-.4-16.2 0-.4-.3-.5-.6-.5-.1-.1-.3-.2-.5-.3-5-.3-10.1-.4-15.1-.5.4-1.6.8-3.1.8-4.8v-1.7c0-.6.2-1.1.3-1.6.1-.3-.1-.7.2-.7h.1s.1.1.2.1c.3.1.5 0 .6-.2h.2c.3-.1.4-.3.5-.6 0 .3-.1.4.2.1.2-.2.5-.4.7-.7.4-.4.7-1 1-1.5.6-1.1 1.3-2.2 1.7-3.3.5-1.4.9-2.8 1.3-4.2.4-1.5.2-3.1.3-4.7 0-.2 0-.3.1-.5.2-.6.4-1.1.5-1.7.2-.6.4-1.2.4-1.9 0-1.2 0-2.4.1-3.6 0-1.1 0-2.7-.7-3.6-.1-.2-.1-.5-.2-.7 0-.2 0-.4-.1-.6 0-.4-.1-.8-.1-1.1.1-1.2-.4-2.6-.6-3.6-.1-.7-.3-1.3-.5-2-.1-.4-.1-.9-.2-1.3-.1-.3-.1-.6-.2-1 0-.5-.1-1-.1-1.5-.1-1.5-.4-2.9-1.4-4.1-.9-1-2.3-1.7-3.5-2.4-1-.6-2-1.1-3-1.6-.3-.2-.5-.4-.7-.6-.4-.4-.7-1-1.1-1.3-.5-.3-.8-.8-1.3-1-.3-.1-1.4-.3-1.2-.9.1-.2.3-.3.5-.5.2-.4.4-.8.5-1.1.5-1.1.7-2.5.6-3.7-.1-.6-.3-1.2-.3-1.8 0-.4.1-.8.1-1.3.1-.9.1-2.4-.7-3.1 0-.1-.1-.3-.3-.3h-.9c-.4.1-.7.2-1.1.5 0 0-.1 0-.1.1 0-.1-.1-.2-.1-.3-.2-.3-.6-.6-1-.5-.1 0-.2.1-.2.1-.2-.2-.3-.4-.4-.5-.8-.9-2.1-1.1-3.2-1.4-.6-.1-1.5-.7-2.4-.9.1-2.5.2-5.3-.6-7.6-.5-1.4-1.1-2.8-1.5-4.3-.4-1.4-1.1-2.7-1.3-4.3-.2-1.4 0-2.9-.3-4.3-.2-1.6-.8-3.1-1.3-4.6-.4-1.3-.8-2.6-1.4-3.9-.6-1.4-1.5-2.7-2.2-4-.5-1-1.3-2.3-2.2-3-1.2-.8-1.1-1.7-1.5-2.9-.3-.9-.4-1.8-.4-2.7.1-.4.2-.8.1-1.2 0-.7-.2-1.1-1-1.4-.4-.2-1-.3-1.3-.6-.5-.4-1.2-.3-1.8-.6-.8-.4-1.7-.4-2.4.3-.5.5-.7 1.4-.8 2.1 0 .4 0 .8.1 1.2.1.7 0 1.2-.2 1.9-.5 1.9.9 2.9 1.7 4.4.4.7 1 1.3 1.4 2 .6.8.9 1.8 1.3 2.7.4.8.9 1.6 1.3 2.4.5.8.7 1.7 1.2 2.6l1.2 2.4c.4.9.6 1.8.6 2.8-.1-.2-.2-.4-.4-.6-.4-.4-1.1-.5-1.7-.7-.6-.2-1.2-.2-1.8-.4-.4-.1-.7-.2-1.1 0-.2.1-.4.4-.5.6h-2c-.5 0-1.1.1-1.4.5-.2.1-.2.4-.2.6 0 .5.2.9.5 1.3-.7.2-1.2.7-1.7 1.5-.4.6-.9 1-1.2 1.6-.2.4-.5.7-.6 1.1-.1.1-.1.3-.1.4-.4.2-.7.7-.7 1.1-.1.2-.1.4-.1.6.1.5.7.6.6 1.1-.1.5-.3.9-.4 1.4-.1-.1-.2-.1-.3-.2v-.1c-.2-.3-.5-.6-.9-.7-.1-.1-.2-.3-.3-.4.1-.2.2-.6.2-.8-.1-.3-.2-.5-.3-.7v-.4c-.3-1.5-1.8-2.2-2.7-3.2-.8-.8-1.4-1.5-2.6-1.7-.7-.1-1.2 0-1.2-.7 0-.4-.1-.8-.4-1.1-.2-.2-.4-.1-.5 0 0-.4 0-.7-.1-1.1-.4-.8-.4-1.7-1.2-2.2-.3-.2-.6-.4-.6-.9 0-.4 0-.8-.1-1.2-.2-.5-.6-.8-1.2-.9-.8-.2-1.4-.2-2.2-.5-.3-.1-.6-.1-.8-.1-.3.1-1.1.6-1.3.4-.9-.4-1.3-.9-2.3-.9-.7 0-1.2 0-1.9.4-.4.3-.7.6-.9 1.1-.3.4-.6.8-.8 1.2-.3.1-.6.3-.8.5-.4.6-.6 1-.4 1.7.2.7-.4 1.2-.6 1.8-.2.6-.2 1 0 1.6.1.2.1.4.3.6 0 .2.1.4.2.6.2.2.3.4.5.7.2.3.1.9.1 1.3 0 1.4.9 2.9 1 4.3 0 .2.1.4.2.6.3.5.3 1 .5 1.5.1.4.3.9.5 1.3.1.3.2.6.4.8-.7.3-1.3.7-1.9 1.1-.1.1-.2.1-.3.2-.5.2-1.1.4-1.6.1-.5-.2-.8-.8-1.1-1.3-.3-.5-.6-1-1.3-1.1-.3 0-.5 0-.7.1-.1-.2-.2-.3-.4-.1-.3.2-.6.4-.8.7-.3-.5-.3-1.5-.5-1.9-.2-.8-1.3-1.6-1.4-2.4 0-.5-.2-.9-.6-1.1-.6-.4-.6-1-1.2-1.5-.3-.2-.5-.2-.8 0-.9.7-2.1.6-3 1.2-.3.2-.7.3-1.1.4.2-2.9.6-5.8.5-8.7 0-.8-.1-1.7-.1-2.5v-.3c0-.8 0-1.6-.2-2.4-.1-.4-.2-.8-.2-1.2-.1-1-.3-2.1-.4-3.1-.1-.6-.1-1.1-.2-1.7-.1-1.3 0-2.6 0-3.9 0-.5 0-1.1-.1-1.6 0-.5 0-1-.1-1.5-.1-.4-.1-.8-.2-1.2v-.6c.3 0 .6-.3.6-.7 0-.8 0-1.7-.2-2.6.1-.5.2-1.1.2-1.6 0-1.4-1-2.6-1.1-3.9 0-.2-.1-.3-.2-.4 0-.1.1-.2.1-.3.3-1 .6-2 1.1-2.8.4-.6.7-1.3.7-2.1 0-.1 0-.2-.1-.3v-.4c0-.3-.3-.5-.6-.4-.7-.5-1.1-1.1-1.8-1.6-.8-.6-1.7-1-2.4-1.7-1.6-1.4-3.5-2.3-5.2-3.6-1.6-1.5-3.2-2.9-4.9-4.2-.7-.5-1.3-1-2-1.5-.9-.7-1.8-1.4-2.7-2 0-.2-.3-.3-.5-.2-1.4 1.2-3.1 1.9-4.5 3.1-.7.6-1.3 1.3-2 2l-2.4 2.1c-1.6 1.5-3.2 3-4.7 4.5-1.2 1.2-2.5 2.4-3.6 3.7-.1-.1-.3-.1-.4.1-.1.2-.1.3-.1.5-.1 0-.1.1-.1.2l-.1.1c-.3.4.1.9.5.9.5 1.1 1 2.1 1.5 3.1-.1 0-.2.1-.3.2-.6.4-.6 1.3-.7 1.9-.1 2.9-.1 5.8 0 8.8.1 2.9.3 5.8 0 8.8-.3 2.9-.2 5.8-.2 8.6 0 1.4.1 2.9.1 4.3s-.4 2.7-.6 4.1c-.1 1.2-.2 2.5.1 3.7.2.7.5 1.3.7 2 .2.7.2 1.5.2 2.2 0 1.3 0 2.5.3 3.8.2.7.3 1.4.5 2.1-.1.6-.2 1.1-.2 1.7 0 .8 0 1.5-.2 2.3h-.4c-.7-.1-1.3-.1-1.9 0 .1-.2.1-.4.2-.5.4-.2.7-.5.9-.9.5-.3.9-.7.4-1.2 0-.2.1-.4.1-.5 0-.2-.2-.4-.4-.5-.2-.1-.4-.2-.7-.2-.1 0-.2-.1-.2-.2 0-.6.2-1.4.2-1.7 0-.3-.1-.7-.2-1.1v-.1c-.1-1.3-.5-2.8-.8-4.1-.4-1.3-1.2-2.1-2.1-3-.2-.2-.4-.3-.6-.5-.4-.3-.4-1-.6-1.4-.1-.3-.2-.5-.2-.8-.3-1.5-.4-3-.6-4.4-.3-2.2-.5-4.2-.5-6.4 0-1-.2-1.9-.4-2.9-.2-1.2-.2-2.3-.2-3.5v-2.9c0-.8-.2-1.8 0-2.6 0-.2.1-.3.1-.5v-.1c.6-1.1.8-2.1 1.2-3.3.3-.9.7-2.2.4-3.1-.4-1.1-1.7-.4-2.3.1-.4.3-.9.8-1.2 1.3-.4.6-.6 1.2-.8 1.8-.3-.2-.6-.7-.8-.9-.4-.3-.7-.4-1.1-.3-1.2.2-1.2 1.7-1.5 2.7-.5 0-1 .4-1.4.8-.3.4-.9.8-1 1.3-.1.8 0 1.5-.2 2.3-.2.8-.1 1.3.1 2 .3 1 .6 1.9.6 3 0 .9.3 1.8.2 2.8 0 1.1-.1 2.3 0 3.4.1.8.3 1.6.3 2.4 0 1-.1 1.9-.3 2.9-.1.2-.3.4-.5.4-.3-.1-.7 0-1.1-.1-.7-.2-1.5-.1-2.2-.1-.6-.1-1.1-.1-1.7-.2h-.1c-.9-.3-1.8-.4-2.6-.8-.3-.3-.5-.6-.4-1.1.2-.5.4-1 .5-1.5.1-.1.2-.3.2-.4.2-.3.2-.6.3-1 .9 0 1.6-.4 2-1.4.3-.6.2-1.2-.1-1.6 0-.4-.1-.7-.2-1.1-.2-.8-.1-1.5.1-2.2.3-1 .6-1.9.4-3-.1-.4-.5-.5-.8-.4-.1-.4-.3-.7-.4-1-.3-.6-.7-1.2-1.1-1.8-.5-.7-1.3-1.1-1.9-1.8-.5-.5-.9-1-1.3-1.5-.7-.7-1.8-1.7-2.9-1.6-.5.1-.8.4-.9.9-.1.2 0 .8-.3.8-.4 0-.9-.1-1.3 0-.2 0-.3.1-.4.2-.1 0-.2 0-.3.1-.2 0-.3.2-.4.4v.6c-.2.3-.7.5-.9.9-.4.7-1 1.2-1.4 1.9-.4.8-.4 1.8-.4 2.6 0 .9.3 1.8.4 2.8.1 1.3 0 2.6 0 3.9v3.1c-.3-.7-.6-1.4-1-2-.8-1.3-.8-2.9-1-4.4-.2-1.4-1.5-2.4-2.2-3.5-.8-1.4-1.1-3.3-1.6-4.9-.5-1.8-.7-3.7-.9-5.5-.1-.8-.3-1.6-.5-2.4-.2-.9-.1-1.8-.3-2.7-.6-.5-.7-1.3-.7-2.1 0-1-.1-1.8-.2-2.8-.1-.5-.1-1-.1-1.5.2-.4.3-.7.4-1 .2-.6.3-1.1.3-1.7v-.2c0-.8.1-2-.4-2.8-.2-.3-.5-.6-.7-.8-.3-.3.1-1.4 0-1.8-.5-1.6-3.2-1.4-3.4.3-.1.4-.6.3-.9.3-.6.1-.9.4-1.4.8-.6.7-1.5 1.3-1.9 2.1-.5.8 0 1.8.2 2.6.1.4.1.7.2 1.1-.1-.1-.2-.1-.3-.2-.3-.1-.5.4-.2.5.7.4.5 1.5.9 2s.4.3.5 1c.1.7.1 1.5.1 2.2 0 1.2.2 2.4.4 3.6.2 1.3.1 2.7.1 3.9 0 1.2 0 2.4.1 3.5s.3 2.2.5 3.3c.1 1.2.2 2.4.4 3.6 0 .5.1 1 .1 1.5 0 1.4 0 2.8.3 4.2.2 1.1.7 2.1.7 3.2 0 1.3-.2 2.3.5 3.4 1.4 2.2 2.3 4.7 3.2 7.1l.6 1.8c.2.6.6.7.2 1.4-.2.3-.5.7-.5 1 0 .3.2.8-.2.8-1.2-.1-1.8.5-2.8.9-.6.3-1.2.5-1.9.6.1-.4.2-.7.2-1.1h.1c.6-.3 1.7-.7 2-1.4.3-.5.3-1.3.2-1.8v-1.2c0-.3-.3-.6-.6-.6-.4 0-.9 0-1.3.2.2-.9.5-1.8.6-2.7.2-1.6-.7-2.8-1.7-4-.6-.7-1-1.4-1.5-2.1-.4-.6-.8-1.1-1.4-1.3-.5-.2-1.1.3-1.4.7-.5.7-1 1.1-1.8 1.3-.1 0-.2 0-.3-.1-.4-.1-.7 0-1 .2-.2.2-.3.3-.3.5-.2 0-.5-.1-.7-.2-.7-.3-1.3-.3-1.9.2-1 .8-1.1 2.6-1.3 3.7-.2 1.7.1 3.1.7 4.7.2.5.3 1.1.4 1.7-.1-.4-.3-.8-.5-1.1-.8-1.3-1.2-2.6-1.3-4.1-.1-1.4.4-2.8.7-4.2.3-1.3.4-2.5.8-3.7.5-1.3.9-2.6 1.4-3.8.3-.7.6-1.3 1-1.9.1-.3.2-.6.2-1 .7.1 1.5-.1 2.2-.5.5-.3.9-1.1 1.2-1.6.5-.4.9-.9 1.3-1.4l.1-.1c.8-.4 1.5-1.1.9-2 .1-.4.1-.8 0-1-.3-.8-1.3-.9-2-1.4-1.6-1.1-3.4-.8-4.8.5-.2.1-.3.3-.4.4-1.8 2-3.1 4.5-4.1 6.9l-.3.6c0-.4-.1-.8-.5-1.1-.2-.2-.5-.5-.8-.7-.5-.3.1-1.3 0-1.8-.1-.4-.5-.9-.9-1.2-.1-.3-.3-.4-.7-.4-1-.5-2.2-.5-2.5.9-.1.2-.1.4-.3.4h-.6c-.4-.1-.8 0-1.1.2-.9.5-1.6 1.4-2 2.3-.6 1.2-.3 2.3-.5 3.5-.3 1.6-.2 3.1 0 4.8.1 1.5.1 2.9.4 4.4.3 1.6.9 3.1 1.3 4.7 0 .1.1.2.1.4 0 .1 0 .3.1.4.2 1.3.2 2.6.3 3.9.2 1.5.8 2.9 1.3 4.4.9 2.7 1.8 5.4 3.4 7.9.8 1.3 1.7 2.4 2.4 3.8.6 1.2 1.2 2.5 2.1 3.5.1.1.2.2.3.2.4.7.8 1.3 1.1 2.1 1.2 3 1.2 6.3 2.4 9.2 2.3 5.7 1.6 12.2 0 18-.8 3.1-1.7 6.1-2.3 9.3-.3 1.6-.6 3.1-1 4.7-.2.8-.5 1.5-.7 2.3-.2.6-.2 1.4-.4 2.1-.1.6-.3 1.3-.5 1.9-.3.6-.3 1.5-.5 2.2-.3 1.4-.8 2.8-1.2 4.2-.4 1.3 0 2.6-.5 3.9-.4.8-.3 1.6-.2 2.4h-2.4c-2.2 0-4.5.3-6.7.4-1.4-.1-2.8-.1-4.2-.1-.5 0-.5.8 0 .8 1.4.1 2.8 0 4.2-.1 1.7.1 3.3.3 5 .3 1.3 0 2.7.1 4.1.1.1.2.3.4.6.5.7.2 1.2 0 1.4-.5 3.5.1 7 .2 10.5.2 7.3 0 14.5.1 21.8.1 14.2.1 28.4.1 42.7.2.1.4.3.6.8.7.3 0 .5-.3.4-.6v-.1c28.9.1 57.9.1 86.8 0 3.7 0 7.5 0 11.2-.1.4.3.8.2 1 0 5.2-.1 10.4-.2 15.6-.5h.1c-.2 5-.3 10-.3 15v11.8c0 1.3-.1 2.7.2 4 0 .1.1.2.1.3.1.2.3.3.6.3-.1.2 0 .5.2.6 1 .4 2.6.8 3.6.3 0 .2 0-.3-.3-.4zm-82.1-127c0-.1 0-.1 0 0 0-.2.1-.4.2-.5 0 .1-.1.3-.2.5zM50.2 86l.6-.6c0 .3-.1.6-.2.8-.2.4-.5.5-.8.7v-.5c.2-.1.3-.3.4-.4zm161.1 73.1c0-.2 0-.4.1-.5.1.1.1.3.2.4-.2 0-.2 0-.3.1zm6.3-28.1c0 .1.1.3.1.5v.2c-.1.4-.4.8-1 1.1-1 .5-2.1 1.2-3.2 1.1.7-.3 1.4-.6 2-.9.3-.2.6-.7.9-.9.3-.5.7-.8 1.2-1.1zm-22.4-35.9c0-.5 0-1 .1-1.5 0 .5.1 1.1.1 1.6-.1 0-.2 0-.2-.1zM195 97c0-.1 0-.1 0 0 .2-.4.5-.3.9-.1-.1 0-.2.1-.2.2 0 0-.1 0-.1.1-.1-.2-.5-.2-.5.1v.1c-.1 0-.2.1-.2.1 0-.3 0-.4.1-.5zm1.2 1c1-.7 1.6-.2 2.6.2.4.2.7.2 1.1.4.5.3.9.7 1.3 1.2.2.2.5.2.7.1.3.2.6.4 1.1.5h.2c.3.1.7-.1.9-.2.1 0 .1-.1.2-.2.2-.1.4-.1.5.1.1.2.1.4.1.7 0 .1-.1.2-.1.3-.3-.2-.7.2-.6.5.2.6.5 1.1.6 1.6 0 .4.1.7.1 1.1 0 .2-.1.4-.2.6-.4.9-.4 1.8-.4 2.7 0 .5.1 1.3-.6 1.5-.3.1-.5.3-.7.5-.3.4-.4.8-.4 1.3h-.2c-.1.1-.3.1-.4.2h-.3c-1.1 0-1.4-.3-1.7-1.4-.2-.5-.3-1-.7-1.4-.3-.3-.8-.3-1.2-.4.5-.8.5-1.7-.4-2.4-1.6-1.1-2.7.4-3.4 1.8-.4-.7.6-1.9.8-2.4.3-.8-.1-1-.3-1.7 0-.2-.1-.5 0-.7 0-.3-.2-.7-.2-1 0-.5-.1-.7-.4-1.2-.6-.9-1.2-.8-2-.7.1-.2.2-.3.4-.5s.2-.5 0-.6l-.3-.3c.6 0 1.3.1 1.9.3.7.2 1.4-.1 2-.5zm7.4 13.1s0 .1 0 0c-.1 0-.1-.1-.1-.2.1.1.1.2.1.2zm-7.4 23.3h-.1c-.3-.1-.5-.1-.8-.2-.1-.1-.1-.3-.1-.7.1-.3.1-.7.1-1.1 0-1.2 0-2.3.2-3.5.1-1 .3-2.1.7-3.1.3-1 .8-1.9 1-3 .5-2.1 1.4-4.1 2.3-6.1.5-1 1.1-1.9 1.6-2.9.1-.1.1-.3.2-.4.3-.4.5-.8.7-1.1.1-.1.1-.2 0-.3 0 0 0-.1.1-.1h.9c.1 0 .2 0 .2-.1-.4 1.8-1.9 3.4-2.4 5.2-.6 2-1.7 3.7-2.1 5.7-.2 1-.3 2-.6 3-.3 1.1-.7 2.1-1.1 3.1-.3.9-.6 2-.6 2.9 0 .4-.2.8-.2 1.3.1.5.2 1.2 0 1.4zm-5.3-23.9c-.4-.5-1.1-.4-1-1.3 0-.5.2-1.2-.1-1.7-.1-.2-.3-.3-.5-.3-.3-.1-.6.1-.5-.2.2-.9.9-1.8 1.6-2.5.4-.4.3-.8.3-1.3 0-1 .7-1.4 1-2.3.1-.2 0-.4-.1-.5.6-.1 1.1-.3 1.6.1s.4.8.5 1.3c.1.5.2 1 .3 1.4.2.6.8.9.5 1.5-.4.9-1.4 2.2-.4 3 .1.1.3 0 .3-.1.4-.7.7-1.4 1.4-1.8.8-.5 1.8.3 1.7 1.2-.1.5-.8 1-1.2 1.2-.6.2-.2 1 .3.8.3-.2.7-.4 1-.7.6.4 1.2.3 1.4 1.2.2.7.2 1.3.7 1.9.3.4.8.5 1.4.5-1 .5-1.6 1.7-2.3 2.4-.6.6-3 2.6-3.6 1 .3-.1.7-.2 1-.5.4-.3.2-.9-.3-.8-.5.1-1 .3-1.5.4-.5.1-1 .1-1.6.3-.3.1-.5.2-.8.2-.1-.1-.3-.1-.3 0h-.1c-.7 0-.8-1.4-.9-1.9v-.1c.2-.5.7-.9.7-1.4.1-.2-.1-.6-.5-1zm4.5 7.8c0-.4.1-.9.2-1.3.5.2 1.1.3 1.6.1.5-.2 1-.5 1.5-.8l-.1.1c-.6 1.1-1.1 2.3-1.6 3.4-.6 1.4-.6 3-1.2 4.4-.4 1.1-.7 2.2-.9 3.4-.1-1.6-.3-3.3.1-4.9.3-1 .1-2.1.4-3.1.1-.4 0-.9 0-1.3zm-.7-2.2c0-.1-.1-.1-.1-.1 0-.1 0-.2.1-.2v.3zm-.7 3.1c.3-1 .5-1.9.7-2.9v-.2c.1.3.3.5.6.7-.7 1.8-.3 3.9-.8 5.7-.2 1-.4 1.8-.2 2.8.2 1.5.1 2.9.2 4.4 0 .1.1.2.2.2v3.3c0 .3-.1.6-.1.9-.2.1-.3.2-.3.4-.5-.3-.3-1.1-.3-1.6 0-.8-.3-1.5-.4-2.3-.2-1.8-.4-3.5-.4-5.3.1-1.9.4-3.8.8-5.7v-.4zm-.7 13.3c.1.5 0 1 .2 1.5.1.4.2.6.3.8-.2.1-.4.2-.5.4-.2.2-.4.5-.5.8.1-1.5.2-2.9.3-4.3 0 .2.1.5.2.8zm.6 3.3c.1-.2.4-.5.7-.6h.4c.2.1.4.1.6.2.4.1.5.6.5 1 0 .9-.8 1.4-1.7 1.2-.6-.3-.8-1.2-.5-1.8zm-12.8-74.4c-.3-.6-.5-1.3-.9-1.9-.3-.6-.8-1.2-1.2-1.7-.4-.5-.7-1-1-1.6-.2-.3-.4-.5-.4-.9.7-.2 1.6-.8 1.6-1.3v-.6c.3-.2.5-.2.6.2-.1.3-.3.5-.5.8-.3.4-.5.9-.5 1.4 0 .3.5.3.5 0-.1-.8 2.3-2.7.4-3.1-.4-.1-1.2-.1-1.2.5 0 .4.1.7-.3 1-.2.1-.4.3-.6.4 0-.2 0-.5-.1-.7-.1-.3-.1-.6-.1-.9.3-.7 1-1.1 1.8-.7.8.4 1.3.7 2.2.7h.6c0 .1 0 .3-.1.4-.1.6-.1 1.1-.1 1.7-.2.5-.2 1-.1 1.6.1.5.5 1 .8 1.5.1.6.3 1.1.6 1.6.2.3.5.5.7.7.7 1.3 1.5 2.6 2.2 3.9.4.9.9 1.7 1.3 2.6.4.8 1 1.6 1.4 2.4 1 1.8 1.6 3.9 1.8 6 .1 1 .2 1.9.3 2.9 0 .5 0 1 .1 1.5s.2 1.1.3 1.6c.1.9.3 1.9.6 2.7.3.7.3 1.4.6 2.1-.7.3-1.3.9-1.9 1.2-1.1.6-2.8.2-3.9-.4.1-.5.1-.9.1-1.5-.2-1.5-.3-3.1-.6-4.6-.1-.7-.2-1.6-.3-2.5.1-.5.2-.9.3-1.3.4-1.1.7-2 .5-3.2-.3-1.5-.9-2.7-1.6-4-.7-1.4-1.3-2.8-1.9-4.2-.4-1.6-1.3-2.9-2-4.3zm2.6 7.8c.1.3.2.5.4.8.7 1.5 1.5 2.9 1.7 4.6v.5c-.1-.1-.2-.2-.3-.2 0-1-.1-1.9-.5-2.8-.4-1-.9-2-1.3-2.9zm-10.9 12.9c0-.3.5-.5.6-.7.1-.1.1-.2.2-.4.1-.1.2-.2.2-.3.1.1.3.1.5-.1.5-.8.7-1.8 1.3-2.4.2-.2.4-.5.7-.7.2-.1.4-.1.7-.1.3 0 .5-.2.5-.5.5.3 1.2.3 1.8.5.9.4 1.7.7 2.3 1.5.3.4 0 1.1-.1 1.5 0 .6-.2 1.4-.4 1.9-.3.7-.4 1.6-.2 2.3 0 .1.2.2.3.2.1 0 .2-.1.3-.1 0 .1.1.2.2.2.4 0 .7-.4 1.2-.4h.5c-.2.2-.3.4-.5.6-.4.5-1 .7-1.5 1-.4.2-.1.8.4.6.5-.2 1.1-.4 1.5-.8.5-.4.8-1 1.4-1.3.3-.2.3-.7-.1-.8-.6-.1-1.1-.3-1.7-.2h-.1c-.6 0-.9.5-1.3.8-.1-1.1.5-2.5.8-3.5.2-.7.4-1.5 0-2.2-.4-.7-1.2-1.1-1.9-1.4-.3-.2-.7-.3-1.1-.4-.3-.1-.6-.1-.9-.2.2-.3-.1-.7-.4-.8h-.3l-.2-.2c.2 0 .3 0 .4-.1.4-.3.5 0 .9.1s.8.1 1.2-.1l.3-.3h.4c1.1.3 2.2.8 3.3.8l.4.4c.1.1.3.1.5 0 .1.2.3.4.5.5 0 .4 0 .8-.1 1.1 0 .2 0 .4-.1.5-.1 1.6.1 3.2.3 4.8v.3c0 .3 0 .7.1 1 .1.9.3 1.6.1 2.5-.2.9-.7 1.6-1 2.4-.1.3-.2.6-.3 1-.1-.2-.4-.2-.5-.1-1.1 1.1-2 2.3-3.6 2.5-1.6.2-3.3.2-4.8-.5.1-1.2.1-2.5-.9-3.2.9-.2 1.9-.9 2.7-.7 1.4.3 3-.2 3.9-1.4.3-.4-.3-.8-.6-.5-.9.9-1.9 1.3-3.2 1.2-1-.1-1.6.3-2.6.6-1.5.5-1.6-1-1.6-2v-1.2c.1 0 .1-.1.2-.1.1.1.3.1.5.2.5 0 .9-.2 1.4-.1.2 0 .1.2 0 .3-.2.2-.4.2-.7.3-.4.1-.8.2-1.1.4-.2.2 0 .4.2.4.7-.1 2.2-.4 2.3-1.3 0-.5-.5-.7-.9-.7-.5 0-1.3.4-1.5-.2 0-.1-.1-.1-.1-.2 0-.3.1-.5.2-.7.2 0 .3 0 .5-.1s.2-.4 0-.5c-.3-.2-.6-.2-.9-.3-.1 0-.1-.1-.2-.1-.3-.3-.3-.4-.3-.5zm3.5 28.4c-.1.1-.1.2-.2.3-.1-.3-.2-.7-.5-.9-.3-.3-.6-.6-1-.7.1-1.1.3-2.3.4-3.4 0-.9 0-1.8.3-2.6.2-.7.5-1.5.8-2.2.5-1.5 1.3-3.1 2-4.5.3-.6.7-1.2 1.1-1.8.2-.3.4-.5.5-.8h.6c.4 0 .7-.1 1.1-.3-.2.4-.4.8-.6 1.1-.9 1.8-1.8 3.5-2.5 5.3-.7 1.9-1.3 4-1.6 6.1-.2 1.2-.6 2.9-.4 4.4zm-3.5-4.6c-.1-1.6.2-3.3.5-4.9.2-1.6.5-3.2.9-4.8.2-.6.6-1.4.6-2.1v-.4c.2 0 .3-.1.3-.3v-.5c.1-.1.1-.2 0-.3v-.1c.2.1.3.3.5.4l.1.1c-.1.1-.2.3-.2.5-.1.7-.6 1.4-.8 2.1-.5 1.3-.7 2.8-.8 4.3-.4 3-.3 6-.3 9-.3.1-.6.3-.9.5-.1-.4 0-.8 0-1.2.2-.6.1-1.4.1-2.3zm3.2-11c.2-.5.3-1.1.4-1.6.2 0 .4.1.6.1.8.2 1.6.3 2.5.3-.3.4-.7.9-.9 1.2-.4.6-.8 1.2-1.1 1.9-.7 1.4-1.4 2.8-2 4.3-.5 1.4-1 2.7-1.1 4.3 0 .4 0 .7-.1 1.1 0-1.9.1-3.7.3-5.6.2-1.4.4-2.8.7-4.1.2-.8.4-1.4.7-1.9zm-2 15.2c.1.1.2.1.3.1.5.7 1.5 1.5.8 2.3-.6.8-2 .8-2-.4 0-.6.3-1.8.9-2zm-4-25.3l.5.5c.2.2.3.5.4.8.1.3.2.6.4.8.2.2.5.3.7.4 0 0 .1.1.2.1 0 .6.2 1.3.7 1.7.2.2.4.3.6.3v.2c.3.6.9.8 1 1.5 0 .3.1.7.1 1 0 0-.1 0-.1-.1l.1.1v.8c-.4.4-.5 1.2-.6 1.6-.8 2-1.1 4.2-1.4 6.4-.3 2-.5 3.9-.3 5.9.1.8.2 1.7.3 2.5 0 .2.1.4.1.5-.6.8-.8 2.2-.6 3 .1.7.9 1.2 1.6 1.4.8.2 1.4-.2 2-.6.5-.4.8-.8.8-1.3.1-.1.1-.1 0-.2v-.1c0-.1 0-.2-.1-.3 0-.1 0-.1.1-.2v.1c.1.2.4.2.4 0 .2-.8.1-1.7.2-2.6.1-1 .2-1.9.3-2.9.3-1.9.9-3.9 1.5-5.7.6-2 1.5-3.7 2.5-5.6.5-.9.9-1.7 1.7-2.4.2-.2.4-.3.7-.4-.2.4-.4.8-.3 1.3 0 .4.6.4.6 0 .1-.7.4-1.3.7-1.9.3-.8.6-1.6 1.1-2.4.4-.6.7-1.1.9-1.7 1 .6 2.2.8 3.3.9 1 0 2.2-.9 3.1-1.6.1 0 .2.1.3 0v.1c.2.5.4 1.1.5 1.6.3 1 .3 2.2.3 3.2.1 1-.1 2.1-.2 3.1 0 .3-.1.7-.1 1-.1.1-.2.2-.2.4-.2.4 0 .7.2.9v.3c-.2 0-.5-.1-.8-.1-.6 0-1.3-.1-1.9.2-.7.3-.1 1 .3 1.4-.3.4-.4.7-.5 1.3 0 .1.1.3.2.4l-.1.1c-.3.6-.8 1.1-1.1 1.7-.1.3 0 .6-.1.9 0 .6-.2.9-.6 1.3-.4.4-1.8 2.4-1.2 3 .2.2.2.2.5.3.6.1.6.4.5.9 0 .5-.2 1.1.1 1.5.2.3.7.6 1 .7 1 .1 0 1.6-.2 2.2-.1.1-.1.1-.1.2-.1 1 .1 2.6 1.3 2.8-.2.4-.4.8-.6 1.1-.4.7-.6 1.4-.8 2.2-.4 1.7-.7 3.5-.9 5.3-.2 1.7-.3 3.5-.2 5.2.1.7.1 1.4.2 2.1 0 .1 0 .2.1.3-.6.3-1.3 0-1.9-.2-.7-.2-1.4-.2-2-.4-.7-.2-1.3-.3-2.1-.3s-1.5.2-2.2.1c-.5-.1-.7.3-.7.7h-.5c-.6 0-1.1 0-1.7-.1h-1.2c0-.9-.1-1.8-.3-2.8.3-.1.6-.2.8-.4.6-.3 1.1-.4 1.7-.6.2-.1.5-.1.6-.2.1-.1.2-.1.2-.2.1.1.3.1.4 0 .2-.2.3-.3.3-.6v-.2c.1-.3.2-.7.3-1.1.1-.5-.5-.8-.8-.3-.1.2-.2.4-.3.7 0 .2-.1.4-.2.5-.1.3-.5-.9-.5-.9-.2-1.4 0-2.9 0-4.4 0-.5.1-1.5 0-2.2h.5c.2 0 .4.1.5 0 .3 0 .4-.2.7-.3.7-.3 1.3-.8 1.4-1.6.1-.4-.2-.7-.6-.6-.6.2-.8.7-1.4.9-.6.2-1.2.5-1.7.7-.6-.5-1.2-.5-2-.5-.6 0-1.3.1-1.9.1-.7 0-1.3-.1-1.9-.2-1.1-.1-2.2 0-3.3.1-1.8.1-3.4 1.1-4.7 2.3-.2-.7-.5-1.3-.9-1.9l-.1-.1s0-.1-.1-.1c.2-.2.4-.3.6-.4.4-.4.8-1 .6-1.5-.1-.4-.5-.7-1-.8.1-1.9.7-3.8.7-5.7 0-1-.1-2.5-1-3.1l-.6-.3c.2-.5.3-1.1.5-1.5.5-1.1 1.3-2 1.7-3.2.2-.6.5-1.2.7-1.8.3-.6.6-1.1.8-1.7.3-1.2-.2-2.5-.5-3.6l-.6-2.1c.1 0 .1-.1.1-.2 0-.6.3-1.1.5-1.6.4-.1.9 0 1.3-.2s.8-.5 1-.9c.4-.6.6-1.7.2-2.3.1-.2.1-.3.1-.5l.6-1.5c.6.1.7-.2.8-.4zm-8.6 52.8c0 2-.8 3.9-1.3 5.8-.1-.1-.2-.1-.4-.1 0-1 .2-2 .2-3 .1-1.3.1-2.7.3-4 .2-1.1.5-2.1.5-3.2 0-1.3-.1-2.6.2-3.9.3-1.2.8-2.2 1.5-3.2.5-.8.6-1.4.9-2.2.3-.9.5-1.9.6-2.9v-.2c.1.2.2.4.2.6l-.2.2c-.2.3 0 .6.3.5v.2c.1 1-.3 2.1-.5 3.1-.4 2-1.6 3.8-1.8 5.9-.1 1-.5 1.9-.6 2.9.1 1.1.1 2.3.1 3.5zm-5.8-16c.8.4 2-.6 2.4-1.3.2-.4.2-.8 0-1.2-.2-.5-.6-.5-1.1-.5-.8 0-2.1-.3-2.6.6-.1.1 0 .2 0 .3v.5c-.4-.6-.7-1.1-.9-1.9-.2-.9-.1-1.9-.2-2.9 0-.1-.1-.2-.2-.3 0-.3 0-.7.1-1 .2-.7.5-1.3.6-2 .2-1 .4-1.5 1.1-2 .3.1.7.1 1 .1 1.1-.1 2-.3 3.1-.1.8.1 1.5.6 2.3.9.4.1.4 2.2.4 2.5 0 .8-.2 1.6-.4 2.3-.2.6-.4 1.4-.2 2 .1.2.3.4.5.4s.4-.1.7-.1c.3 0 .4-.2.4-.4.2-.2.4-.5.6-.7.2-.1.8.1.7.3-.1.2-.2.4-.4.5l-.3.3c-.1-.2-.5-.1-.4.1v.2l-.1.1c-.1 0-.2 0-.3.1-.9.9-.9 2.1-1.4 3.2-.3.7-.9 1.2-1.6 1.6-.4.2-1.4-.2-1.9 0-.8.2-1.6.3-2.1-.2 0-.1.1-.1.2-.1s.2-.1.1-.2c-.2-.2-.4-.2-.6 0-.1-.2-.2-.3-.3-.5-.2-.4-.2-.8-.3-1.2.5.3.8.5 1.1.6zm-.8-2c.3-.6 1.2-.4 1.7-.3h.8c.7 0 .3.9.1 1.2-.4.5-1.3 1-1.9.7-.5-.4-.6-1.1-.7-1.6zm7.9-8.7c0-.4-.2-.6-.5-.8-.5-.3-1.2-.5-1.8-.7-.7-.3-1.5-.4-2.3-.4-.8 0-1.6.2-2.4.3h-.2c0-.1-.1-.3-.3-.3-.2 0-.4-.1-.5 0-.3-.4-.4-1.1-.4-1.7.2.2.5.3.8.1.5-.2.6-.5.8-.8.3.2.7.3 1.1.3.2 0 .4-.1.6-.2.4-.2.4 0 .7.2.7.4 1.2 0 1.9.2.6.2.8.7 1.5.7h.2c.2.1.4.1.6 0 .5 0 1 .1 1.2.8.2.6.2 1.3.2 1.9 0 1.8-.5 3.6-.6 5.4h-.1c-.4.1-.8.4-1.1.8.1-.6.4-1.2.5-1.7.2-.6.2-1.3.2-2 .1-.7 0-1.4-.1-2.1zm-2.3 22.1c0 1.2-.4 2.4-.6 3.6-.1.9-.2 1.8-.2 2.7-.2-2-.6-3.9-1.1-5.9-.4-1.7-.9-3.4-1.4-5.1-.3-.9-.3-1.8-.4-2.7 0-.6-.2-1-.4-1.5h.3c.9.1 1.7-.3 2.6-.1.6.1 1.2-.3 1.7-.6 1.2-.9 1.4-2.4 2-3.7.2.1.5 0 .4-.2 0-.1.1-.2.2-.4.2.6.1 1.3 0 2-.2 1-.4 1.9-.6 2.9-.2 1.2-.9 1.8-1.4 2.8-.5.9-.7 2-.9 3-.4 1-.3 2.1-.2 3.2zm-4.9-9.1c.2.1.4.1.5.2-.1 0-.1.1-.1.1-.1.5 0 .9 0 1.4 0 .8 0 1.5.2 2.3.5 1.7.9 3.3 1.4 5 1 3.4 1.6 6.8 1.8 10.3h-.2c-.5.1-.7.6-.2.9.1 0 .1.1.2.1-.1 0-.2-.1-.4-.2-.1-.3-.1-.6-.1-.9 0-.9-.1-1.5-.3-2.3-.5-2.1-.9-4.2-1.3-6.4-.4-2.1-.7-4.1-1.1-6.2-.2-1.1-.3-2.2-.3-3.2-.1 0-.2-.6-.1-1.1zm4.9 21.3c.1.1.2.1.2.2.4.7.4 1.5.1 2.3l-.3.6c-.1.3-.3.3-.5.1-.6-.2-1.1-.6-1.4-1-.3-.5-.1-1.1.1-1.5.4-.8 1-.9 1.8-.7zm4.5-67c.3 0 .5.1.8.3-.4.1-.8.2-1 0l-.3-.3h.5zm-1.9.5v-.3c.2 0 .4 0 .6.3.2.4.3.7.8.9.5.2 1.1-.2 1.6 0 .6.3.4 1 .9 1.3.6.4 1.6-.1 1.9 1 0 .2.3.3.4.4l.3.3c.1.3.1.6.1 1 0 .2.1.3.1.4-.5 1-.9 2.1-1.2 3.1-.6-.2-1.3.2-1.9.7-.9-.3-1.1-2.1-.8-2.8.3-.5.9-1.4.3-2-.6-.7-.1-1.9-1-2.4-.7-.4-1.7-.6-2.4-.1-.2.2-.1.5.2.4.6-.2 1.1-.2 1.7 0 .8.4.1 1.2.4 1.7.2.3.5.5.6.8.2.6-.4 1.3-.7 1.8-.3.8.3 2.5 1.1 3.1-.1.1-.2.2-.2.4-.2.3.2.6.5.4.4-.3.9-.7 1.5-.9h.2c0 .1-.1.2-.1.2-.1.3.1.4.3.4 0 .3-.2.7-.2.9-.5 1-1.6.2-2.2.9-.2.2-.2.6-.3.9 0 .1 0 .2-.1.4-.1-.4-.2-.7-.3-1.1-.4-1.4-1.1-2.6-1.5-4-.4-1.4-.5-2.8-.8-4.1-.3-1.1-.7-2.5-.7-3.7.1-.1.3-.1.4-.2v.1c-.1.1.4.1.5-.2zm-14.2-1.4c0-.1 0-.1 0 0-.4-.5.4-1.5.5-2 .1-.3.1-.7-.1-.9-.2-.6 0-.8.1-1.3.1-.3.2-.9.5-1.4.4-.2.9-.4 1-.9.1-.2.1-.4.2-.6h.3c.4.1.9 0 1.3-.1.5-.1.9-.2 1.3-.2 0 0 .1 0 .1.1.4.2.8.5 1.3.4.2 0 .4-.1.6-.2.6-.3.8-.2 1.4 0 .5.2 1.1.3 1.6.3s.3 1.1.4 1.5c.2.4.5.6.9.8.2.1.4.1.6.2.5.1.6.9.8 1.2.4.7.2 1.6.6 2.3.1.1.1.3.2.4v.9c-.2.1-.3.1-.5.2-.1-.1-.1-.2-.2-.2v-.3c-.1-1.5-1.2-2-2.6-2-.7 0-1.7-.2-2.5 0-.1-.9-1.5-2.9-2.3-1.7-.1.2-.3 1.2-.8 1-.4-.2-.6-.7-.9-1-.4-.5-1.1-.8-1.7-.4-1 .6-2.1 2.4-2.1 3.9zm1.8 5.7c.2 0 .3-.2.2-.4l-.3-.3c0-.1 0-.2.1-.3.1-.2-.3-.4-.4-.2-.2-.4-.4-.9-.5-1.4-.1-.4-.1-.8-.3-1.2-.2-.5.1-.7.2-1.1 0-.3-.2-.6-.1-.9 0-.5.2-1 .4-1.5.1-.3 1.5-1.9 1.9-1.6.6.5 1.2 1.7 2.1 1.5.5-.1.8-.4 1-.9.1-.1.1-.3.1-.4 0-.2.1-.3.1-.1.4.3.7.6.8 1.1 0 .1.1.1.1.2-.1.1-.3.2-.4.4-.5.8-.6 1.6.2 1.9v.3c-.6.1-.8.8-.6 1.5.4 1.1 1.7 1.9 2.6 2.7.2.5.3.9.5 1.3.4.6.5 1.5.7 2.2.1.4.1.8.2 1.3-.2-.1-.4-.1-.6-.1h-.4c-.1-.2-.6-.2-.6.1-.1.9 1.1 1 1.6.7.1.4.1.8.1 1.1-.3 0-.6-.2-1-.3-.3-.1-.6 0-.9.2-.2.1-.3.3-.3.6 0 .2 0 .3.1.4-.1.1-.1.2-.1.3.2 1 1.4 1.4 2.3 1h.1l.3 2.4c-.6.7-1.7.8-2.6.5-1.3-.4-.8-3.6-.8-4.6 0-1.3-.2-3.2.6-4.2l.2-.2.1.1c.2.1.4-.1.4-.2.1 0 .2-.2.1-.3v-.1c0-.1 0-.1-.1-.2 0-.1-.2-.2-.3-.2-.1 0-.2 0-.3.1-.1-.6-.3-1.1.2-1.8.2-.3-.1-.6-.4-.4-.4.5-.6 1-.6 1.6 0 .2 0 .4.1.6.2.3-.2.6-.3 1-.2.8-.3 1.6-.4 2.4 0-.1-.1-.1-.2-.2s-.3-.1-.4 0c0-.1-.2-.2-.4-.1-.6.4-1 .7-1.8.3-.8-.3-1.3-1-1.6-1.7-.4-.6-.6-1.3-.7-2 .3-.2.1-.5 0-.9zm7.3 6.7v-.1c.2-.1.3-.2.5-.1.4.1.7.2 1.1.2 0 .3.1.6.1.9v.4c-.6-.2-1.4.1-1.7-.5.1-.1.1-.2.1-.3.2-.3.1-.4-.1-.5zm-5.9-2.1c-.1 0-.2-.1-.3 0-.2-.2-.3-.4-.4-.7.1.2.3.4.4.5.1.1.2.2.3.2zm-2.9 2.6l.3-.3c.5-.3 1.1-.7 1.6-.9l.1.1c.3 0 .6-.1.6-.4h.5c.3.1.7.2.9.3.5.2 1.1.3 1.7.3.4 0 1-.3 1.3-.7v3.1c0 1.4-.1 2.7 1.4 3.2.8.2 1.9.1 2.7-.4 0 .2.1.3.1.5.1.7.2 1.4.2 2.1 0 .9-.7 1.4-1.1 2-.4.6-1.1 1-1.6 1.6-.4.5-.8 1.1-1.1 1.7-.1.3-.4 1.6-.6 1.6-.5-.1-.9-.3-1.4-.4-.5-.1-1-.3-1.5-.2-.5.2-1 .1-1.5.3-.6.3-1.2.4-1.8.7-.9.4-1.7.9-2.6 1-.2 0-.3.1-.3.2v-.1c.1-.4.2-.8.2-1.1.1-.6-.1-1.3.1-1.9.1-.3 0-.6-.2-.8.3-.1.6-.3.9-.5.1-.1.2-.3.3-.5.1 0 .3 0 .3-.1.4-.7 1-1 1.3-1.7.3-.6.3-1.3.2-2-.1-.5-.5-.8-.9-.6.4-1.4.1-2.6-.3-4-.1-.4-.3-.8-.5-1.2.2-.2.4-.5.7-.9zm-.6 9.3l.3-2.1c.1-.2.2-.2.4-.3.2-.2.2-.2.2-.1.2.4.1.9 0 1.3-.1.5-.6.8-.9 1.2zm-5.7-10.7l.6-.3v.1c0 .1.2.2.4.1.3-.2.5-.4.7-.6.1 0 .1 0 .2.1.2.5.3 1 .7.9.4.5.9 1 1.4 1.3h.1l.5.5c-.1.2 0 .6.3.5h.1c.6 1.1 1 3 .8 4.2-.1.5-.3 1.1-.5 1.6-.2.7-.2 1.4-.3 2.1-.1.6 0 1.3-.6 1.8-.4.3-.9.4-1.3.7-1.2.8-2.8.3-4.1.2-.7 0-1.3-.2-2-.2-1.1-.1-1.3-1.3-1.5-2.1-.1-.7-.1-1.4-.1-2.1.1-.1.1-.3.1-.4.1-.6.2-1.3.4-1.9.1-.7.3-1.4.5-2.1.1-.3.1-.6.2-.9 0-.1.1-.1.1-.2.1-.2.2-.5.4-.6.2-.2 0-.5-.2-.5l.2-.2c.4-.5 1-.6 1.6-.9.5-.4.9-.7 1.3-1.1zm-20 40.9c.1 1.5.5 3 1 4.5.2.7.5 1.4.7 2 .3 1 .2 1.8 0 2.8-.4 1.6-.6 3.2-1.1 4.7-.5 1.6-.7 3.2-1.2 4.8-.2.6-.3 1.2-.5 1.8-.2.6-.1 1.2-.2 1.8 0 .2-.1.3-.1.5-.6-.3-1.3-.4-1.8-.5-1.3-.3-2.6-.3-3.9-.3-1.8 0-4.1.2-5.1-1.6 1.7-2.8 3-5.9 3.1-9.3.1-1.8-.2-3.2-1-4.8-.4-.8-.8-1.6-1.1-2.4-.4-.9-.9-1.7-1.2-2.6-.1-.4-.8-.3-.7.2.1.6.3 1.1.6 1.6-.8.2-1.7.2-2.5.4-.3.1-.6.2-.9.2.3-.1.6-.2.8-.4.8-.5 1.3-1.4 1.7-2.2.9-1.9.9-4 .7-6v-.4c0-.1 0-.1-.1-.1 0-.2 0-.5-.1-.7 0-.3-.5-.3-.5 0-.1.8 0 1.6 0 2.3-.2.8-.4 1.6-.7 2.4-.4.7-.8 1.4-1.6 1.8l-1.2.6v-.1c.1-.2.3-1 .4-1.1.2-.3.1-.7-.2-.8-.2-1.2-1.4-1.9-2.5-2.4-1.5-.7-3-1.4-4.6-1.7 0-.3.1-.6.1-.8.2-.8.4-1.7.8-2.5.5-1.1 1.5-2.6 2.5-3.3.5-.4 1.6-.1 2.2 0 .7.1 1.1 1 1.8 1.2.3.1.6.1 1 .2.6.1.6.5.8.9.3.8.5 1.6.9 2.3.2.4.9.1.7-.3-.2-.4-.2-.9-.3-1.4.6-.4 1-.6 1.6-.8.6-.2 1.2-.3 1.8-.4 1.1-.3 2.4-.5 3.5-.6 1.2-.2 2.2-.6 3.4-.9 1.2-.3 2.4-.2 3.6-.6.2-.1.5-.1.7-.2-.1.8 0 1.5-.2 2.3-.3 1.7-.3 3.4-.7 5-.2 1.7-.5 3.3-.4 4.9zm-1.8 27c.3 1.2-.1 2.3-.1 3.5 0 .6-.2 1.3-.2 1.9-.8-.5-1.9-.6-2.8-.6h-3.4c-.2 0-.3.1-.4.1-.1-.5.1-1.2 0-1.7-.1-.8-.1-1.6-.3-2.4-.3-1.5-.5-3-.8-4.5h.5c1 .1 1.9 0 2.9 0h2.7c.5 0 1.6.1 2.3.4v.2c-.2 1.1-.6 2.2-.4 3.1zm-.2 6c-.1.5-.2 1-.2 1.4-1-.2-2.1-.2-3.2-.3-1.3-.2-2.5-.8-3.6-1.6.1 0 .2-.1.2-.1 1 .1 2.1 0 3.1.1 1.4 0 2.5.2 3.7.5zm-14.7-29.5c-.2 0-.5.1-.6.2 0-.5.1-.9.3-1.4.1-.2.1-.5.2-.7.6-.3 1.2-.5 1.8-.8.6-.3 1-.9 1.3-1.5l.6-1.2c-.1 1.2-.4 2.4-.9 3.5-.7 1.2-1.5 1.7-2.7 1.9zm.8.5c-.5.1-.9.3-1.4.3.2-.3.8-.1 1.1-.2.1-.1.2-.1.3-.1zm-8.2 16.2c0 .1.1.2.2.2 0 1.6-.5 3.4-1 5-.2.8-.6 1.5-.9 2.2-.3.7-.5 1.4-1.2 1.8-.6.3-1.2.4-1.8.4-.8.1-1.1-.2-1.1-1 0-1.2-.4-2.3-.3-3.5 0-.8.2-1.5.3-2.2 0-.8.1-1.6.3-2.3.2-.9.6-1.7.9-2.5.1 0 .2 0 .4-.1 1-.8 2.2-2.1 3.7-1.5.4.2.6.7.6 1.3-.2.6-.3 1.5-.1 2.2zm-1.2-4.8c-.6 0-1.3.1-1.9.4.2-1.4.4-2.7.4-4.1 0-1.8-.2-3.5-.2-5.3-.1-1.9.2-3.8.8-5.6.3-.9.7-2 1.4-2.8.1-.1.2-.3.3-.4.8-.1 2.1.6 2.7.9 1.3.6 2.6 1.5 4 2-.2.7-.3 1.5-.5 1.9-.3.9-.1 2-.3 3-.2 1.1-.7 2.2-1.1 3.3-.8 2.2-1.8 4.4-2.8 6.5-.2.4-.4.8-.7 1.3-.5-.6-1.1-1.1-2.1-1.1zm3-17.6c-.5-.2-1.3-.6-2-.5.2-.2.3-.5.4-.7.1-.2.1-.4.2-.5.6.1 1.1.4 1.7.5.8.2 1.5.5 2.1.9 1 .7 2.1.9 2.6 2-.2.2-.3.4-.4.6-1.5-.8-3-1.7-4.6-2.3zm22.1-10.7c-1.1.3-2.2.2-3.3.5-.6.2-1.1.4-1.6.6-.7.2-1.4.2-2.1.3-2.1.3-4.4.6-6.1 1.7-.2-.6-.5-1.2-1.1-1.6-.3-.2-.7-.3-1.1-.4-.3-.1-.6-.4-.8-.6-.8-.6-1.4-.8-2.4-.9-1.7-.1-2.6.6-3.5 1.9-1 1.5-1.7 2.9-2.1 4.6l-.3 1.8c-.1.1-.1.3 0 .4v.2c-.1 1-.9 1.7-1.5 2.5-1.2 1.7-1.6 3.8-1.8 5.8-.2 2.2.1 4.3.1 6.5 0 1.9-.2 3.8-.4 5.7-.3.5-.6.9-1 1.4-1.1 0-1.9.1-3 .5-1.3.4-3.1-.2-4.3-.5-2.3-.5-4.6-.1-6.9 0-1.1 0-2.3.4-3.4.6-1.3.3-2.6.4-3.8.6-.6.1-1.2.2-1.8.4h-.1v-.9c0-1.2.3-2.3.6-3.5.5-2.5.7-5.2 1.1-7.7.2-1.2.3-2.4.3-3.6-.1-1.2-.4-2.4-.5-3.6 0-1.2-.3-2.3-.5-3.5-.3-1.4-.4-2.9-.5-4.3-.2-2.2-.7-4.3-.9-6.4l.1.1c.2.2.5 0 .4-.2-.2-.5-.4-.9-.6-1.4v-.1c0-.1-.1-.2-.2-.2-1-1.7-2.3-3.3-3-5.2-1-2.6-1.5-5.4-2.6-8-.5-1.3-1.3-2.5-1.9-3.8-.7-1.4-1.3-2.7-2-4.1-.6-1.1-1.2-2.3-2-3.2-.6-.7-2.1-2.2-1.1-2.9.1.1.1.2.2.3H57c-.3.1-.2.5.1.4 1.7-.2 3.7-1.1 4.7-2.5.1-.2-.1-.4-.3-.3-.2.2-.5.3-.7.5.3-.2.5-.5.7-.7l.2.2c.7.4.9.6 1.2 1.4.5 1.5 1.6 2.7 2.5 3.9 1 1.4 2.3 2.6 3.3 4.1 1 1.4 2.2 2.7 3.2 4 2 2.7 3.7 5.6 5.5 8.5.4.6.7 1.2 1 1.9.3.6.4 1.2.7 1.8.5.9 1.4.7 2.2.4 0 0 .1 0 .1-.1.1 1 .6 2 .8 3 .5 1.5.7 3.1 1.1 4.6.4 1.5.8 3.1 1.4 4.6.4 1.2 1 2.4 1.4 3.6-.2 0-.3 0-.5.1-.7.3-1.1.9-1.2 1.6-.3 1.5 1.2 2.7 2.4 3.2 1.5.6 2.6-.2 3.2-1.6.3-.7 0-1.6-.4-2.2-.1-.2-.2-.4-.4-.5.1-.2.1-.4.1-.7-.2-1.6 0-3.4.1-5.1.1-2 .5-4.2 1.1-6.1.3-1 .4-2 .4-3h.2c1.7-.9 3.4-1.3 5.3-1.5 1-.1 1.6.2 2.5.5.9.3 1.5.9 2.4 1.2 1.4.4 3 .1 4.4.3 1.7.3 3.6.4 5.2-.2 1.5-.6 3.3-.7 4.9-.8h2.5c.8 0 1.7-.3 2.5-.6 1.6-.6 3.1-1.1 4.9-1.2.5 0 1.7-.6 2.2-.4.2.1.3.1.4.1.1.6.3 1.3.8 1.7.5.4 1 .3 1.3-.1 0 0 .1.1.2.1.7.2 1.2-.2 1.4-.8.5.3 1.2-.6 1.4-1 .3-.6 0-1.2-.4-1.7h.5c.7.6 1.4 1.5 1.7 2.3.3.7.1 1.4.3 2-.7.5-1.6.8-2.5 1.2-.5.2-.8.7-1.4.8-.5.1-1.1.4-1.6.6-1.1.5-2.3.5-3.4 1.2-.5.3-1.1.6-1.8.8-.1-.1-.3-.1-.4.1-.6.3-1.2.5-1.8.6zm-58.7-1.4c-.1 0-.1.1-.2.1-.7 0-1.3-.9-1.7-1.7.2.2.4.1.5-.1.5-.7.3-2 .2-2.8-.1-.9-.2-1.8-.2-2.8 0-.5-.1-1-.3-1.4.1 0 .1-.1.1-.2v-.2c.2.1.3.1.5.1.5 0 .6 1.5.6 1.8 0 1.3.2 2.5.3 3.8.1.4.5 2.9.2 3.4zm.4 1.1c.2.3.3.8.2 1.2-.2.8-1.1 1.1-1.8.9-.9-.3-1.4-1.5-.8-2.2.3-.3.7-.3 1.2-.2.1 0 .1 0 .2.1h.2c.2 0 .5.1.8.2zm-6.8-30.1c.6 0 1.1-.1 1.5-.3-.4.2-.9.4-1.4.5 0-.1-.1-.2-.1-.2zm22.9 14.5c-.2-.7-.1-1.5-.1-2.3 0-.9.5-1.8.9-2.6.4-.9.9-1.3 1.9-1.4.8 0 1.5.3 2.2.3 0 .2.1.4.1.6 0 .2.3.2.4 0V95c.9.2 1.8.5 2.5 1 1.4.8 2.5 2.2 2.5 3.8-.2 0-.2.2 0 .3v.1c0 .2-.1.5-.1.7 0 .1 0 .2.1.3v.8c-.3.1-.6.3-.8.5-.2.3.3.6.5.3.1-.1.2-.2.3-.2v.3c0 .4.6.4.7 0v-.3c.9.2-.1 1-.6 1.1-.4.1-.8.2-1 .6-.3.5-.5.9-.7 1.4-.2.4-.7.7-.9 1.1-.4.5-.8.8-1.4 1-1.4.5-4 .4-5.1-.7-.4-.5-.7-1.6-.9-2.2-.3-.8-.2-1.7-.4-2.6-.2-.5 0-.9-.1-1.4zm8.9-6.1c.3 0 .6-.1.9-.2.5-.2 1-.5 1.6-.5 1 0-.2 1.1-.4 1.2-.4.3-.8.3-1.2.2l-.3-.3c-.3-.2-.4-.3-.6-.4zm.4 14.7s-.1 0 0 0c-1.3 1.2-2.6 1.5-4.2 1.1l-2.1-.6c-.7-.2-1.1-.9-1.2-1.5.3.1.7.2 1 .3 1.3.1 2.6.2 3.8-.2 1.2-.4 1.7-1.4 2.5-2.2l.3-.3-.3 1.5c-.3.6-.2 1.3.2 1.9zm-1.3 1.8c-.2 3.4-1.1 6.7-1.5 10.1 0 .2-.1.5-.1.7-.3-.6-.3-1.2-.5-1.8-.4-1-.6-2.1-.9-3.1-.6-1.9-1.4-3.9-1.5-5.9.5.1 1 .2 1.3.3.9.2 2.2.2 3.2-.3zm-5-.1c.1 2.1.9 4.2 1.5 6.2.3 1.1.6 2.2 1 3.3.2.6.1 1.4.7 1.9l.1.1c-.2.9-.3 1.8-.4 2.8-.3-.9-.7-1.8-1-2.7-.5-1.5-.8-3-1.2-4.6-.4-1.6-.7-3.1-1.1-4.7-.2-.7-.5-1.4-.7-2.2-.1-.2-.1-.4-.1-.6.3.2.7.4 1.2.5zm3 15.4H86.7s.1 0 .1.1c.2.2.4.3.7.3.7.1 1.1.1 1.4.9.4.9-.1 2.2-1.2 2.2-1 0-2-.9-2.3-1.7-.2-.6 0-1.1.4-1.5.1-.2.3-.3.6-.3zm2.3-8.4c-.2 1.5-.3 3-.3 4.6 0 .7 0 1.5.1 2.2 0 .4.1.9 0 1.1-.5-.1-1-.1-1.4-.3-.2-.1-.3-.1-.4 0 0-.7.1-1.3.2-1.9.3-1.4.4-2.8.6-4.3.3-2.9 1.2-5.7 1.3-8.6.5-.3.9-.7 1-1.3.1 0 .1.1.2.1 0 .1-.1.1-.1.2v1.9c0 .8-.3 1.4-.4 2.1-.3 1.5-.6 2.8-.8 4.2zm12.2-25.9c-.9-3.2-2-6.2-2.2-9.5-.1-.9-.1-1.9-.1-2.9 1.5-.2 2.8-1.2 4.2-1.6.6-.2 1.1-.4 1.6-.7.1-.1.3-.2.5-.4.3 1.1.5 2.2.8 3.4.3 1.1.2 1.9 1.4 2.4.5.2.8.6 1.3.8.3.1.7.2.9.3.2.1.5-.1.3-.3-.4-.5-1-.9-1.5-1.4-.3-.3-.8-.3-1.1-.8 0-.1-.1-.2-.1-.3.2.1.4.2.6.2.3 0 .3-.4.1-.5-.7-.1-.8-1.6-.9-2.1-.2-.9-.3-1.9-.5-2.8-.1-.5-.3-.9-.4-1.4-.3-1.3-.7-2.6-1.2-3.8v-1.2c0-1.8.1-3.7.1-5.5 0-1.6-.4-3.2-.3-4.8.1-1.3.4-2.5.6-3.7l.6.6c.5 1 1.1 2 1.8 2.8.4.4.9.1.9-.4l.1-.1c1.1.2 2.1.4 3.2.3 1.5-.1 3 .2 4.5.2 1.8 0 3.5-.3 5.2-.3.6 0 1.2.1 1.8.1.6 0 1.2-.2 1.8-.3.1 0 .2 0 .2-.1.5-.1.6-.6.4-.9.2-.3.3-.5.3-.6.3-.4.5-.8.7-1.2 0 .5.1.9.1 1.4l.9 4.2c.6 2.8-.5 5.4-1.3 8-.4 1.3-.8 2.5-1.3 3.7-.5 1.1-1.1 2.1-1.3 3.3-.1 1.1-.2 2.2-.5 3.3-.1.5-.4.9-.6 1.4-.1.3-.2.5-.2.8-.1-.1-.2-.1-.4-.2-.4-.1-1.6 0-1.7-.4-.2-.4 0-1 0-1.4 0-.3-.1-.6-.1-.8 0-.4.1-.3.4-.2.7.1 2 0 2.2-.9.2-.9.7-2.1.1-2.9-.3-.4-.7-.7-1.1-1-.2-.2-.4-.4-.5-.7 0-.3-.2-.6-.3-1v-.2-.4c0-1.4-.4-2.4-1.2-3.5-.6-.8-1.2-1.7-1.6-2.6-.1-.4-.3-.8-.5-1.2-.4-.8-.9-1.4-1.6-1.9-.3-.2-.7 0-.8.3 0 .1-.1.9-.3 1.4-.2 0-.3.1-.4.2-.1.1-.1.1-.1.2-.3-.2-.6-.3-1-.4-.8-.1-1.5.3-2 1-.6.9-1.1 2-1.6 2.9-.6 1.2-1 2.5-1.2 3.8-.1.6-.1 1.2-.1 1.8 0 .7-.3.9-.9 1.2-.8.4-1.3.7-1.3 1.7 0 .9.7 1.5 1.4 1.9.5.3 1 .4 1.4.8.7.6.4 1.7.1 2.5-.2.5.7.9.9.4.2-.4.4-1 .4-1.5 0 .2.1.5.1.7 0 .2.3.2.3 0 0-1.1-.2-2.3-.2-3.4.1 0 .1-.1.1-.2.6.5 1.3.8 2.1 1.3 1.4.8 2.4 0 3.8-.1.8 0 1.4-.2 1.9-.6 0 .3 0 .5.1.8-.1.6-.1 1.3-.1 1.9 0 .8-.2 1.7.1 2.4-.1.8 0 1.7 0 2.5 0 1.6-.2 3.1-.2 4.7 0 .3-.1.5-.2.8-.1.2 0 .7 0 .9 0 1-.3 1.9-.5 2.9-.1.3-.1.5-.1.8-.6-2.3-1.6-4.4-2.6-6.6-.7-1.4-1.1-2.9-1.8-4.3-.6-1-1-2.1-1.7-3.1v-.6c0-.4-.6-.4-.7 0v.1c-.2.1-.3.3-.1.5 0 0 0 .1.1.1 0 1.1.1 2.2.6 3.3.8 2 1.6 4.1 2.3 6.1.6 1.9 1.4 3.7 2.1 5.6.3.7.4 1.9.9 2.5-.2.2-.4.4-.5.6-.9 1.4-.1 3.2 1.2 4 1.3.8 2.8.7 3.7-.5.9-1.3.1-2.8-.8-3.8 0-.2-.1-.4-.3-.4h-.1l-.1-.1c.1 0 .2-.1.2-.2.1-1.3.2-2.6.5-3.9.2-1.3.1-2.8.1-4.1 0-2.7-.2-5.4-.2-8.1 0-.4-.4-.4-.6-.2 0-.2-.1-.3-.1-.5v-.1-.1c.3.2.6.3 1 .3.8 0 1.3.2 2 .5.1.1.2.1.3.1-.3.5-.9.7-1.5 1.1-.2.1-.1.5.2.4.6-.2 1.2-.2 1.8-.5.5-.3.7-1.1.8-1.6.2-1 .3-2 .6-3s.8-2 1-3c.1-.2.1-.4.2-.6.8.5 1.6.8 2.5 1.2.7.3 1.4.4 2.2.6.6.2 1.3.4 1.9.6-.1 1.1-.1 2.2-.2 3.2-.2 2-.4 4.2-1.2 6-.7 1.6-1.9 3.3-1.8 5.1-.1.3-.3.6-.4 1-.3.8-.4 1.7-.7 2.6-.6 1.7-1.3 3.1-1.5 4.9-.3 1.8-.2 3.6-.6 5.4-.1.3-.1.6-.2.9-.5.1-.9.1-1.4.2-1.7.2-3.2.8-4.8 1.3-1.6.5-3.3.2-5 .4-.7.1-1.5.1-2.2.2-1 .2-1.8.5-2.8.7-1.8.5-3.6-.1-5.4-.2h-2.2c-.5 0-.8-.1-1.2-.3v-1.2c.2-.6.1-1.6.1-2.2 0-1.8-.1-3.5-.1-5.3 0-.9.1-1.8.3-2.7.2-.8 0-1.8 0-2.6 0-.7 0-1.5-.1-2.2-.1-.5-.2-1.1-.3-1.6-.2.5-.2.3-.2.2zm-1.1 3.1c0-.1 0-.2-.1-.3 0-.5.1-.9.1-1.4v-.1c0 .2.1.3.1.4.2.9.1 2 0 3 0 .8-.1 1.6-.2 2.5l-.1-.1c-.2-.1-.5-.2-.7-.3V99c.4-.2.7-.5.8-1.2.3-.8.3-1.7.1-2.4zm-1-21.8V73v-.2c.1-1.7.3-3.3.5-5 .2-1.6.1-3.3.3-4.9.1-.8.2-1.6.2-2.3 0-.7-.2-1.3-.3-2-.1-.6-.1-1.2-.1-1.8.1-.1.2-.3.1-.5-.4-2.2-.8-4.3-.4-6.5.2-.8.2-1.7.1-2.5 0-.6-.4-1.3-.5-2 .4.1.9.1 1.3.2.3.1.6.1 1 .2.2.1.4.1.6.2.2.1.1.1-.1 0-.2.1-.3.1-.5.1s-.3.1-.3.2h-.1c-.5 0-.5.8 0 .8.6 0 1.1.1 1.7.1h.8c.6.6.6.8 0 .8-.6.1-1 .2-1.4.6-.1.2-.1.5.1.6.5.3 1.1.1 1.7 0 .6 0 1.6.3.7.9-.5.3-1 .5-1.6.8-.4.2-.2.7.2.7h.4c-.1.1-.2.3-.1.5.1.3.1.6.2.9-.1 0-.1.1-.2.1-.2.1-.5.2-.7.3-.1 1.2.2 2.5.3 3.7.1 1.9 0 3.7.1 5.6.1 1.8.2 3.6.2 5.4 0 1.5-.1 3.1.3 4.5 0 .2.2.2.3.3.1.3.2.5.3.8.3.9.5 1.9.7 2.8-.1.1-.2.1-.3.2-.6.6-1 .9-1.7 1.2-1.4.4-2.5 1.2-3.8 1.7 0 0-.1-.1-.2 0v-.9c0-.1 0-.3.1-.4.2-1.6.1-3.1.1-4.6zm6.6-21.8c-.3.1-.6.2-1 .3-.1-.2-.2-.4-.4-.5.2 0 .3 0 .4-.1.3-.1.6-.1 1-.1-.1 0-.1.1-.1.1.1.2.1.2.1.3zm21.8 3.2c0-.1.1-.1.1-.2v1.8c-.1-.6-.1-1.1-.1-1.6zm1 11.2c0 .4.1.9.3 1.3-.5.5-.9 1.3-1.2 2v-.1c.3-1.1.6-2.2.9-3.2zm-8 11.2c.2-.4.4-.9.5-1.3.1.2.4.4.7.4.2 0 .4.4.5.6.1.2-.1.6-.2.8-.3.4-.8 0-1-.2-.2-.2-.3-.3-.5-.3zm-3 24c.4-.7 1.3-.6 2-.4l.1.1c.7.7 1.6 1.6 1.3 2.7-.3 1.3-1.8 1-2.7.6-1.2-.5-1.3-2-.7-3zm-.5-2.4c-.1-.7-.4-1.3-.6-2-.5-1.7-1.2-3.3-1.7-5-.6-1.8-1.3-3.4-1.9-5.2-.2-.7-.5-1.4-.7-2.2 0-.1 0-.2-.1-.4.4.7.7 1.5 1.1 2.2.7 1.3 1.1 2.6 1.7 3.9.6 1.3 1.3 2.6 1.8 4s.9 3 1.3 4.5c0 .1 0 .1.1.1-.1.4-.2.7-.2 1.2-.1 0-.3.1-.4.2-.3-.3-.3-.9-.4-1.3zm3 1.2c-.1 0-.1 0-.2.1-.5-.1-1-.2-1.5-.2.1-.4.2-.7.3-1.1h.1c.1-.1.1-.3 0-.4v-.3c.1-.8.1-1.5.2-2.3.3-1.3.6-2.6.7-3.9.1-.6 0-1.3 0-1.9 0-.7.1-1.5.2-2.2.1-.9-.1-2-.1-3 .1.1.3.1.4.1 0 2.3.2 4.7.2 7 0 1.4.2 2.9 0 4.3-.2 1.2-.3 2.5-.3 3.7-.1 0-.1.1 0 .1zm-2.5-21c-.5.1-.9.1-1.4.2-.7.2-1.3.3-2 .1-1.2-.3-2.4-1.3-3.1-2.2 0-.1-.1-.1-.2-.1 0-.1 0-.2-.1-.3-.3-.5-.3-.9-.4-1.4-.3-1.3-.2-2.7.1-4 .6-2 2.4-3.4 3.2-5.3.3.1.5.6.7.8.2.1.4.1.6-.1l.2-.2c.1 0 .2 0 .3-.1.1.3.4.4.7.2.2-.1.4-.2.6-.4.1-.1.2-.2.2-.3.2.4.3.7.5 1.1.6 1.1 1.4 2 2.1 3 .1.1.1.2.2.4s.2.4.2.6c.2 1 0 2 .4 2.9 0 .7-.3 1.5-.4 2.1-.1 1.4-.6 2.8-2.4 3zm-7.8-.5c.4.3.6.6.7 1-.5-.6-1.1-.9-1.8-1.2-.1 0-.3-.1-.4-.2.7.1 1 .1 1.5.4zm-1.4-1.3c.1 0 .2-.6.4-.7.3-.2.7-.2 1.1-.2 0 .2.1.4.2.5.4.4.4.8.5 1.2-.3-.3-.7-.6-1.1-.7-.4-.3-.8-.2-1.1-.1zm21.9 29.8s0-.1.1-.1l.1.1c.2.1.3.2.4.3 0 .2.2.3.3.3.1.1.2.3.3.4.2.4.2.7.2 1.1 0 .5-.2.7-.6.8 0-.1.1-.2.1-.3.1-.4.1-.8 0-1.2-.1-.4-.5-.8-.8-1.1l-.2-.2v-.1c.1.1.1.1.1 0zm1.9.8c-.2-.3-.4-.6-.7-.9 0-.3.1-.6.1-.6.3.1.6.5.8.8.2.3.4.5.6.8.3.4-.1 1.3-.6 1.3 0-.5 0-1-.2-1.4zm-1.8 1.8c-.2.8-.8-.5-.9-.7-.1-.2-.1-.4-.2-.5.1-.3-.1-.7-.4-.6l-.2-.2c.1-.1.3-.2.5-.2.4 0 .7.6.9.8.4.5.5.8.3 1.4zm4.4-2.6c.8-.2.9-1.2 1-1.8.1-.6.4-1 .8-1.4.1-.1.2-.5.3-.5.2 0 .5-.1.7-.1.4-.1.7-.2 1.1-.1 0 0 .5.2.9.4v.1c-1-.2-2.1-.2-2.2 1.2-.1.9.4 1.2 1 1.3-.6.3-1.1.6-.6 1.1.1.1.3.2.5.3.3.2.5.5.7.8.3.4.9.4 1.4.3h.4c-.1.1-.1.2-.2.3-.4.5-1.2.6-1.7.7-.7.2-1.5.4-2 .9 0-.1 0-.1-.1-.2-.2-.4-.2-1-.5-1.4-.6-.7-1-1.4-1.5-1.9zm7.1.3c.6.2 1.4.1 2 .1.8 0 1.8-.1 2.5-.7-1.1 1.1-1.8 2.4-2.7 3.7-1.1 1.6-2 3.4-2.9 5.2-.4.8-.7 1.5-1.2 2.2-.3.5-.6.9-.9 1.3 0-1.3-.1-2.5 0-3.8.1-1.6.3-3.2.3-4.8.3-.1.7-.2 1-.3 1.3-.5 1.4-1.5 1.9-2.6.2-.1.1-.2 0-.3zm-1.3.6c-.4 0-1 .6-1.4.1-.1-.2-.2-.4-.4-.6-.1-.2-.4-.3-.5-.4 0-.5.2-.7.6-.8.3-.1.6-.1.9-.2.3-.1.2-.4-.1-.5-.5 0-1.6 0-1.6-.6 0-1.2 1.6-.6 2.4-.5.3.3.5.7.5 1.3.1.7.6 2.1-.4 2.2zm-3.6 6.2c0-.8.1-2 .3-2.7.4-.3.8-.5 1.3-.6-.2 3.2-.7 6.3-.5 9.5-.1.2-.2.4-.2.6h-.1c-.3-1.2-.5-2.5-.8-3.7-.2-1.1 0-2.2 0-3.1zm.3 7.5c.1.1.3.1.4 0 .3.3.7.5.8 1 .4 1.3-1.4 2.1-2.3 1.3-.7-.8-.2-3.1 1.1-2.3zm2.2-2.3c.9-1.3 1.7-2.6 2.4-4.1.7-1.4 1.4-2.8 2.3-4.1.9-1.3 1.7-2.8 2.7-4l.1-.1c.5 1.1-.1 2.2-.6 3.1-.8 1.4-1.6 2.8-2.5 4.1-.8 1.3-1.8 2.5-2.6 3.8-.4.6-.7 1.3-1.2 1.9-.4.5-.6 1.3-1.1 1.7-.1-.1-.3-.2-.4-.3-.4-.2.8-1.8.9-2zm7-12.7l.2-.2c0 .1.1.1.1.2-.1-.1-.2-.1-.3 0zm-7.2-24.5c0 .1 0 .1 0 0 .1.2.2.2.3.3l-.3.3c-.1-.1-.1-.3 0-.6zm-5.3 1.7c.7-.5 1.9-.8 2.5-.9.5-.1 1.1-.1 1.6-.3.1 0 .2-.1.3-.2-.1.4-.2.8.1 1.4.1.2.3.3.5.2.3-.1.5-.3.8-.5.1-.1.2-.2.3-.2-.1.1-.2.2-.3.4-.4 1 .3 1.3 1 1.2v.3c0 .2.2.3.3.5l.3.3c.1.1.2.2.3.2.1.2.1.5.2.7 0 .1.1.3.1.4v.5c0 .2.2.4.4.4-.3.2-.6.3-.9.5 0-.5-.2-.8-.6-1.2-.5-.4-1.6-1.1-2.3-1.1-.6 0-1.4.1-1.9-.1s-1-.4-1.5-.3c-.4.1-1 .3-1.4.6 0-.9.1-1.9.2-2.8zm.4 3.2c1-.5 1.4.2 2.2.2.9 0 1.7 0 2.6.3.4.2 1.8.7 1.5 1.4v.1c-.4.2-.8.4-1.1.9-.4.5-1.1 1.4-.6 2-.2.7-.3 1.6-.5 2.2-.2.8-.4 1.6-.5 2.5-.2-.1-.3-.1-.5-.2s-.4 0-.5.1c-.4.6-.5 1.1-.4 1.7-.5.2-.8.7-1.3 1.2h-.1c-.3 0-.5.1-.8.2-.5.2-.1 1 .4.7H134.7c.1 0 .3-.1.4-.2.2-.1.5-.2.6-.3.2-.2.2-.4.3-.6.1-.1.2-.2.4-.3.3.5.7 1 1.2 1.4h.1c.2.9.7 1.7 1.6 1.9.9.3 2 .2 3 .4.8.1 1.7.1 2.5.1.6 0 1.1-.4 1.6-.7.1 0 .1-.1.2-.1.2.4-.2.6-.2.9 0 .5-.1 1-.1 1.5-.1.9-.4 1.8-1.4 2.1-.6.2-1.4.2-2.1.2-.4 0-.9-.1-1.4 0v-.2c0-.6.1-1.3-.2-1.8-.2-.4-.4-.6-.7-.9-.2-.5-.7-.9-1.2-1.2-.4-.2-.9-.5-1.3-.4-.6 0-1.2.3-1.8.3-.7 0-1.5 1.7-1.7 2.2-.3.5.2 1.5-.6 1.8-.5.1-1 .3-1.5.4-.3-.4-.8-1-1.2-1-.4 0-.6.4-.7.8-.1-.1-.3-.2-.4-.2-.5-.3-.7.2-.8.7-.7-.3-1.4.1-1.9.8h-.2c0-.1.1-.2.1-.3.4-1.5.6-3 .9-4.6.3-1.7.8-3.2 1.4-4.8.1-.2.1-.4.2-.5l.1.1c.5.6 1 1.3 1.7 1.7.3.1.6-.1.4-.4-.3-.5-.7-1-1.1-1.5-.2-.3-.4-.5-.5-.8-.1-.3-.1-.6-.1-1 .2-.7.3-1.5.5-2.2l.6-2.4c.4-.8.9-1.6 1.2-2.5.1-.2.2-.4.2-.6.4-.6.8-.9 1.2-1.1zm3.5 12c-.4-.6-.7-1.2-.4-2 .1 0 .3.1.4.1-.1.7-.1 1.3 0 1.9zM133.1 71c-.1 1.7-.3 3.4-.4 5.2 0 .6 0 1.2-.1 1.8-1-.3-2.1-.5-3.2-.7-1.1-.3-2.2-.7-3.2-1.2.2-.5.3-1 .5-1.5.3-1 .9-1.9 1.2-2.9.2-.8.5-1.7 1-2.3.2-.3.4-.6.5-.9.1-.1.2-.2.1-.4V68c0-.2-.1-.3-.2-.5 0-.1-.1-.1-.1-.1-.3-1 .1-2.5.1-3.3 0-1.4-.1-2.9-.3-4.3-.1-1.3-.2-2.6-.2-3.9v-1c.1-.1.1-.3 0-.4v-.2c-.2 0-.4-.1-.5-.2-.6-.4-1.2-.9-1.9-1.3-.5-.3-1.3-.6-1.6-1.1.9-.2 2.1-.2 2.7.3.3.2.7-.3.4-.6l-.1-.1c-.5-.4-1.2-.7-1.7-1.1l.6-.3.3.3c.1.1.3 0 .4.1.4 0 .9.2 1.3.2.2 0 .3-.2.3-.3.1-.9-.9-1.1-1.6-1.3-.5-.2-.3-.8 0-.6.4.2.9.3 1.3.4.7.2 1.1.2 1.7.2h.2c.2 0 .3 0 .5-.1.5 0 .5-.8 0-.7-.3 0-.6.1-1 .2-.4-.2-.7-.5-1-.9.7-.1 1.5.5 2.2.5l.3 1.5c.1.8.2 1.7.2 2.5v1.5c-.1 1.6.3 3.3.3 4.9 0 1.6-.1 3.1.1 4.7.1 2.6.6 5.3.9 8zM97.7 40.2c1.4-1.3 2.6-2.8 4-4.1 1.5-1.5 3.2-3 4.7-4.5 1.3-1.3 2.7-2.6 3.9-3.9 1.1-1.2 2.5-2 3.7-3.1.3.5.7.8 1.3 1.2.9.5 1.7 1.3 2.5 1.9 1.9 1.4 3.7 3 5.5 4.5.8.6 1.6 1.1 2.5 1.7.8.7 1.7 1.3 2.5 2.1.8.9 1.8 1.4 2.6 2.4.5.6 1.1 1.1 1.8 1.5 0 .1-.1.2-.1.3-.4.8-1 1.4-1.4 2.2-.2.4-.4.7-.5 1.1-.1 0-.1.1-.2.1-.5.8-1.3 1.9-1 3 0 .1.1.1.1.2-.4-.1-.8 0-1.2.2-.2.1-.2.3-.1.5.1.3.3.6.6.8-.5-.1-.9-.3-1.3-.5s-.9-.3-1.2.2c-.8 1.7 1.3 1.4 1.8 2-.5-.1-1-.2-1.5-.5-.6-.3-1.1-.2-1.4.3-.3.4 0 .8.4 1.2-.6 0-1.2.1-1.7.2-.2.1-.3.2-.3.4 0 .8.6 1.2 1.2 1.6-.5.8-1.1 1.4-1.4 2.2-.1.3.3.4.4.1.3-.8 1-1.4 1.4-2.1.4.2.7.4 1.1.6-.2.5-.5 1.1-.7 1.6-.2.4-.4.8-.5 1.2-1.2.2-2.5.4-3.7.4-1.4 0-2.7-.2-4.1 0-3.1.3-6.1.6-9.2.7-.1 0-.2 0-.2.1-.1-.1-.3-.3-.4-.5-.7-1.2-1.4-2.3-2-3.5-.2-.3-.4-.7-.6-1 .4-.1.8-.2 1.1-.2.3.6.6 1.2 1 1.8.3.5.6 1.4 1.3 1.4.2 0 .3-.3.1-.4-.2-.1-.6-.7-.7-.9-.2-.4-.5-.7-.7-1.1-.2-.3-.4-.7-.6-1.1.4-.2.6-.6.8-1 .2-.3-.1-.6-.4-.6-.6 0-1.2-.2-1.9-.2h-.1c.5-.3.8-.8.7-1.2-.2-.7-.7-.7-1.3-.8-.1 0-.2-.1-.4-.1.6-.1 1-.4 1-1.1 0-.4-.5-.8-.8-.9-.5-.1-1.1-.2-1.7-.2.3-.3.4-.7-.2-1.1-.4-.2-.9-.4-1.4-.5h-.5v-.1c0-.1.1-.3.1-.4 0-.2-.3-.3-.4-.2 0-.1-.1-.2-.2-.3-.8-1.3-1.5-2.4-2.1-3.6zm8 11.3h.2l-.1.1-.1-.1zm-8 48.7c.3-.1.5-.2.8-.4.4.1.8.3 1.2.2.1 0 .1 0 .2-.1-.1.9-.1 1.8 0 2.6s.3 1.7.4 2.5c.1 1.1 0 2.2.1 3.2 0 .4-.1.8-.1 1.3 0 .1.1.3.1.4-.1-.1-.3-.1-.4-.2-.4-.2-.7-.3-1.1-.4-.4-.1-.9-.5-1.3-.5-.8.1-1.6.2-2.4.4-1.5.3-2.9 1-4.1 1.9v-1c0-.2-.1-.3-.3-.4.1-.1.1-.2.1-.4-.1-.4-.3-.8-.3-1.2 0-.5.2-.9.3-1.4.1-.6 0-1.3-.2-2 .2-.2.4-.3.8-.5.7-.2 1.3-.6 1.3-1.3 0-.7-.5-1-1.2-1v-.5c0-.2.1-.5.2-.7.1-.2.1-.3.1-.5.5 0 1.1-.1 1.6-.1.7 0 1.4-.3 2.2-.3h.1c.3.4 1 .6 1.9.4zM94.6 99c0 .1.1.1 0 0-.3.1-.6.2-1 .3l.9-.6c0 .2.1.3.1.3zm1.5-3.9c.1.1.2.1.3.2-.1.3-.2.7-.4 1 0-.4-.1-.8-.2-1.2h.3zm-4.3-10.7c.3.3.6.5.9.7-.2-.1-.5-.1-.8-.2 0-.1-.1-.3-.2-.4 0-.1-.1-.1-.1-.1 0-.1-.1-.3-.1-.4.1.1.2.3.3.4zm-.8 1c0 .3.2.5.5.5 1.6 0 2.5 1.1 3.1 2.5.4 1.6.6 3.1.6 4.8 0 .5-.1 1.1.2 1.5.1 1.3.1 2.3-1 3.1-.7.6-1.7.7-2.4 1.3-.2.1-.2.4 0 .6-.1 0-.2 0-.3.1.1-1.3-.4-2.6-1.2-3.7.2 0 .5-.1.7-.2.5-.3 1.3-.8 1.3-1.5s-.6-.9-1.2-.8c-.4.1-.8.3-1.2.4l-.9.3c0-.1-.1-.1-.2-.1s-.1.1-.2.2c-.7-.4-1.6-.7-2.5-.9 0-.1 0-.3-.1-.4-.2-.7-.1-1.2-.1-1.9.1-1 .4-2.1.4-3.2.2-.2.3-.4.3-.7.1-.5.3-1.9 1-1.3.1.1.3.1.5 0 .1-.1.2-.2.3-.4.2.2.5.3.7 0 .3-.3.5-.6.9-.5.3 0 .5.1.8.1-.1.2-.1.2 0 .2zm-.2-5.8c-.1 0-.1 0 0 0-.1 0-.1 0 0 0-.1-.2-.1-.4-.1-.6 0 .3 0 .5.1.6zm0 4.7c-.4 0-.7-.2-1.1-.1-.3.1-.5.2-.6.3-.1-.1-.2-.1-.4-.1-.4.1-.6.6-.8 1-.3-.2-.7-.3-1.1 0-.4.3-.4 1.8-.9 2-.2 0-.3.2-.3.3-.3 1-.5 2.1-.5 3.1-.1-.7-.1-1.5-.3-2.2-.2-.9-.2-1.9-.3-2.8-.2-1.4 0-2.7 0-4.1.1-2.8.1-5.5.1-8.3 0-2.3-.6-4.8-.3-7.1.3.2.8.3 1.2.2.2 0 .3-.2.3-.4.3.1.6.2.7.2.6.1 1.1 0 1.6-.2v.2c-.1 1.6.2 3.2.5 4.8.3 1.7.5 3.5.6 5.2.2 1.6.3 3.1.7 4.6.1 1.2.5 2.3.9 3.4zm-2.9-28.2c.1 0 .2 0 .3-.1-.1.2-.3.5-.4.7 0-.2-.1-.5-.2-.7.1.1.2.1.3.1zm-4.5 2c.1-.3.2-.5.4-.6.1.2.5.3.7.2.1 0 .1.1.2.1 0 .1.1.3.1.4-.5.8 1.2 2.7 1.4 3.2.1.2.4.2.4 0 .3-1-1-1.7-1.1-2.7.2-.1.3 0 .5 0 .3.1.6.4.8.6.5.5.9 1.3.9 2 0 .2.3.3.4.1.3-1.4-.9-3.5-2.4-3.5 0-.2-.1-.3-.1-.5-.1-.4-.1-.9-.1-1.4 0-.4.2-.7.6-.4.6.3 1.2.9 1.1 1.6 0 .2.2.3.4.2 0 .4.6.4.6 0 .1-.8.6-1.2.9-1.9.3-.8.7-1.6 1.1-2.3.1 0 .2.1.3.1 0 .2-.1.4-.1.5-.3 1-.5 2-.9 2.9-.3.6-.6 1.1-.6 1.7v1.3l-.6 2.1c-.2 1.1-.3 2.3-.3 3.5h-.2c-.9.3-1.8.2-2.6-.1-.2-.1-.4 0-.5.1-1.5-1-.1-3.3-1.4-4.6-.7-.8.2-1.1.3-1.8.1-.1-.1-.5-.2-.8zm-.8.4c.1.3.2.4-.1.7l-.2.2c.1-.3.1-.6.3-.9zm0 5c-.2-.5-.3-1-.5-1.5-.1-.3 0-.7 0-1 .1.2.2.3.3.5.3.4.5.5.5 1V64c0 .7.3 1.4.7 1.9-.1.4-.2.8-.2 1.2V67c-.1-1.2-.4-2.4-.8-3.5zm-13.8-7c0-.1.5.1.7.2-.2-.1-.5-.1-.7-.1v-.1zm-3.7 4.1c.3-.3.3-.5.2-1 0-.2 1-.5 1.2-.7.2-.2.2-.5 0-.7 0 0-.1 0-.1-.1.8 0 1.6.2 2.3.5.3.2.8 0 .8-.4.6.3 1 .7 1.6 1.1 1.1.7 1.9 1.6 2.8 2.3 1.1.9 1.6 2.3 1.6 3.7 0 .1-.1.3-.1.4-.1-.3-.3-.6-.5-.9-1-1.2-2.7-1.7-4-2.5-.5-.3-1.2-.8-1.8-.8h-2.5c-.9.1-1.5.7-2 1.5-.1-.2-.2-.3-.4-.2v-.2c-.1-.9.2-1.4.9-2zm-.5 2.7c0 .1-.1.1-.1.2v-.1c0-.1 0-.2.1-.1-.1 0 0 0 0 0zm-.6 1.5c.1 0 .2-.1.3-.1l.1-.1.1-.1v-.1c.3-.8.8-1.5 1.5-2 .5-.4 1.5-.2 2.2-.2 1.5 0 2.5.9 3.8 1.5 1.1.5 2.9 1.4 3 2.7.1.8-.1 1.6.3 2.4v.2H75c-.6 0-.6.8 0 .9.2 0 .3 0 .4.1 0 .2 0 .4-.1.6-.1.3-.3.6-.4 1h-.6c.4-2.1.1-4.1 0-6.2 0-.2-.3-.2-.3 0 0 .9.1 1.8.2 2.7.1.9.3 2 0 2.9 0 .1-.1.4-.2.7-.2.1-.3.2-.4.4l-.3.9c-.1.3-.3.6-.4.9h-.1c-.1-.1-.2.1-.1.2h.1c-.2.5-.5 1.1-.5 1.7-.5.9-1.4 1.5-2.3 2.1-1 .6-2.2.9-3.3.6-1.4-.4-2.1-2.2-2.5-3.4-.8-2.2.5-4.4 0-6.7-.1-.4-.3-.9-.4-1.3.1-.9.1-1.7.2-2.3zM59.5 68v.3c-.2-.4-.4-.8-.5-1.4 0-.2-.1-.3-.1-.5.4.5.5.9.6 1.6zm-6.8-35c-.2 0-.3.1-.5.2.1-.1.3-.2.5-.2zm.2.7c0 .2-.1.4-.1.5-.1-.1-.2-.1-.3-.1.1-.3.2-.4.4-.4zm-3.6 1.9v-.2l.3-.3h.2c.2 0 .4-.2.4-.4h.2c.3 0 .5 0 .7-.1.1 0 .2 0 .2.1 0 .4 0 .8.1 1.2 0 .2.1.4.3.5-.1 0-.1.1-.1.2s-.2.5-.3.5c-.2-.1-.4-.1-.6 0-.5.1-.8.8-1.3.4-.3-.3-.2-1-.2-1.3.1-.2.1-.4.1-.6zm-.7 2.3v-.1c0 .1.1.1.1.2l.1.1h-.3c0-.1.1-.1.1-.2zm-.6-.2c-.1-.2-.1-.5-.1-.7v-.3l.6-.6c0 .5-.1 1.1.1 1.6-.1-.1-.2-.1-.3 0-.1.1-.1.2-.2.3 0-.1-.1-.2-.1-.3zm1.1 6.3c-.1-.6-.2-1.1-.3-1.7 0-.1-.1-.2-.2-.3l-.3-1.5c.3 1 .4 2.1 1.2 2.8-.3.1-.4.4-.4.7zm-.2-3.5c-.2-.5-.5-1.2-.5-1.9.3 0 .5-.1.7-.2.5.2 1 .1 1.5-.3.3-.3.8.2 1.1-.2.2-.2.4-.5.4-.8.2.3.3.6.2.9-.1.3-.4.5-.5.9-.1.4 0 .9.1 1.2 0 .2.4.2.4 0 .1-.7.1-1.2.5-1.8.2-.3.2-.6.2-1-.1-.3-.5-.8-.7-1-.3-.4-.3-.6-.3-1.1 0-.6 0-.5.4-.1.7.6 1.3 1.4 1.7 2.2v.4c-.2.1-.3.3-.3.5 0 .7-.1 1.3-.3 2-.1.6-.1 1.2 0 1.9-.5.1-1 .3-1.6.4-.5 0-1.3.2-1.8.4 0 0-.1 0-.1.1-.3-1-.8-1.6-1.1-2.5zm2 24.7c-.3-1.3-.6-2.6-.7-4-.2-1.3-.1-2.6-.1-3.9 0-1.2-.3-2.4-.2-3.6.1-1.3.3-2.5.3-3.8v-4c0-.3-.2-1.6 0-1.8.1-.1.1-.2.2-.3.3-.2.5-.3.9-.3.3 0 .5-.1.7-.2.4-.2 1-.3 1.4-.3.1 0 .2 0 .2-.1h.2l.3 2.4c0 .6 0 1.2.1 1.8v.9c.1 1.8.3 3.6.7 5.4.3 1.5.6 3 1 4.5.1.4.2.7.3 1.1.4 1.5.6 3.2 1.3 4.6.2.4.4.8.7 1.2.4 1.5.5 3.1 1.5 4.3.1.1.2.3.3.5.1.6.2 1.3.6 1.9.1.7.2 1.4.5 2.1.3.6.7 1.1 1.1 1.7.2.3.6.6.9.8.1.1.5.2.6.3.1.2.5.2.5-.1 0-.1 0-.2-.1-.3 0-.1-.1-.1-.1-.1s.1-.1.1-.2v-.2c.4 1.2.9 2.6 2 3.3 1.2.8 2.4.7 3.7.2 1.1-.5 2.4-1.1 3.2-2.1.4.6 1 .9 1.7 1.2.7.3 1.4.3 2.1.4h.2c.6.1 1.2.2 1.9.2.3 0 .6.1.8.1.6.1 1.3.1 1.9.1.1 0 .2 0 .3.1.3.2.8-.1.8-.4.3-.2.6-.4.8-.7.1-.1.1-.3.2-.4V85c0 1 .3 2 .4 3 .2 1.2.4 2.5.6 3.7.1.6.2 1.1.4 1.7-.8-.1-1.6 0-2.3.1-2.1.3-2.9 3-3.1 4.7-.1.6 0 1.1 0 1.7 0 .3.2 1.3.1 1.5-.2.4-.1.8 0 1.2.1.6.1 1.3.2 1.9.2 1.2.6 2.5 1.4 3.3v.1c0 .6 0 1 .2 1.4 0 0 0 .1-.1.2v.1c-.1-.1-.3-.2-.4-.1-.8.3-.9.1-1-.6-.1-.5-.5-1.1-.7-1.6-.6-1.3-1.4-2.5-2.1-3.8-.8-1.4-1.6-2.7-2.5-4.1-.8-1.2-1.6-2.7-2.7-3.8-1.4-1-2.1-2.4-3.1-3.6-1-1.2-2.1-2.5-3.1-3.7-.5-.6-1-1.3-1.5-2-.3-.6-.5-1.2-.8-1.8-.4-.8-1.4-1.1-2.1-1.6-.2-.1-.4 0-.5.1-.8-1.2-1.2-2.9-1.9-4.1-.6-1.1-.4-1.9-.1-3.1.2-.9.5-1.7.6-2.6.2-1.1-.3-2.7-1.2-3.4-.6-.5-1.9-1.2-2.6-.5l-.1.1c-.4-.3-.9-.3-1.5 0-.8.5-1.4 1.2-2.1 1.8-.1-.3-.1-.7-.2-.9-.1-.5-.3-1-.4-1.5-.3-1.2-.4-2.4-.6-3.6zm4.3 7.9c0 .2 0 .3.1.5 0 .6-.2 0-.3-.1-.2-.2-.6-.5-.9-.4-.2.1-1 .8-1.3.5-.1-.2-.3-.3-.4-.5-.4-.4.3-.8.6-1 .5-.4.8-.9 1.3-1.4.6-.6 1.1-.5 1.7-.3h-.1c-.3 0-.3.4-.1.5.4.2 1.1 1.1.2 1.4-.2.1-.3.1-.5.2-.3 0-.3.2-.3.6zm-.6 6.2c-.4-1.2-1-2.4-1.6-3.4-.3-.5-.9-.9-1-1.5v-.2c.5.5 1 1.1 1.8.4.3-.3.4-.7.8-.5.4.1.3.4.7.4.6 0 .6-.6.6-1.1-.1-.6.4-.6.8-.9.3-.1.4-.5.4-.8 0-.4-.3-1-.7-1.2.1 0 .1.1.2.1.2.1.3-.3.2-.4l-.2-.2c.2-.1 1.1.4 1.3.4.7.4 1.1 1.6 1.1 2.3.1 1.4-.7 2.8-.9 4.3-.1 1.3.5 2.2 1.1 3.4.5 1.1.9 2.3 1.7 3.3-.3.3-.6.7-1 1-.6.6-1.3.9-2.1 1.1 0-.1-.1-.2-.3-.2-.1 0-.2 0-.4.1-.4-.8-.7-1.7-1-2.6-.6-1.3-1.1-2.6-1.5-3.8zm1.6 9.3c-.2-.1-.4-.1-.6-.1.1-.2.1-.5.1-.8.1.3.3.6.5.9zm-5.3 2.3c1-.1 2.1 0 2.7-.9.5-.8 1.8-.6 2.6-.4.4.1.7.3 1 .6.7 1.1 1.4 2.2 2 3.4.8 1.6 1.4 3.3 2.2 4.9.2.3.3.7.5 1-.1.1-.1.1-.1.3 0 1.1.2 2.1.1 3.2 0 .9-.3 1.8-.4 2.7-.1 0-.2.1-.1.3 0 .6.1 1.1.3 1.6.2.7.2 1.4.2 2.1 0 1 .6 2.6.2 3.6-1.9-1.9-3.6-3.9-5-6.1.6-.1 1.3-.4 1.7-.6 1.9-.8 1.4-2.7 2-4.3.1-.2-.2-.3-.3-.2-.4.4-.5.9-.6 1.4-.2 1-.4 1.6-1.3 2.1s-1.8.7-2.8.8c-.8.1-1.5.3-1.9-.5-.3-.4-.4-.8-.6-1.2-.4-.8-1-1.5-1.3-2.3-.3-.9 0-2.1-.2-3-.2-1.1-.5-2.2-.7-3.3-.1-.4-.1-.8-.1-1.1.2.1.3-.2.2-.4-1-1.3.3-1.1.7-1.1.3 0 .7-.2 1-.2.8 0 1.4-.4 2.2-.5.3 0 .4 0 .6-.1.4-.1.3-.5.8-.4.8.1 1.4.6 2.1 1 .1.1.3-.1.2-.2-.6-.7-1.4-1-2.3-1.2-.3-.1-.5.1-.7.3-.2.2-.6.1-.9.1-.3 0-.6.2-.9.3-.6.2-1.2-.1-1.8.2-.3.2-1.1-.1-1.4.3-.1.1-.2.3-.3.5h-.1c-.2-.2-.4-.3-.7-.5-1-.5.1-.7.5-1 .6-.5.8-.8.7-1.2zm-1.3-.1c.4.4.2.3-.2.4-.2.1-.4.1-.6.2.1-.2.1-.4.1-.6h.7zm-3.4-15.9l.2.2c-.2-.1-.4-.1-.6-.1.1-.1.2-.2.4-.1zm-6.4 3.2c.2-.3 0-.7.5-.7.5-.1 1.1.3 1.7.4.2 0 .5-.2.5-.4v-.2c.3-.1.5-.3.8-.3.2 0 .4-.1.5-.1.6.1 1.2 0 1.6-.4 1-.9 2.1 2.3 2.3 2.8.2.4.6.5.9.2.3.5.6 1.4.7 1.6.1.2.2.4.2.6-.2 1.3-.7 2.5-.9 3.7-.1.3.1.7.5.8 0 .1.1.2.1.4-.1.1-.2.2-.3.2-.2.2.1.6.3.4v.4c-.8.7-.9 1.9-.9 2.9 0 .1 0 .2.1.3-.1.5-.3 1.1-.9 1.4-.8.5-2.6.9-3.5.5-1.7-.8-1.9-2.8-3.3-3.7-.3-.8-.5-1.6-.7-2.3 0-.2-.1-.3-.1-.5-.1-.7-.3-1.4-.5-2-.1-.5-.2-.9-.2-1.4-.1-1.7-.1-3.2.6-4.6zm.6 11.3c-.3-.1-.5-.3-.7-.4l.1-.1c.1-.1.2-.2.2-.4.1.4.3.7.4.9zm-1.2.6c.5.3 1.1.5 1.6.8.3.2.5.4.9.4h.2c.1.3.3.6.5.8.8.7 1.5 1.3 2.6 1.3 1 0 2.3-.4 3.1-.9h.1v.1c0 1.1 1.2 1.5 2.1 1.9.2.9.2 1.9.3 2.8.2 1.5.6 2.9.6 4.4 0 .6.2 1.1.4 1.5-.8-.5-1.7-.9-2.2-1.1-1.5-.6-3-.9-4.2-2.1-.5-.5-1-.9-1.5-1.3-.3-.3-.7-.4-1-.7 0 0-.1-.1-.2-.1-.8-.7-1.7-1.5-2.4-2.3-.7-.8-1.3-1.7-2.1-2.5-.7-.7-1.4-1.3-2.1-2 0-.1.1-.3.2-.4.2-.3.5-.6.8-.9.3-.3.6-.7.8-1.1.4.4.9 1 1.5 1.4zm-3.1-3.3c.3.4.6.8.9 1.1.1.1.2.2.3.2-.4.6-.8 1.1-1.3 1.7.2-1 .1-2.1.1-3zm1.3 0c-.5-.5-.9-1-1.2-1.8-.4-.9-.5-2-.6-3v-.1c.1 1 .4 2 .9 3 .3.7.7 1.2.9 1.9zm5.1-21.2c-.5.3-.9.3-1.3.3l.3-.3c.4-.1.8-.1 1.2-.2l-.2.2zm2.7-5.4c.1 0 .2.1.2.1h.1-.4c.1 0 .1-.1.1-.1zm-1.1-.6c.1.1.3.2.4.2 0 .1 0 .2-.1.2-.1.1-.3.2-.5.2 0-.2-.1-.4-.2-.5-.1-.2-.2-.3-.3-.5.2.2.4.3.7.4zm-1.8-.4h.5c0 .1.1.2.2.3.2.3.3.7.4 1 0 0-.1.1-.2.1-.1-.1-.4 0-.4.1v-.1c0-.4-.2-1-.6-1.4h.1zM35.6 69c.7-1 1.3-1.9 1.8-3 .7-1.3 1.2-2.6 1.6-4 .5-.8 1.1-1.5 1.8-2.2.2-.2.3-.3.5-.4l.1.1c.3.3.5.7.5 1.2 0 .6-.4.1-.4-.2-.1-.4-.7-.3-.7.1.1.7.3 1.2 1 1.3.4.1.6-.2.7-.5h.2c.1.3.3.5.6.5s.6-.2.9-.4c.4-.2.4-.4 1-.5 0 .2-.1.3-.2.5-.3.7-.9 1.4-1.5 1.8-.4.3-.7.8-1.2.9-.9.2-2.1.2-2.5 1.1-.1 0-.1-.1-.2-.1-.2-.1-.4.2-.3.3l.3.3c0 .1 0 .2-.1.3-1.2 1-1.8 2.7-2.3 4.1-.4 1.1-.6 2.3-.9 3.4-.4 1.2-.8 2.3-1 3.6-.4 2.1-.7 4.5-.6 6.7.1 1.2.5 2.2.5 3.4 0 .7.1 1.4 0 2.1-.1-.9-.1-1.8-.4-2.7-.4-1.5-.9-2.9-1.2-4.3-.1-.7-.2-1.5-.3-2.3 0-.7-.4-1.4-.4-2-.1-1.2-.3-2.4-.5-3.6 0-.1 0-.2-.1-.2.9-.4 1.4-1.3 1.8-2.2.7-1.2 1.1-2.1 1.5-3.1zm-.9-1.2l.1-.1c-.4.9-.7 1.8-1.2 2.6-.2.4-.4.8-.5 1.2-.1.2-.3.4-.4.6-.1.1-.2.2-.3.4-.1-.7.1-1.6.1-2.2 0-1 1.5-1.8 2.2-2.5zm-7.6 6.3v-.2c0-.1 0-.1-.1-.2-.1-.8 0-1.6 0-2.5 0-1.2-.2-2.3-.2-3.5 0-.4 0-.8.1-1.2.1-.3.7-.7.9-1 .2-.3.2-.8.4-1.1 0 0 .1 0 .1-.1.5-.2 1 .1 1.5-.1.3.3.8.1.8-.3v-.4c.1-.2.2-.5.3-.7.1-.4.5-.2.8-.1.6.3.7.7.5 1.3v.2c-.6-.1-1.3 0-1.7.3-.3.2-.1.6 0 .9.1.3.4.4.7.4v.5c0 .4.6.4.6 0 0-.3 0-.6.1-.9 0-.2-.2-.3-.4-.4-.4 0-.4 0 0-.1.3 0 .5 0 .7.2v.2c.1.4.4.5.6.8 0 0 .2.1.3.3 0 .1.1.1.1.2.1.3-.4.8-.6 1-.2.1-.4.3-.5.5-.6.6-1.1 1-1.1 1.9-.1 1-.1 2 0 3 0 .3.2.6.4.9 0 .1 0 .1.1.2v.1c0-.1-.1-.1-.2-.1-.5 0-.5-.3-.9-.3s-.8-.1-1.1 0c-.4 0-.8.2-1.3.2-.3 0-.6.2-1 .4.1-.2.1-.3.1-.3zm9.3 29.3c0-.1-.1-.2-.1-.2-.4-.6-.8-1.1-1.3-1.6-.6-.9-1.3-1.8-1.9-2.8-1.6-2.6-2.4-5.4-3.5-8.3 0-.1-.1-.2-.1-.3-.1-.9-.2-1.8-.5-2.7-.2-.5-.3-1.1-.5-1.7-.1-1.5-.3-2.9-.7-4.3 0-.2-.1-.3-.1-.5-.1-.8-.1-1.7-.2-2.5-.2-1.1-.3-2.3-.3-3.4.8-.1 1.6-.5 2.5-.6.7-.1 1.4.5 1.9 0 0 .2 0 .5.1.7 0 .1.2.2.3.1.2 1 .3 2 .4 3 .1.7.4 1.4.4 2.1 0 .8.2 1.7.3 2.5.3 1.8 1 3.5 1.2 5.3.1.7 0 1.3 0 2s.4 1.2.8 1.7c.4.6.9 1 1.4 1.5.6.6 1 1.2 1.6 1.8 1.2 1.1 2.3 2.1 3.4 3.3.1.2.3.3.5.5-.3.6-1 1.2-1.3 1.5-.7.6-1.5 1.1-2.2 1.6-.7.4-1.5.8-2.1 1.3zm4.7 12c.1.2.2.4.2.6.1.3.2.7.3 1.1-.2-.6-.4-1.2-.5-1.7zm10.5 53.8c-4.7 0-9.3.1-13.9.2h-2.1c0-.8.1-1.5.2-2.3.1-.3.1-.5.2-.8v-.2c.1-.5.2-1 .4-1.4.3-1 .8-2 1.2-3 .4-1.1.6-2.2.9-3.4.5-2 .7-4.1 1.2-6.1.2-1 .3-1.9.4-2.9 0-.6.1-2.1.7-2.4.1-.1.2-.2.2-.3h.5c.8 0 1.6.3 2.4.4 1.6.3 3.2.6 4.8.6.7 0 1.4-.1 2-.2.8-.1 1.6 0 2.4.1 1.7.1 3.5.5 5.2.8 1.4.2 2.9.2 4.3.3.7 0 1.4.5 2.1.6.8.2 1.6.3 2.4.5.4.1.7.1 1.1.1.7 0 .8-1.1.2-1.2-.6-.1-1.2-.4-1.9-.5-.8-.2-1.7-.2-2.4-.5-1.2-.5-2.5-.4-3.8-.4-3.2-.1-6.2-1-9.4-1-.7 0-1.4.2-2 .2-.8.1-1.5 0-2.3-.1-1.5-.1-3-.5-4.6-.6-.5 0-1.2.2-1.6-.1.5-2.4 1-4.7 1.7-7.1 1.3-4.7 2-9.7 1.4-14.6.1-1.1.1-2.2 0-3.3-.3-2.9-.9-5.6-2.5-8.1-.4-.7-.8-1.4-1.3-2.2v-.1c-.4-1.2-1-2.4-1.8-3.4l-.1-.1c0-.2 0-.4-.2-.6l-.2-.2c-.2-.4-.4-.7-.5-1.1-.1-.1-.1-.3-.2-.5.4-.5.8-.8 1.3-1.1.8-.5 1.5-1.1 2.3-1.7.6-.4 1.5-1.2 1.9-2 .2.1.5.2.8.1.1 0 .1.1.2.1.3.3.6.6.9.8l1.5 1.2c1 .6 2.2.8 3.4 1.2.4.1 2.8 1.1 3.5 1.9.1.1.1.3.2.4v.2c-.1.2.1.4.3.4.1.2.3.4.4.6.7.8 2 .9 3.2.7 1.1 2.1 2.6 3.9 4.2 5.6v.1c.3.9.8 1.6 1.3 2.3.1.1.1.2.2.3-.3 0-.6.1-.9.3h-.2c-.4-.2-.7-.7-1-1-.6-.7-1.3-1.3-1.9-2-1.4-1.7-2.7-3.4-3.8-5.3-.2-.3-.6 0-.4.2 1.1 2.1 2.6 3.9 4.1 5.7.7.9 1.5 1.6 2.3 2.4.2.2.4.3.5.4 0 0 0 .1-.1.1-.8 1.3.3 2.8 1.5 3.3s2.7-.3 3.1-1.5c.3-.8 0-2-.8-2.4.1-.4-.1-.9-.1-1.2-.1-1.1-.1-2.2-.2-3.2s-.3-2-.3-3c0-.6-.1-1.3-.4-1.8-.3-.5-.7-.4-1.1-.6.2-.9.3-1.8.4-2.7 0-.8-.1-1.6-.2-2.4.4.7.8 1.5 1.1 2.2.7 1.6 1.3 3.3 1.8 5 .4 1.4 1.2 2.7 2.1 3.9.5.7 1.1 1.4 1.4 2.2 0 .1.1.3.2.4 0 2.6.6 5.2.7 7.8.1 1.3.1 2.6.3 3.8.2 1.5.4 2.9.5 4.3 0 1.2.4 2.3.4 3.5 0 1.5-.3 2.9-.5 4.4-.2 1.4-.3 2.9-.5 4.3s-.6 2.7-.8 4.1c-.2 1.1-.5 3.6 1 3.6 0 0 0 .1.1.1-.1.7-.2 1.3-.3 2-.1.8-.3 1.6-.4 2.5-.1 1.7.2 3.3.3 4.9.1 1.7-.1 3.3-.1 5 0 .8.2 1.6.4 2.4.2.7.1 1.3.4 1.9v.1c-6.7 0-13 .1-19.3.1zm47.8-.2c-4.5 0-8.9 0-13.4.1.1 0 .3-.1.3-.3.5-1.8.6-3.8.5-5.7.2-.9.1-1.8.5-2.7.1-.3 0-1.1.4-1.3.2-.1.3-.5.4-.7.1-.2-.2-.4-.3-.2-.4.5-.8 1.2-1.1 1.9 0-.7 0-2.3.4-2.9.2-.3-.2-.6-.4-.3-.5.6-.4 1.2-.6 1.8-.3.9-.1 2.2-.1 3.2v3.7c0 1.1-.6 2.3-.3 3.4 0 .2.1.2.3.3-5 0-10 0-15 .1.1-.1.1-.2.1-.3-.2-.6-.1-1.3-.2-1.9-.2-.8-.3-1.7-.3-2.5 0-1.7.3-3.3.3-5 0-1.5-.2-3.1-.1-4.6 0-1.6.5-3.1.1-4.7 1.1-.3 2.2-.5 3.4-.6 1.3-.2 2.5-.4 3.7-.6 2.5-.5 5.3-.6 7.9-.3 1.4.2 2.7.4 4.1.3.4 0 .8-.2 1.2-.4.6-.3 1.2-.4 1.8-.4l-.3.6c-.4.9-.7 1.8-.8 2.7-.3 1.9-.4 4 .1 5.9.3 1.1-.2 2.9 1.4 3.1 1.2.2 2.9-.3 3.7-1.1.5-.5.7-1.5.9-2.1 0 .8.2 1.7.3 2.4.1 1.2.3 2.4.5 3.6.2 1.3.4 2.5.6 3.8.1.6 0 1.2 0 1.8v-.1zm10.9-.6c0 .1-.1.3-.1.5h-9.5c0-.4-.1-.8-.1-1.2 0-1.2-.4-2.3-.5-3.5-.1-1.2-.4-2.5-.7-3.7-.1-.6-.3-1.2-.4-1.9-.1-.7-.4-1.5-.3-2.2.1-.3-.2-.4-.4-.4.3-.7.5-1.5.7-2.3.5-2 .7-4 .6-6 .4-.9 1-1.8 1.5-2.6.9-1.7 1.9-3.4 2.5-5.2.6-1.6 1.7-3.6 1.7-5.3v-.2c.6 0 1.2-.1 1.9-.3 1.1-.3 2.1-.3 3.2-.5.3.7.4 1.4.7 2.1.6 1.5 1.2 2.9 1.2 4.5 0 3.4-1.2 6.5-2.6 9.6-.2.1-.3.2-.3.4v.4c-.1.2 0 .3 0 .4.2 1.1 1.4 1.7 2.5 2 .2 1 .2 1.9.3 2.9.1 1 .3 2 .4 3 .1.8.2 1.6.2 2.4V161.6c-.1 1.4-.7 2.5-1.4 3.6-.5 1-.8 2.2-1.1 3.2zm42.6-5.7c-.2.5-.2 1-.2 1.5 0 1.5-.7 2.9-.4 4.4 0 .1.1.2.2.3h-41.1c.1-.7.4-1.3.6-1.9.5-1.7 1.2-3 1.3-4.6 2 1.5 4.7 2.5 7.2 2.1 0 .3-.1.6-.2 1s-.2.8-.2 1.2v.3c0 .5-.2.3.3.4-.4-.1-.8.3-.6.8.7 1.2 1.4-.3 1.4-1v-.9.2c.1.3.5.2.4-.1-.1-.6.2-.3.6-.1.3.1.6.3.9.5.8.6 1.8 1 2.8 1.3 1 .3 2.1.4 3.1.2 1.5-.4 3.1-.7 4.7-.6.5 0 .9 0 1.4-.1.6-.1.8-.3 1.4-.2.8.1 1.7.3 2.4-.2.8-.6.4-2.5.3-3.3 0-.6-.1-1.2-.1-1.8.1.2.1.4.2.7.2.7.1 1.5.2 2.2.2 1.1 1.2 1.7 2.2 1.9.7.1 1.4.1 2.1.4.5.3 1.1.7 1.7.7.9 0 1.7-.4 2.6-.4.5 0 1.2.4 1.7.5.9.1.9-1.3 0-1.4-.5 0-.9-.3-1.4-.4-.5-.1-1.2 0-1.7.2-1 .2-1.6.3-2.5-.1-.5-.2-.9-.4-1.4-.4-.5 0-1 0-1.5-.1-1-.2-1.1-1.3-1.1-2.1 0-1.3-.5-2.4-.9-3.6-.1-.4-.8-.5-.9 0-.1.3-.3.4-.4.6-.2.5-.1 1.1-.2 1.7-.1 1.1-.2 2.2-.2 3.4-.6.1-1.4-.2-1.8-.2-.4 0-.8.3-1.1.4-.4.1-1 .1-1.4.1-2.2.1-4.3 1.1-6.6.9-1.7-.2-2.9-1.2-4.4-1.6-.6-.2-1 0-1.1.3v-2.4c.2 0 .4-.1.5-.2.4-.7.5-1.7.5-2.5 0-1.1.3-2.2.2-3.3-.1-.7-.2-1.1-.1-1.8.1-.4.1-.9.1-1.3v-.3c0-.1.1-.2 0-.3v-1.5c.1-.3.1-.7.2-1 .1-.5.4-1.2.5-1.6.6-1.5.8-3.2 1.2-4.7.5-1.6.8-3.2 1.2-4.8.4-1.5.5-2.7.2-4.2-.4-1.5-1-3-1.3-4.6-.4-1.8-.2-3.6.1-5.4.3-1.6.4-3.3.4-5 0-.6.1-1.3.1-1.9 0-.5-.1-.9-.2-1.3.7-.2 1.3-.4 2-.7 1.2-.7 2.5-1 3.9-1.5.5-.2 1.1-.3 1.6-.5s.9-.7 1.4-.9c.9-.4 1.7-.7 2.5-1.3 0 .4-.1.7-.2 1.1-.2 1-.2 2.1-.2 3.2 0 .9.4 1.8.5 2.7l.3 1.5c-1.7-.3-2.3 2.5-1.2 3.8.8 1 2.7.7 3.3-.2.4-.6.4-1.1.3-1.8 0-.1 0-.2-.1-.3.3-.3.4-.5.6-.9.4-.6.9-1.3 1.3-2 .5-.7.8-1.5 1.3-2.2.5-.8 1.1-1.5 1.6-2.3 1.1-1.5 2-3.1 2.9-4.7.4-.7.6-1.3.7-2 .1-.7-.3-1.3-.5-1.9h.2c1.5-.1 2.8-1 4.2-1.4.6-.2 1.1-.2 1.7-.4.7-.2 1.3.3 1.9.3 1 .1 1.7.4 2.2-.7.3-.8.4-1.5.9-2.3.5-.8 1.4-1.3 2-2.1.8-1.2 1.5-1.9 1.4-3.4-.1-1.8-.6-3.5-.7-5.2-.1-1.6-.2-3.3-.5-4.9-.3-1.6-.9-3-1.5-4.5-.1-.3-.5-.4-.7-.3-.3-.3-.7-.6-1-1-.4-.4-.9-.8-1-1.4 0-.4.9.4 1 .4.8.7 1.5 1.2 2 .1.4-.7 1.1-2.2-.4-2.4-.7-.1-.6.5-1.2.6-.2.1-.5.4-.8.6-.1-.1-.2-.1-.3-.2 0-.1.1-.3.1-.5s-.1-.4-.2-.4c-.6-.2-.2-.7 0-1 .3-.5 1.2-.3 1.7-.2 1 .1 2.5-.2 2.7 1 .1.3.1.7.1 1 0 .5.2 1.2.3 1.7.2 1.2.3 2.4.7 3.6 0 .1.1.2.2.2.1.5.2.9.2 1.3.3 2.7 1.5 5.1 2.2 7.7.4 1.3.9 2.7 1.2 4 .2.8.2 1.5-.2 2.3-.3.5-.5 1.1-.8 1.7-.5 1.3-1.1 2.4-1.8 3.6-.4.6-.5 1.4-.7 2.1h-.1c-.7-.1-.9-.5-1.5-.7-.4-.1-.6-.1-1-.1-.6.1-.8-.2-1.3-.5-.2-.1-.5-.1-.7 0-.1 0-.2.1-.3.2-.4.2-.8.1-1.2-.1-.3-.1-.6 0-.7.2-.1.1-.4.9-.6.8-.3-.2-.5-.3-.9-.3-.2 0-.5.2-.5.5.1.9.2 1.9.7 2.7-.7.5-1 1.7-1.2 2.5-.1.8-.4 1.6-.5 2.5-.1 1 .4 2-.1 2.9-.1.2.1.3.2.3 0 1.2.2 2.2 1.1 3.3.3.4.4.8.6 1.3-.6-.4-1.3-.8-2-1-.3-.1-.6.3-.3.6.5.6 1.4.7 2.1 1 .2.1.4.3.6.4 0 0 0 .1.1.1.1.2.2.3.4.5-.1.9-.1 2-.1 2.1 0 1.4.3 2.8.6 4.2.3 1.6.5 3.1.8 4.7.3 1.6.6 3.2.9 4.7.2.8.3 1.6.6 2.3.2.6.1 1.5.1 2.1 0 .4.2.9.6 1-.5.3-.9.9-1.2 1.6-.6 1.5 1.4 3.2 2.7 3.3 1.4.2 2.1-2.1 2-3.2 0-.9-.6-2.2-1.5-2.8.5-1.9 1.3-3.7 1.4-5.7v-3.6c0-1.2.5-2.4.7-3.6.4-2.2 1.5-4.3 2-6.5.2-.8.4-1.9.3-2.7v-.2c.9-.7 1.9-1.2 3-1.6 1.1-.4 2.4-.3 3.6-.2 1.2 0 2.3.3 3.5.2.7 0 1.3-.1 2-.2 1-.1 1.3.2 1.3 1.2 0 1.3 0 2.7-.1 4-.1.9 0 1.9.5 2.8-.3 0-.7 0-1 .1-.5.2-.9.4-1.3.6 0 0-.1 0-.1.1-.1-.4-.7-.4-.8.1v.1c-.2 0-.5 0-.7.2-.3.2-.3.7 0 .9.2.1.5.2.7.2 0 .7.1 1.4.1 2.1 0 .2.1.3.1.5v1.2c0 1.3-.1 2.5-.1 3.8-.1 1.5-.1 3-.1 4.5 0 1.4-.2 2.9-.2 4.3 0 .6.1 1.1.2 1.7.2.9.2 1.7.2 2.7 0 1.4.2 2.6.5 3.9.3 1.2.2 2.2 1 3.2.5.7.9 1.4 1.1 2.2.1.4.2.8.2 1.2-.5-.3-1-.6-1.6-.7-1-.2-2.2-.1-3.2 0-1.2.1-2.3.3-3.5.4-1.2.1-2.5.1-3.7.2-1 .1-1.7.7-2.6 1.1-1.2.5-2.4.7-3.7.8-1.1.1-2.4.2-3.5-.3-.5-.2-.9-.6-1.4-.8-.5-.2-1-.2-1.5-.4-.2-.1-.5 0-.6.2-.3 0-.3-1.6-.3-1.7 0-.7.2-1.4.4-2.1.3-1.4.4-2.8.5-4.2.3-3.1.3-6.2.4-9.3.1-3.2.2-6.4.1-9.6 0-.6.2-1.1.1-1.6s-.4-.8-.5-1.2c-.2-1.1-1.1-2-1.8-2.9-.3-.3-.8.1-.5.5.4.5.8 1 1.1 1.5.3.5.3 1.2.7 1.7.5.6 0 1 0 1.6 0 .9-.1 1.7-.1 2.6-.1 3.2-.2 6.3-.4 9.5-.2 2.9-.1 5.8-.3 8.8-.2 2.2-1 4.9.1 7 0 .1.2.2.3.1.2 0 .3-.1.4-.1.1.1.2.2.3.2-.2-.3-.5-.3-.6.1zm4.4-83.7c0-.1.8-.6 1-.8.2-.2.9-.4.8.3-.1.3-.2.5-.3.8-.1.1-.1.7-.4.5l-.9-.6-.2-.2zm-4.2 89.9c.1-.1.2-.2.2-.3.3-1.2.3-2.6.5-3.9.1-.6-.4-1.6.1-2.1v-.1c.3.2.7.3 1.1.5.9.6 1.7.9 2.8 1 2.3.1 4.5-.2 6.6-1 .3-.1.7-.3 1-.5.6-.4 1.3-.4 2-.4 1.3 0 2.6-.1 3.8-.3 1.3-.2 2.6-.4 3.9-.4.7 0 1.3-.1 1.9.1-.1.1-.1.3-.1.4.2 1.2.6 2.4.7 3.6.1 1.2 0 2.3 0 3.5-8-.1-16.3-.1-24.5-.1zm56.6-4.2c-.1.5-.3.9-.4 1.3-.2.6-.3 1.2-.5 1.7-.1.3 0 .8.1 1.1-8.9-.1-17.8-.1-26.7 0h-2.6c0-.1-.1-.2-.2-.3-.1-1.1-.1-2.1-.2-3.2-.1-1.2-.7-2.3-1.1-3.5.2.1.4.3.6.4.3.2.7 0 .8-.4.1-1.3-.1-2.2-.5-3.5-.2-.5-.4-1-.7-1.5-.4-.7-.6-1.3-.6-2.1-.1-1.3-.5-2.6-.5-3.9 0-.7.2-1.7 0-2.4-.2-.8-.4-1.6-.4-2.4-.1-1.4.2-2.9.2-4.3v-4.5-3.8h1.5c1 0 2 .2 2.9 0 .4.1.8.1 1.3 0 1-.1 1.8.1 2.8.2.9.1 2.2.3 3.2.1-.3 1.1-.8 2.1-.9 3.2-.1.5.1 1 .2 1.5.2.8.2 1.5.3 2.3.1 1.5.2 3 .1 4.5-.1 1.2-.8 2.8-.4 3.9.1.4.6.4.8.1.7-.9.7-2.5.8-3.6.2-1.5.1-3-.1-4.5 0-.6 0-1.3-.1-1.8-.2-.6-.4-1.2-.5-1.9-.3-1.3.2-2.6.3-3.9.2-.1.3-.1.4-.2l.1.1c.2.2.5-.1.4-.3-.2-.6.1-1.1.1-1.7 0-.8-.1-1.6-.1-2.4 0-1.6.1-3.2.3-4.8.2-1.7.5-3.3.8-5 .2-1 .6-1.9.9-2.9.5 0 .9-.2 1.4-.3.1 0 .2-.1.3-.1v.5c0 .2 0 .4-.1.5-1.8 4-2.1 8.6-2 13 .1 2.6-.2 5.1-.3 7.7 0 1.3-.1 2.6-.1 3.9-.1 1.4-.3 2.8-.4 4.2-.1 2.5.1 4.9.2 7.3 0 1.7 1.2 2.8 2.8 3 2.3.2 4.7.5 7 1.1 1.3.4 2.7.7 3.9 1.3.7.3 1.4.8 2.2.6.3-.1.3-.6-.1-.6-.9.1-2-.8-2.8-1.2-1-.4-2-.7-3.1-1.1-2-.6-4-.9-6-1.1-1-.1-2.2 0-2.6-1.1-.3-.9-.3-2-.4-2.9-.2-2.5-.1-5.2.3-7.7.3-2.1.4-4.2.6-6.3.1.7.6 1.2 1.2 1.5 1.3.7 2.9-.1 3.3-1.4.2-.6.1-1.8-.5-2.2.1-.3.1-.5.1-.8-.1-.6 0-1.1.1-1.7.2-1.1.4-2.1.7-3.2.3-1.1.8-2.1 1.1-3.1.3-1.1.4-2.2.7-3.3.2-1 .7-1.9 1.1-2.9.4-1 .7-1.8 1-2.8.5-1.7 1.9-3.1 2.3-4.9.5.2.9.6 1.3 1s.9.6 1.4.9c.8.4 1.6.8 2.3 1.2 1.5 1.3 2.9 2.5 4.5 3.7 1 .7 2 1.7 2.3 2.9 0 .2.1.3.1.5.1 1 .2 2 .4 3 .3 1.1.6 2.1.9 3.2-.3 0-.6.4-.4.8.3.4.5.9.6 1.4-1.1.4-1.6 1.5-2.7 2-.7.4-1.5.6-2.2 1.1-.1 0-.2.1-.3.2-.2-.5-.5-.9-.7-1.3-.5-.8-.9-1.9-1.6-2.6-.6-.6-1.3-1-1.8-1.8-.2-.5-.6-.8-.8-1.3-.4-.6-.4-1.5-.7-2.1-.2-.4-.8-.3-.7.2.2 1.1.3 2 .8 3 .5.8.8 1.4 1.5 2 .8.7 1.4 1.4 2 2.4.4.7.9 1.4 1.4 2.1v.1c-.1.1 0 .3 0 .4.2.2.4.3.5.4h.1c.8 1.3.7 2.9.7 4.3 0 1.6.4 3.1.4 4.8 0 1.7-.4 3.4-.6 5-.1.7-.2 1.4-.3 2v.7c0 .6-.8.6-1.2.6-1.2 0-2.3.8-3.2 1.5-.8.6-.8 2-.9 2.9 0 .6 0 2 .9 2 .3 0 .6-.2.7-.4.2.9.2 1.9 1 2.4h.1c-.1.8.1 2.2-.1 3.3zm.1-5.9c-.1-.5-.2-1.1-.5-1.5-.2-.3-.7-.2-.8.2 0 .1 0 .3-.1.4-.1.5-.1-.3-.1-.4-.1-.6.2-1.3.2-2 0-1.2 2.3-2.1 3.3-2.2.7 0 1.3-.2 1.6-.9.1-.3 0-.6 0-.9 0-.6.2-1.3.3-1.9.1-1.4.4-2.8.6-4.2.2-1.4.1-2.8 0-4.2-.2-2.2.4-4.4-.9-6.4 1 .1 1.9-.4 2.8-.9.4-.2.7-.4 1.1-.6-.2.3-.1.7.1.9.1 2.3.9 4.5 1.1 6.8v.6l-.3 1.2c-.4 1.3-.7 2.6-1 4-.3 1.4-.8 2.7-1.2 4.1-.2.6-.3 1.2-.5 1.8-.7.9-1.4 1.8-1.8 2.9-.4.9-.6 1.9-.8 2.9-.1.1-.1.2-.2.2h-.5c-.2-.4-.3-.9-.5-1.1-.1-.2-.3-.2-.5-.1-.7.6-.5 1.7-.9 2.5-.3-.2-.4-.9-.5-1.2z"/><path class="win-st0" d="M150.5 128.1s0-.1 0 0c0-.1 0-.1 0 0-.1 0-.1 0-.1-.1h-.1-.1c-.2 0-.3-.1-.5-.1-.3 0-.6 0-.8.2-.3.2-.3.6 0 .9.2.2.5.2.8.2.3 0 .6-.1.8-.2.2-.1.2-.3.2-.4 0-.3-.1-.5-.2-.5zM150.5 120.6c-.1-.1-.2-.1-.2-.2-.1-.1-.3-.1-.5 0-.1.1-.1.3 0 .5.1.1.1.2.2.2.1.1.4.1.5 0 .1-.2.1-.4 0-.5zM184.4 116.2c0-.2-.1-.3-.2-.3-.5-.1-.9.3-.9.8 0 .2.2.4.4.4s.4-.2.4-.4c0 0 .2-.1.1 0 .1-.2.2-.3.2-.5zM183.5 124.2c-.4.2-.6.6-.8 1-.1.2 0 .4.1.5.2.1.4 0 .5-.1.1-.2.2-.3.3-.5.1-.1.3-.3.3-.4.2-.3-.1-.6-.4-.5zM189.6 111.9c-.7.1-1.2.7-1.8 1-.6.3-1 .9-1.2 1.5-.1.5.6.8.8.3.3-.7.9-.7 1.5-1 .6-.3 1.1-.8 1.2-1.4-.1-.2-.3-.5-.5-.4zM145.7 129c-.2-.1-.5-.2-.7-.2-.1 0-.2 0-.4.1-.1 0-.2 0-.3.1-.4.2-.5.7 0 .9.2.1.4 0 .6 0h.4c.5.1.8-.7.4-.9zM149.1 142.5c-.2-.3-.4-.3-.5-.3.3-.1-.8-.2-.5-.1-.4-.1-.8-.1-1.2 0-.8.1-1.5.2-2.3.3-1.8.2-3.8.2-5.6 0-1.9-.1-4-.3-5.9-.7-.8-.2-1.5-.5-2.3-.6-1-.1-1.9-.3-2.7-.8-.2-.1-.5.2-.3.4 1.2 1 2.8 1.4 4.3 2 1.9.8 4.1 1 6.2 1.2 2.1.3 4.3.4 6.4.2.8-.1 1.7-.1 2.5-.3.7-.2 1.4.1 1.9-.5.1-.3.2-.5 0-.8zM137.7 147.9c.1-.3.2-.6.2-.9 0-.6-1-.7-1-.1-.1.7-.5 1.2.1 1.8.6.6.3 1.4 0 2.2-.2.5.6.8.8.3.3-.6.5-1.3.6-2-.1-.5-.4-.9-.7-1.3zM187.5 162.7c.1-.4.1-.7 0-1.1 0-.2-.3-.2-.3 0-.3 1-.8 1.9-.9 3-.1.7 0 1.3-.1 2-.1.5-.2.9-.3 1.4 0 .7 1 .7 1.1 0 .1-.6.3-1.2.4-1.7.1-.5.1-1.1.1-1.6 0-.7-.1-1.3 0-2zM187.5 160.8v.4c0 .1.2.1.2 0v-.4c0-.2-.2-.2-.2 0zM188.5 158.8c.1-.4 0-.9-.1-1.4-.1-.5-.8-.5-.9 0-.1.4-.1.8-.1 1.2 0 0 0 .1-.1.1-.1.2-.1.4 0 .5 0 .5.8.6.9.1v-.1l.1-.1c.1-.1.2-.2.2-.3zM188.9 153.1c.1-.8.3-1.7.1-2.5-.1-.3-.6-.3-.7 0-.2.7 0 1.7.1 2.5v.1c0 .1.1.1.2.1s.2 0 .2-.1c.1 0 .1 0 .1-.1zM53.3 167.3c0-.1-.1-.2-.3-.2-.2 0-.3.1-.3.3 0 .2 0 .4.1.7.1.2 0 .5.2.6.1.1.3.1.4 0 .4-.5 0-1-.1-1.4zM20 193.9c0-2.6 0-5.1-.1-7.7-.1-5.1-.2-10.2-.4-15.3 0-.5-.8-.5-.8 0-.2 5.1-.3 10.2-.4 15.3-.1 2.6-.1 5.1-.1 7.7 0 2.6-.1 5.2.2 7.8 0 .2.1.3.1.4-1.3-.1-2.7-.2-4 0-.4.1-.4.8 0 .9 1.5.3 3 .1 4.5 0 .4 0 .5-.4.4-.6.2-.1.4-.3.5-.7.2-2.6.1-5.2.1-7.8zM224 174.1c0-.3-.4-.3-.4 0-.2 4.5 0 9 0 13.5 0 4.7.1 9.3.1 14 0 .2.3.2.3 0 0-4.5.1-9 .1-13.5 0-4.6.2-9.3-.1-14zM223.8 173.2c-7.3-.1-14.5 0-21.8 0H21.4c-.3 0-.3.5 0 .5h.1v20.8c-.1 2.4-.2 4.7 0 7.1 0 .4.5.4.6 0 .2-2.2 0-4.5 0-6.7-.1-2.4 0-4.8 0-7.1v-14-.1c28.9.1 57.8 0 86.7 0h87.3c9.3 0 18.6.2 27.9 0 .2.1.2-.5-.2-.5zM130.9 40.2c-3-2-5.8-4.2-8.4-6.6-2.5-2.3-5.2-4.4-7.6-6.8-.1-.1-.2-.1-.3 0-.1-.1-.2-.1-.3-.1-1.2.5-2.1 1.7-3.1 2.4-1 .8-2.1 1.5-2.8 2.6-.1.2.1.3.2.1.8-1.1 2-1.7 3-2.5 1-.7 1.8-1.6 2.9-2.3l.1-.1c2.5 2.5 5.2 4.7 7.9 7.1 1.2 1.1 2.3 2.1 3.6 3.1 1.5 1.1 2.9 2.2 4.4 3.2-1.6 1.7-2.2 4.1-3.4 6.1-.1.1.1.2.2.1l.3-.3v-.1c.1-.1.2-.3.2-.4.4-.6.6-1.2.9-1.8.6-1.2 1.2-2.4 2-3.4.3.3.5-.1.2-.3zM106.5 33.1c-1.4.4-2.4 2-3.3 2.9-.8.8-1.3 1.6-2.2 2.3-.7.5-1.3 1.1-1.8 1.8-.2.2.2.4.3.2.6-.8 1.4-1.4 2.3-2 .7-.5 1.1-1.3 1.7-1.9 1-1 1.9-2.2 3.2-2.9.1-.2 0-.5-.2-.4z"/><path class="win-st0" d="M101 42c-.3-.7-.6-1.3-1.2-1.7-.2-.1-.4.2-.2.4.6.3.8 1 1.1 1.6.1.3.2.4.4.6.3.4.4.8.4 1.3 0 .2.3.1.3 0 0-1-.5-1.5-.8-2.2zM122.7 55.1c-.4.6-1.9.3-2.6.2-1.4-.1-2.8 0-4.1 0-1.5 0-3 .2-4.5.3-1.3.1-2.6-.1-3.8.5-.1 0 0 .2.1.2 1.4-.5 3.3-.2 4.8-.4 1.7-.1 3.4-.2 5.1-.2 1.1 0 2.2 0 3.3.1.7 0 1.6.1 2-.5.3-.2-.1-.4-.3-.2zM31.8 167.3l-.1-.1c0-.2-.2-.4-.4-.4 0 0 .1 0 0 0h-.4c-.3 0-.5.3-.5.5 0 .4.2.7.5.9.2.1.4.1.5.1.3.2.6-.1.5-.4.1-.3 0-.5-.1-.6zM226.4 205.7c-.4 0-.7-.1-1.1-.1-.4 0-.5.3-.5.5v.2s-.1 0-.1.1c-.3.3 0 .7.3.7h1c.5-.1.8-.5.9-1 0-.2-.3-.4-.5-.4zM233.1 202.6h-.2v-.1c0-.3-.3-.4-.5-.2-.1.2-.3.3-.4.5-.2.3.1.6.4.4.1.1.2.1.3.1h.5c.2-.1.2-.6-.1-.7zM26.7 200.7c0-.3-.5-.3-.6 0-.1.5-.1.9-.1 1.4 0 .5.8.5.7 0 0-.5.1-.9 0-1.4zM27.8 201.2c0 .3-.3.6-.6.6-.4 0-.4.6 0 .6.6 0 1.1-.6 1.2-1.2 0-.4-.5-.4-.6 0zM213.6 201.1c0-.2-.4-.2-.4 0-.1.6-.1 1.2-.1 1.8 0 .4.6.4.6 0 0-.5 0-1.2-.1-1.8zM214.9 200.8c0 .6-.1 1.1-.4 1.6-.1.3.3.5.4.2.3-.6.5-1.2.5-1.9 0-.2-.5-.2-.5.1zM200.8 44.4c-.1-1.1-1.5-1.4-2.6-1.2-.1-.1-.3 0-.4.1-.1.1-.3.1-.4.2-.4.3-.2.8.1.9v.2c.1.5.1 1 .1 1.6.1 1.1.6 1.8 1.6 2.2.2.1.4 0 .5-.1.6-.6.9-1.1 1.2-1.8.2-.7-.1-1.5-.1-2.1zm-.9 1.7c-.1.4-.3.8-.6 1.1-.6-.4-.7-1-.8-1.7 0-.3-.2-.9-.2-1.3.6-.1 1.4-.2 1.5.5 0 .5.2 1 .1 1.4zM208.4 75.8c-.5-.3-1 .4-.6.8l.2.2s-.1 0-.1.1c-.6.7-.6 1.7-.3 2.5.2.6.8 1.5 1.5 1.3.4-.1.6-.5.7-.8.2-.5.5-1.1.6-1.7 0-1.1-1.2-1.9-2-2.4zm.8 2.9c-.1.3-.2.7-.4 1.1-.1.1 0 .1-.2-.1s-.3-.4-.4-.7c-.2-.5-.3-1.2.1-1.7.1-.1.1-.2.1-.2.1.1.2.2.4.3.2.1.4.3.5.5.2.3 0 .6-.1.8zM224.5 55.5c-.7-.2-1.2-.1-1.8.3-.7.5-1.8-.4-2.4-.7-.3-.1-.6-.1-.8.1-.3.4-.5 1.1-1.1.9-.4-.1-.7.3-.5.7.7 1.4 1.6.5 2.3-.2.6.3 1.1.6 1.8.6.4 0 .8.1 1.2-.1.2-.1.3-.2.4-.3-.1.2-.1.4-.2.6-.1.4-.1.7-.2 1.1-1.8.1-3.8 0-5-1.4-.3-.4-.8.2-.5.5 1.2 1.5 3 2 4.9 2.1.9.1 1.7.1 2-.9.1-.4.1-.8.2-1.2.1-.5.3-.9.4-1.5-.2-.2-.5-.5-.7-.6zM150.4 48.4c-.1 0-.1 0 0 0l.3-.9c.1-.3-.3-.3-.4-.1-.2.4-.3.7-.5 1 0 0-.1.1-.1.2-.2.3-.5.6-.7.8-.6.6-1.3.8-2 1.1-.9.4-1.7.5-1.8 1.7 0 .3.3.5.6.6.6 0 .9.8 1.6.8.7 0 1.3-.6 1.7-1 .6-.6 1.3-1.4 1.7-2.1.3-.7 0-1.5-.4-2.1zm-.7 1.4c-.1.3-.5.7-.7.9-.5.5-.8 1.1-1.5 1.5-.5.3-.3.2-.7-.1-.1-.1-.2-.2-.3-.2.3-.2.6-.3.8-.5.5-.3 1.1-.5 1.5-.9.3-.3.6-.6.9-1v.3zM81.1 24.8c.1-.2-.1-.4-.3-.2-.9.8-1.6 1.9-2.8 2.1-1 .1-1.9-.1-2.8.2-.2.1-.4.3-.4.5.1 1.5 1.9 1.5 3.1 1.3.7-.1 1.5-.4 2-.9.7-.6.9-1.6 1.4-2.4.2-.3 0-.5-.2-.6zm-5 2.8c.7-.1 1.4-.1 2.1-.2-.6.2-1.6.5-2.1.2zM21 45.9c-.1-.2-.5-.2-.6 0-.3.4-.3 1-.6 1.4-.3.4-.8.9-1.3 1-.3 0-1 .6-1.2.1-.1-.2-.1-.4-.1-.6 1.1 0 2.8-1.8 3.3-2.3.3-.3-.2-.8-.5-.5-.3.3-2.7 2.4-2.9 1.9-.2-.4-.8-.4-.8.1 0 .7-.1 1.4.3 2 .4.6 1.2.5 1.7.3.7-.3 1.3-.4 1.8-1 .7-.6 1.2-1.6.9-2.4zM132.2 21.9c-.4-.2-.6-.3-1.1-.3-.6-.1-1.3-1-1.7-1.5l.3-.3c.3-.3-.2-.8-.5-.5-1.1 1.1-2.2 2.9-1 4.3.9 1 2.8 1.2 4 .8.2-.1.4-.3.4-.5 0-.6.3-1.7-.4-2zm-2.8 1.2c-1-.5-.9-1.4-.5-2.2.6.7 1.2 1.5 2.2 1.7.3.1.3 0 .5.1v.8c-.8.1-1.5 0-2.2-.4zM221.4 103.2c-1.5-.4-2.3-1.3-3.3-2.4-.4-.4-.9.1-.7.5l.3.6c-.4.7-1 1.5-1.1 2.4 0 .8 1 1.5 1.6 1.8.7.3 1.7.6 2.5.1s1-1.6 1.1-2.5c0-.2-.2-.4-.4-.5zm-2.8 1.9c-.5-.2-1-.6-.8-1.1.1-.4.3-.8.5-1.2.6.7 1.4 1.1 2.3 1.4-.1.4-.2.8-.4 1.1-.3.4-1.2 0-1.6-.2zM80.6 132.3v-.6c0-.5-.8-.7-.9-.1-.4 1.8-1.8 3.1-1.9 4.9 0 .2.1.4.3.5 2.9 1.6 5.2-3.7 2.5-4.7zm-1.6 3.8c.2-1.1 1-2 1.3-3 1.2.8 0 3.2-1.3 3zM171.3 32.3c-.3-.3-.8 0-.7.4-.2 0-.4.1-.4.3-.1.4-.6.8-.9 1.1-.4.3-.7.7-.9 1.2-.4.9.9 1.6 1.7 1.4.8-.2 1.5-1 2-1.7.7-1.1-.1-1.9-.8-2.7zm-.1 2.2c-.3.5-.8 1.1-1.4 1.3-.1 0-.6 0-.5-.3.1-.4.5-.7.7-.9.4-.4.8-.8.9-1.3.1.1.2.3.3.4.2.3.2.5 0 .8zM228.6 126c-1.1-.3-2.3-.2-3.5-.1-1.1 0-2.1.1-3.2.1-.6 0-.6.9 0 .9 1.1 0 2.1.1 3.2.1 1.2 0 2.3.2 3.5-.1.4-.1.4-.8 0-.9zM23.2 137.8c-1.5.1-1.3-2.4-1.1-3.3.1-.6.4-1.1.8-1.6.3-.3.6-.5.9-.5.4.2.7.3 1 .6.5.4.7 1.1.8 1.7.2 1.3-1.2 3.1-2.4 3.1zM26.7 128.3c-.3.1-.5.3-.7.5l-.5.5c-.3.3-.3.7 0 1 .3.3.7.3 1 0l.5-.5c.2-.2.5-.4.6-.8 0-.5-.4-.8-.9-.7zM28.4 130.5c0-.2-.2-.4-.4-.5h-.4c-.1 0-.3.1-.4.2l-.1.1c-.3 0-.5.3-.5.6s.3.6.6.6.5-.1.7-.3l.1-.1c.3-.3.4-.4.4-.6z"/></svg>
